<svg xmlns="http://www.w3.org/2000/svg" viewBox="0 0 76.14 39.18"><defs><style>.cls-1{fill:#ffae80;}.cls-2{fill:#f2e9e9;}.cls-3{fill:#ea6e29;}.cls-4{fill:#6b3b10;}.cls-5{fill:#7c4213;}.cls-6{fill:#b3b3b3;}.cls-7{fill:#9da768;}.cls-8{fill:#88944b;}.cls-9{fill:#dd7b43;}.cls-10{fill:#d45915;}.cls-11{fill:#37364f;}.cls-12{fill:#612f26;}.cls-13{fill:#4a1f15;}.cls-14{fill:#543838;}.cls-15{fill:#82bdd9;}.cls-16{fill:#cfb4b4;}.cls-17{fill:none;stroke:#bb6828;stroke-miterlimit:10;stroke-width:0.8px;}</style></defs><g id="Layer_2" data-name="Layer 2"><g id="Layer_1-2" data-name="Layer 1"><path class="cls-1" d="M34.79,11.37a17.74,17.74,0,0,1-3.36.51l-.23,2.35c1.47,0,4.21-.16,4.89-.7a43.83,43.83,0,0,0,3.66-5.19,6.77,6.77,0,0,0-1.22-.42A44.2,44.2,0,0,1,34.79,11.37Z"/><path class="cls-2" d="M38.17,23.94a4.66,4.66,0,0,0-.07-1.12A9.87,9.87,0,0,1,38,21.6a5.41,5.41,0,0,0-.28-1.9,5.52,5.52,0,0,0-.49-1.3,6.74,6.74,0,0,1-.66-1.69,4.24,4.24,0,0,0-.51-1.42,6.22,6.22,0,0,1-.48-1.59c-.16-.92-.23-2.15-1.12-2.67a5.37,5.37,0,0,0-1.66-.61c-.32-.05-.73-.4-1.05-.43-.52-.19-1,.37-1.4.7a3.75,3.75,0,0,0-.92,1.46,4.06,4.06,0,0,0-.3,2,6,6,0,0,1-.12,1.27,2,2,0,0,0,0,.93c.06.18.46.24.6.26a2,2,0,0,0-.2,1.06,13.49,13.49,0,0,1-.07,1.68c-.05.51-.12,1-.17,1.55a3,3,0,0,0,0,.67.2.2,0,0,0-.08.28,3.3,3.3,0,0,0,1.74,1.2c.77.33,1.34,1,2.12,1.24a5.29,5.29,0,0,0,2.34.18,15.35,15.35,0,0,0,2.34-.34A.34.34,0,0,0,38.17,23.94Z"/><path class="cls-2" d="M59,20.87c.06,0,0-.1,0-.1A.05.05,0,0,0,59,20.87Z"/><path class="cls-3" d="M38.62,20.68q0-.18,0-.39a15,15,0,0,0-.27-1.55l-.09-.37a42.34,42.34,0,0,0-2.3-6.83l-.12-.23a.25.25,0,0,0,0-.07,2.07,2.07,0,0,0-2.33-1,3,3,0,0,0-1.17-.31,4.3,4.3,0,0,0-2.33.48c-1.07.55-2.37,1.52-2.25,1.91a.78.78,0,0,0,.92.45A4.28,4.28,0,0,0,28.25,15c0,.31.48,8.06,2,8.35,2,.37,7.94-.19,8.32-2.09A2.77,2.77,0,0,0,38.62,20.68Zm-7.46-3.34a2.31,2.31,0,0,1-1.88-2.64A2.33,2.33,0,0,1,33.16,14C34.72,15.4,32.5,17.54,31.16,17.34Z"/><path class="cls-4" d="M76,21.36c-.22-.34-9.81,0-16.66.16-.24,0-16.25.49-24.09.6q-13.53.18-27.08.27c-4.79,0-1.58.05-6.37.07-1.31,0-1.69.17-1.7.26A15.57,15.57,0,0,0,0,25.18c0,.12,0,.23,0,.35a15.41,15.41,0,0,0,.6,3.35,3,3,0,0,0,1.84,1.34c8.14.45,8.28.74,16.43.87s37.64-.35,37.93-.36c8.27-.28,7.69-.85,14.33-4A13.4,13.4,0,0,0,73.4,25.3l.53-.43C75.37,23.64,76.55,22.19,76,21.36Z"/><path class="cls-5" d="M73.93,24.87l-.53.43c-3.83.12-7.66.36-11.48.64-7.62.56-7.24.46-14.89.57s-15.26-.38-22.89-.6c-10.7-.31-13.4-.34-24.1-.38,0-.12,0-.23,0-.35,3.91,0-.18,0,3.73,0,7.73,0,15.47.15,23.2.37s15.23.68,22.86.44,7.26-.19,14.89-.7C67.77,25.12,70.85,25,73.93,24.87Z"/><path class="cls-1" d="M40.58,6.93a1.9,1.9,0,0,1-.2.65,3.7,3.7,0,0,1-.39.58s-.7.57-.85.43-.71-.25-.59-.83a2.21,2.21,0,0,1,.79-1.18A1.51,1.51,0,0,1,40.58,6.93Z"/><polygon class="cls-6" points="51.19 31.35 51.81 31.03 36.65 0 36.04 0.31 51.19 31.35"/><path class="cls-7" d="M47.09,24.81a8.07,8.07,0,0,0,1,5.57l1.38,2.7a2.52,2.52,0,0,0,3.38,1.09h0A2.51,2.51,0,0,0,54,30.79l-1.38-2.7A9.36,9.36,0,0,0,48.71,24c-.11-.05-.33-.14-.4-.28l-.22-.44c-.09-.18-1.15.38-1.06.56l.22.43C47.32,24.36,47.13,24.66,47.09,24.81Z"/><path class="cls-8" d="M47.81,25c.42,1,.89,2,1.33,3a12.37,12.37,0,0,0,.62,1.29c.18.28.41.77.73.91s.33-.08.37-.25a1,1,0,0,0-.06-.64.06.06,0,0,0,0-.06c-.78-1.66-1.7-3.29-2.52-5,0-.1-.21,0-.15.07.81,1.53,1.52,3.13,2.37,4.64v0c.28.64.25.93.15,1s-.45-.29-.61-.55S48.49,26.2,47.91,25C47.88,24.91,47.78,25,47.81,25Z"/><path class="cls-1" d="M44.59,16.43c.06-.07-.05-.39-.12-.33l-.08.07.08-.09c.08-.08-.09-.43-.19-.34s-.09.08-.09.09,0,0,0,0l.07-.07c.07-.14-.13-.4-.23-.34a.07.07,0,0,1,0,0l0,0c.1-.12-.17-.44-.31-.34l-.28.17c-.32.19-.47,0-.47,0L42.84,15a6.55,6.55,0,0,0-.62.51,2.75,2.75,0,0,0-.5.9,1.83,1.83,0,0,0,.07.56,4,4,0,0,0,.44.7s.92-.28,1.2-.41a3.61,3.61,0,0,0,.9-.51Z"/><path class="cls-9" d="M43.93,15.47s0,0,0,0l.13-.12,0,0Z"/><path class="cls-9" d="M44.07,15.89s0,0,0,0l.21-.18,0,0A2,2,0,0,1,44.07,15.89Z"/><path class="cls-9" d="M44.48,16.06l-.25.24s0,0,0,0,.17-.16.25-.23A0,0,0,0,0,44.48,16.06Z"/><path class="cls-10" d="M35.56,12.77s-.1,0-.08.05A75.33,75.33,0,0,1,38,20.65c0,.07.12,0,.11,0A57.83,57.83,0,0,0,35.56,12.77Z"/><path class="cls-11" d="M38.32,18.74c-1.2,1-3.16,1-4.64,1a.15.15,0,0,1,0-.29,12.12,12.12,0,0,0,2.75-.29,6.87,6.87,0,0,0,1.8-.78Z"/><path class="cls-1" d="M35.81,16.77A18.12,18.12,0,0,1,33,14.87l-1.75,1.58c1,1,3.21,2.72,4.07,2.79a54.51,54.51,0,0,0,6.92-1.6,9.65,9.65,0,0,0-.45-1.44C40.85,16.29,36.3,16.87,35.81,16.77Z"/><path class="cls-1" d="M35.5,12.75a4.42,4.42,0,0,0-.83-.63A2.53,2.53,0,0,0,34.3,12,16.78,16.78,0,0,1,32,11.36c-2.86-1.5,1.17-1.15,1.17-1.15A7.75,7.75,0,0,1,35,11.62v0A5.21,5.21,0,0,1,35.5,12.75Z"/><path class="cls-1" d="M34.11,10.35s-.07.4-.11.74-.84.43-1.47.22-1.16-.48-1.21-1a10.29,10.29,0,0,0,.26-1.49A7.69,7.69,0,0,1,34.11,10.35Z"/><path class="cls-1" d="M35.57,7.63a4,4,0,0,1,0-.65c0-.17,0-.32,0-.43a1.15,1.15,0,0,0,0-.19,2.63,2.63,0,0,0-5.25-.11,2.46,2.46,0,0,0,.93,1.94c.17.32.3.68.42.85a3.92,3.92,0,0,0,1.51,1.19,2.49,2.49,0,0,0,1.67.23,4.38,4.38,0,0,0,.72-2.07C35.62,8.2,35.58,7.9,35.57,7.63Z"/><path class="cls-12" d="M33.17,7.24a1.54,1.54,0,0,1,.55-.14,1.22,1.22,0,0,1,.27,0,.73.73,0,0,1,.3.06c.06,0,0,.09,0,.18s-.5,0-.66,0l-.36,0C33.15,7.39,33.09,7.28,33.17,7.24Z"/><path class="cls-12" d="M35.05,7.29a.7.7,0,0,0,.42,0l.13,0a.14.14,0,0,0,0-.22H35.3a.61.61,0,0,0-.29.11S35,7.24,35.05,7.29Z"/><path class="cls-9" d="M34.08,10.5A3.84,3.84,0,0,1,33,10a7.34,7.34,0,0,1-.75-.66,2.63,2.63,0,0,0,.83.94,3.86,3.86,0,0,0,.95.39Z"/><path class="cls-9" d="M35.19,9.3l-.44,0a1.91,1.91,0,0,1-.48,0c-.07,0-.1.09,0,.1a1.71,1.71,0,0,0,1,0S35.24,9.29,35.19,9.3Z"/><path class="cls-12" d="M30.08,6.2c0-.15,0-.29,0-.44A1.31,1.31,0,0,1,30.46,5h0a.32.32,0,0,1,.07-.25.74.74,0,0,1,.4-.26.7.7,0,0,1,.14-.46,1.62,1.62,0,0,1,1.12-.43,3.76,3.76,0,0,0,.74-.1,3.23,3.23,0,0,1,.51-.14,1,1,0,0,1,.84.18.93.93,0,0,1,.79.41c.13.23.12.37.37.53a1.88,1.88,0,0,1,.5.55.59.59,0,0,1,0,.52c.12.35-.16.78-.53.54l-.08,0a.52.52,0,0,1-.37,0c-.19-.07-.42-.33-.6-.34a.39.39,0,0,1-.1.08,2.15,2.15,0,0,1-.58.38c-.12,0-.31.06-.46.11A2.48,2.48,0,0,1,33,6.7a.87.87,0,0,1-.17.21,1,1,0,0,0-.15.14s0,.14,0,.27a.9.9,0,0,1-.09.32.5.5,0,0,1-.3.32.26.26,0,0,1-.3-.08c-.06-.08,0-.12,0-.21a.62.62,0,0,0,.07-.29.67.67,0,0,0-.24.12,4.33,4.33,0,0,0,0,.68c-.31.14,0,.56-.29.63a3.26,3.26,0,0,1-.72-1.07c-.24-.16-.59-.28-.72-.63A1.12,1.12,0,0,1,30.08,6.2Z"/><path class="cls-1" d="M32.15,7.36s-.38-.46-.66,0c-.18.33.18,1,.74,1.17C32.35,8.6,32,8,32.15,7.36Z"/><path class="cls-9" d="M32,8a.91.91,0,0,1-.15-.23.32.32,0,0,1,.06-.28c.05,0,0-.12-.08-.09a.39.39,0,0,0-.14.39c0,.14.14.31.3.29S32,8,32,8Z"/><path class="cls-13" d="M30.66,6.62s.08,0,.05,0a3.34,3.34,0,0,1-.25.4s0,0,0,0A1.61,1.61,0,0,1,30.66,6.62Z"/><path class="cls-13" d="M31.08,7c.06-.09.13-.17.2-.26s.09,0,.06,0a2.2,2.2,0,0,0-.17.25,1,1,0,0,1-.16.24s-.06,0-.06,0A.6.6,0,0,1,31.08,7Z"/><path class="cls-13" d="M31.59,6c.19,0,.22-.19.35-.3a.42.42,0,0,1,.43,0,.36.36,0,0,0,.27,0,1,1,0,0,0,.17-.23,1.44,1.44,0,0,1,.38-.32s.05,0,0,0a1.3,1.3,0,0,0-.41.46.31.31,0,0,1-.37.17,2.5,2.5,0,0,0-.26-.07.25.25,0,0,0-.24.14c-.08.1-.21.28-.36.2A0,0,0,0,1,31.59,6Z"/><path class="cls-13" d="M31.72,5.25a2.81,2.81,0,0,1,.49-.09s.06,0,0,.06l-.39.1a.55.55,0,0,0-.28.15s-.06,0-.06,0S31.62,5.27,31.72,5.25Z"/><path class="cls-13" d="M34.84,4.86a1.26,1.26,0,0,1,.6.56s0,.07,0,0a1.64,1.64,0,0,0-.28-.31c-.09-.08-.21-.15-.3-.23S34.81,4.85,34.84,4.86Z"/><path class="cls-13" d="M34.68,4.55a1.3,1.3,0,0,1,.3.13s0,.06,0,0a1.43,1.43,0,0,1-.28-.13A0,0,0,0,1,34.68,4.55Z"/><path class="cls-14" d="M35.46,7.78a.09.09,0,0,1-.08.06.16.16,0,0,1-.13-.06c0-.09-.07-.39.1-.37S35.54,7.69,35.46,7.78Z"/><path class="cls-14" d="M33.94,7.91s0,.06-.09.06a.14.14,0,0,1-.12-.06c0-.09-.07-.39.09-.37S34,7.81,33.94,7.91Z"/><path class="cls-9" d="M34.93,8.64c.06,0,.13-.07.14-.14A.31.31,0,0,0,35,8.3a2.2,2.2,0,0,1-.25-.57c0-.05,0-.07.08,0s.16.33.26.49a.52.52,0,0,1,.11.3c0,.17-.3.27-.43.32s-.06-.05,0-.06A1.57,1.57,0,0,1,34.93,8.64Z"/><path class="cls-2" d="M35.5,12.75a4.42,4.42,0,0,0-.83-.63A2.53,2.53,0,0,0,34.3,12a2.14,2.14,0,0,0,.68-.37A5.21,5.21,0,0,1,35.5,12.75Z"/><path class="cls-1" d="M40.58,6.9a1.23,1.23,0,0,1-.3.67,4.88,4.88,0,0,0-.51-.49c-.13,0-.42,0-.52-.07s-.06-.09,0-.12,0,0,0,0h0s-.26,0-.28-.1a.09.09,0,0,1,.05-.1.12.12,0,0,1-.06-.11c0-.06.1-.09.15-.1l.68-.14.1,0a1.68,1.68,0,0,0,.38-.14l.16.09A.83.83,0,0,1,40.58,6.9Z"/><path class="cls-1" d="M39.88,5.9a4.29,4.29,0,0,0-.76,0c-.13,0-.07.15,0,.17l.54.1a1.52,1.52,0,0,0,.28.18c.18.05.45,0,.43-.11A2,2,0,0,0,39.88,5.9Z"/><path class="cls-1" d="M38.62,6.21a4.37,4.37,0,0,0-.15.69c0,.32.06,1,.06,1s.6-.11.47-.48S39,6,38.62,6.21Z"/><path class="cls-9" d="M40.17,6.66l-.31-.14-.42,0a4,4,0,0,0-.45.08s0,0,0,0l.43,0c.13,0,.28,0,.43,0l.3.13C40.22,6.75,40.24,6.69,40.17,6.66Z"/><path class="cls-9" d="M40.11,7c-.08,0-.23-.13-.33-.17h-.26l-.32,0s0,0,0,0h0l.3,0,.28,0,.33.2S40.14,7,40.11,7Z"/><path class="cls-9" d="M40.15,6.42s0,0,0,0l-.34-.14.08,0,.27.12S40.16,6.4,40.15,6.42Z"/><path class="cls-10" d="M34.56,12.12a4.07,4.07,0,0,1-1.35.67,3,3,0,0,1-1.68-.28,3.18,3.18,0,0,0-2.68-.31c-.08,0,0,.16.07.12,1.2-.54,2.34.49,3.49.7a2.14,2.14,0,0,0,2.25-.8A.07.07,0,0,0,34.56,12.12Z"/><path class="cls-10" d="M35.92,11.51a.69.69,0,0,1-.38.25c-.16,0-.18-.07,0-.14a.4.4,0,0,0,.24-.24.7.7,0,0,0,0-.14.25.25,0,0,1,0,.07Z"/><path class="cls-11" d="M38.61,20.49a10.37,10.37,0,0,1-4.92,1,.12.12,0,0,1,0-.24,12.08,12.08,0,0,0,4.88-1.11C38.58,20.24,38.6,20.37,38.61,20.49Z"/><path class="cls-2" d="M30.09,16c0,.08,2,1.64,2,1.64l2-1.93-2-1.65S29.23,13.51,30.09,16Z"/><path class="cls-15" d="M33.1,26.39s0,0,0,0Z"/><path class="cls-16" d="M33.28,15.06c-.57.63-1.27,1.35-1.9,1.92-.44-.37-.89-.72-1.3-1.11a0,0,0,1,0-.06.05,12,12,0,0,0,1.66,1.39s.06,0,0,0L31.45,17a10.46,10.46,0,0,0,1.9-1.92S33.31,15,33.28,15.06Z"/><path class="cls-16" d="M33.8,15.48a10.23,10.23,0,0,0-1.08-1,0,0,0,0,0-.06.06,11.33,11.33,0,0,0,1.1,1S33.82,15.5,33.8,15.48Z"/><path class="cls-17" d="M32,38.78s5.54-.57,5.36-7.92"/><path class="cls-17" d="M44.38,38.78s-5.54-.57-5.36-7.92"/></g></g></svg>