<svg xmlns="http://www.w3.org/2000/svg" xmlns:xlink="http://www.w3.org/1999/xlink" viewBox="0 0 23.89 39.84"><defs><style>.cls-1{isolation:isolate;}.cls-2{fill:none;stroke:#bb6828;stroke-miterlimit:10;stroke-width:0.8px;}.cls-3{fill:#4d4d4d;}.cls-4{fill:#58595b;}.cls-10,.cls-11,.cls-4,.cls-7,.cls-9{mix-blend-mode:soft-light;}.cls-5{fill:url(#linear-gradient);}.cls-6{fill:#bb6828;}.cls-7{fill:#231f20;}.cls-8{fill:#9457ad;}.cls-9{fill:#00b4ff;}.cls-10{fill:#cfaccf;}.cls-11{fill:#1f2023;}</style><linearGradient id="linear-gradient" y1="13.47" x2="23.89" y2="13.47" gradientUnits="userSpaceOnUse"><stop offset="0" stop-color="#ffde0b"/><stop offset="1" stop-color="#ffce00"/></linearGradient></defs><g class="cls-1"><g id="Layer_2" data-name="Layer 2"><g id="Layer_1-2" data-name="Layer 1"><path class="cls-2" d="M5.85,39.44s5.55-.57,5.37-7.92"/><path class="cls-2" d="M12.9,31.52c-.18,7.35,5.36,7.92,5.36,7.92"/><path class="cls-3" d="M11.94,37.4h0a3.71,3.71,0,0,1-3-1.63l0-.05H15l-.05.05A3.88,3.88,0,0,1,11.94,37.4Z"/><path class="cls-4" d="M15,35.72l-.05.05a3.88,3.88,0,0,1-3,1.63,3.53,3.53,0,0,1-2.45-1,3,3,0,0,0,1.46.27A1.33,1.33,0,0,0,12,35.72Z"/><path class="cls-5" d="M23.89,11.94a11.9,11.9,0,0,1-3.19,8.13,10.29,10.29,0,0,0-2.65,5.58L18,26a1.13,1.13,0,0,1-1.12,1H7a1.13,1.13,0,0,1-1.12-1l0-.36a10.34,10.34,0,0,0-.69-2.52,10.32,10.32,0,0,0-2-3A11.94,11.94,0,0,1,12.35,0a11.38,11.38,0,0,1,3.05.5A12,12,0,0,1,23.89,11.94Z"/><path class="cls-6" d="M18.87,15.41a2.12,2.12,0,0,0-2.36-2.13H16.4a2.33,2.33,0,0,0-2.56,2.27L13.72,17H10L9.9,15.55a2.19,2.19,0,0,0-2.25-2.26A2.27,2.27,0,0,0,5,15.41a2.59,2.59,0,0,0,.67,1.85,1.91,1.91,0,0,0,1.54.66H9.16l.75,9.18.93-.09-.73-9.09h3.52L12.78,27l1.1.09.74-9.18H16.4a2.4,2.4,0,0,0,1.79-.66A2.62,2.62,0,0,0,18.87,15.41ZM16.37,17H14.71l.11-1.33A1.62,1.62,0,0,1,16.23,14a1.48,1.48,0,0,1,1.54,1.42A1.46,1.46,0,0,1,16.37,17Zm-7.3,0H7.13a1.39,1.39,0,0,1-1.27-1.53A1.33,1.33,0,0,1,7.33,14h.06A1.75,1.75,0,0,1,9,15.65Z"/><path class="cls-7" d="M23.89,11.94a11.9,11.9,0,0,1-3.19,8.13,10.29,10.29,0,0,0-2.65,5.58L18,26a1.13,1.13,0,0,1-1.12,1H7a1.13,1.13,0,0,1-1.12-1l0-.36a10.34,10.34,0,0,0-.69-2.52l.63.6a3.54,3.54,0,0,0,1.13.69,6.42,6.42,0,0,0,2.28.52A8.78,8.78,0,0,0,12,24.41c1.85-.57,2.78-2.3,3.82-3.83.81-1.19,2.64-2.44,3.36-3.39a9.87,9.87,0,0,0,1.78-7.91A12,12,0,0,0,15.4.51,12,12,0,0,1,23.89,11.94Z"/><path class="cls-8" d="M17.18,29.11a.33.33,0,0,1,.1-.22,1.21,1.21,0,0,0,.41-.85,1.11,1.11,0,0,0-1.1-1.11H7.3a1.1,1.1,0,0,0-.68,2c.14.12.32.15.2.34s-.27.18-.36.29a1.11,1.11,0,0,0-.26.71,1.13,1.13,0,0,0,.5.93c.16.1.28.1.12.29s-.26.16-.36.27a1.12,1.12,0,0,0-.26.72,1.15,1.15,0,0,0,.51.92c.3.26.26.69.42,1a2.42,2.42,0,0,0,.6.82l0,0a2,2,0,0,0,1.3.5h5.79a2,2,0,0,0,1.3-.5l0,0a2.4,2.4,0,0,0,.62-.86c.14-.33.16-.77.42-1a1.16,1.16,0,0,0,.49-.9,1.09,1.09,0,0,0-.23-.68c-.17-.21-.41-.38-.21-.65s.44-.47.44-.88a1.09,1.09,0,0,0-.23-.67C17.33,29.4,17.18,29.27,17.18,29.11Z"/><path class="cls-9" d="M6.48,31.71l0,0Z"/><path class="cls-10" d="M10.29,35.75H9.05a2,2,0,0,1-1.3-.5l0,0a2.42,2.42,0,0,1-.6-.82c-.16-.34-.12-.75-.4-1,0,0,0,0,0,0l-.11-.09a1.1,1.1,0,0,1-.4-.83,1.12,1.12,0,0,1,.26-.72h0c.12-.11.41-.19.37-.38s-.12-.15-.2-.2l-.07-.06h0l0,0,0,0-.06-.07v0l0,0a.24.24,0,0,1-.06-.09l0,0,0,0,0,0h0l0-.05,0-.12,0-.05a.09.09,0,0,0,0,0h0v-.05a.13.13,0,0,1,0-.06v-.15s0-.06,0-.1a.29.29,0,0,1,0-.09.32.32,0,0,1,0-.09s0,0,0-.05a1.28,1.28,0,0,1,.15-.25l0,0,.08-.07,0,0a.78.78,0,0,0,.15-.1.3.3,0,0,0,.08-.08c.06-.1,0-.15,0-.2l0,0a.76.76,0,0,1-.16-.11A1.1,1.1,0,0,1,6.2,28a1.09,1.09,0,0,1,.32-.78,1.2,1.2,0,0,1,.4-.26l0,0a1.26,1.26,0,0,1,.33-.05h2a1.1,1.1,0,0,0-.65,2c.14.12.32.15.2.34s-.27.18-.37.29a1.16,1.16,0,0,0-.25.71,1.07,1.07,0,0,0,.2.63,1,1,0,0,0,.23.24.57.57,0,0,1,.11.11.32.32,0,0,1,0,.19.25.25,0,0,1-.12.19.64.64,0,0,0-.19.13,1.12,1.12,0,0,0-.26.72,1,1,0,0,0,.18.59.8.8,0,0,0,.21.2.42.42,0,0,1,.2.25.93.93,0,0,1,0,.33,1.59,1.59,0,0,0,.32,1.26A3,3,0,0,0,10.29,35.75Z"/><path class="cls-11" d="M17.26,31.12c-.21.27,0,.44.2.65a1.09,1.09,0,0,1,.23.68,1.18,1.18,0,0,1-.49.9c-.26.25-.28.69-.42,1a2.4,2.4,0,0,1-.62.86l0,0a1.91,1.91,0,0,1-1.29.5H12a3.5,3.5,0,0,0,1.1-.66,1.36,1.36,0,0,0,.29-1.21c0-.26-.25-.38,0-.62a3.55,3.55,0,0,0,.33-.34,1,1,0,0,0-.08-1.15c-.17-.21-.41-.38-.21-.65s.44-.47.44-.88a1.09,1.09,0,0,0-.23-.67c-.13-.17-.28-.3-.28-.46a.33.33,0,0,1,.1-.22,1.21,1.21,0,0,0,.41-.85,1.11,1.11,0,0,0-1.1-1.11h3.83A1.11,1.11,0,0,1,17.69,28a1.21,1.21,0,0,1-.41.85.33.33,0,0,0-.1.22c0,.16.15.29.28.46a1.09,1.09,0,0,1,.23.67C17.69,30.65,17.48,30.83,17.26,31.12Z"/><path class="cls-7" d="M17.18,29.11a.42.42,0,0,0,0,.15c-1.14.07-3,.12-5.19.12S8,29.33,6.81,29.26v0c.06-.1,0-.15,0-.2l0,0L6.68,29c1.13-.08,3.1-.13,5.35-.13s4.07,0,5.22.12A.27.27,0,0,0,17.18,29.11Z"/><path class="cls-7" d="M17.26,31.53c-1.14.08-3.06.13-5.23.13s-4.14-.05-5.28-.13a.19.19,0,0,0,.1-.2.21.21,0,0,0-.07-.11c1.14-.08,3.06-.12,5.25-.12s4,0,5.17.11A.31.31,0,0,0,17.26,31.53Z"/><path class="cls-7" d="M17.26,33.3l-.06.05a1,1,0,0,0-.18.28c-1.16.07-3,.11-5,.11s-4-.05-5.14-.12a.69.69,0,0,0-.16-.22s0,0,0,0l-.07-.06c1.12-.08,3.11-.13,5.39-.13S16.12,33.23,17.26,33.3Z"/><path class="cls-7" d="M16,35.33a1.93,1.93,0,0,1-1.2.42H9.05a2,2,0,0,1-1.19-.41c1.11-.05,2.57-.07,4.17-.07S15,35.29,16,35.33Z"/></g></g></g></svg>