<svg xmlns="http://www.w3.org/2000/svg" xmlns:xlink="http://www.w3.org/1999/xlink" viewBox="0 0 38.1 59.64"><defs><style>.cls-1{isolation:isolate;}.cls-2{fill:#4d4d4d;}.cls-3{fill:#58595b;}.cls-10,.cls-3,.cls-6,.cls-8,.cls-9{mix-blend-mode:soft-light;}.cls-4{fill:url(#linear-gradient);}.cls-5{fill:#bb6828;}.cls-6{fill:#231f20;}.cls-7{fill:#9457ad;}.cls-8{fill:#00b4ff;}.cls-9{fill:#cfaccf;}.cls-10{fill:#1f2023;}</style><linearGradient id="linear-gradient" y1="21.48" x2="38.1" y2="21.48" gradientUnits="userSpaceOnUse"><stop offset="0" stop-color="#ffde0b"/><stop offset="1" stop-color="#ffce00"/></linearGradient></defs><g class="cls-1"><g id="Layer_2" data-name="Layer 2"><g id="portrait"><g id="Page-02"><g id="Drop"><path class="cls-2" d="M19.05,59.64h0a5.88,5.88,0,0,1-4.77-2.59L14.2,57h9.67l-.08.08A6.21,6.21,0,0,1,19.05,59.64Z"/><path class="cls-3" d="M23.87,57l-.08.08a6.21,6.21,0,0,1-4.74,2.59A5.59,5.59,0,0,1,15.14,58a4.74,4.74,0,0,0,2.33.44A2.14,2.14,0,0,0,19.2,57Z"/><path class="cls-4" d="M38.1,19.05A19,19,0,0,1,33,32a16.39,16.39,0,0,0-4.23,8.9l-.07.5A1.81,1.81,0,0,1,26.94,43H11.16A1.79,1.79,0,0,1,9.38,41.4l-.08-.58a15.81,15.81,0,0,0-1.11-4A16.36,16.36,0,0,0,5.07,32a19.05,19.05,0,1,1,33-12.94Z"/><path class="cls-5" d="M30.09,24.58c-.1-2.2-1.55-3.39-3.76-3.39h-.17c-2.09.09-3.74.86-4.08,3.62l-.19,2.29H16l-.19-2.29c-.22-2.36-1.49-3.53-3.58-3.62-2.29-.1-4.13,1.12-4.23,3.38a4.11,4.11,0,0,0,1.08,2.95,3,3,0,0,0,2.46,1.05h3.09L15.8,43.22l1.49-.14-1.17-14.5h5.62L20.39,43.08l1.74.14,1.18-14.64h2.85a3.85,3.85,0,0,0,2.85-1A4.12,4.12,0,0,0,30.09,24.58Zm-4,2.52H23.46L23.63,25a2.57,2.57,0,0,1,2.26-2.57,2.35,2.35,0,0,1,.21,4.7Zm-11.63,0H11.38a2.24,2.24,0,0,1-2-2.45,2.12,2.12,0,0,1,2.35-2.25h.1A2.78,2.78,0,0,1,14.29,25Z"/><path class="cls-6" d="M38.1,19.05A19,19,0,0,1,33,32a16.39,16.39,0,0,0-4.23,8.9l-.07.5A1.81,1.81,0,0,1,26.94,43H11.16A1.79,1.79,0,0,1,9.38,41.4l-.08-.58a15.81,15.81,0,0,0-1.11-4s.83.77,1,.95a5.56,5.56,0,0,0,1.8,1.1,10.45,10.45,0,0,0,3.64.84,14.11,14.11,0,0,0,4.44-.78c2.94-.91,4.42-3.66,6.09-6.1,1.29-1.89,4.21-3.9,5.36-5.41a15.74,15.74,0,0,0,2.83-12.6c-.66-5-3.48-11-8.81-14A19.05,19.05,0,0,1,38.1,19.05Z"/><path class="cls-7" d="M27.4,46.43a.53.53,0,0,1,.16-.35,2,2,0,0,0,.65-1.37A1.77,1.77,0,0,0,26.45,43H11.64a1.76,1.76,0,0,0-1.08,3.14c.22.19.51.24.31.54s-.42.29-.57.47a1.76,1.76,0,0,0,.39,2.6c.25.17.44.17.19.46s-.42.26-.58.45a1.78,1.78,0,0,0-.41,1.13,1.88,1.88,0,0,0,.8,1.48c.49.42.42,1.09.68,1.65a4,4,0,0,0,1,1.31l0,0a3.06,3.06,0,0,0,2.06.79h9.23a3.09,3.09,0,0,0,2.07-.79l.05,0a4.11,4.11,0,0,0,1-1.36c.22-.53.26-1.23.68-1.63a1.89,1.89,0,0,0,.77-1.45,1.76,1.76,0,0,0-.37-1.07c-.26-.34-.65-.62-.32-1.05s.69-.75.69-1.39a1.76,1.76,0,0,0-.37-1.08C27.64,46.89,27.4,46.67,27.4,46.43Z"/><path class="cls-8" d="M10.34,50.58l0,0Z"/><path class="cls-9" d="M16.4,57h-2a3.06,3.06,0,0,1-2.06-.79l0,0a4,4,0,0,1-1-1.31c-.25-.54-.2-1.19-.63-1.61l-.05,0-.17-.15a1.74,1.74,0,0,1-.22-2.46l0,0h0c.18-.18.64-.32.59-.61s-.2-.24-.32-.32l-.12-.1h0l0,0,0,0-.09-.1,0,0,0,0a1.19,1.19,0,0,1-.09-.15l0,0,0-.06A.25.25,0,0,0,10,49h0l0-.08a.64.64,0,0,1-.06-.18.29.29,0,0,1,0-.09.24.24,0,0,1,0-.08h0a12901658908071.14,12901658908071.14,0,0,0,0-.18v-.24s0-.1,0-.15a23401992830469.08,23401992830469.08,0,0,1,.08-.3l0-.07a1.6,1.6,0,0,1,.23-.4l.05-.06.13-.12.08-.06a1.43,1.43,0,0,0,.24-.16.49.49,0,0,0,.12-.13c.11-.15.08-.24,0-.32l0,0c-.07-.06-.17-.11-.25-.18a1.77,1.77,0,0,1-.67-1.38,1.75,1.75,0,0,1,.51-1.24,1.8,1.8,0,0,1,.64-.41l.08,0a1.82,1.82,0,0,1,.52-.08H14.9a1.77,1.77,0,0,0-1.72,1.76,1.81,1.81,0,0,0,.67,1.38c.23.19.51.25.32.54s-.42.29-.58.47a1.82,1.82,0,0,0-.41,1.13,1.77,1.77,0,0,0,.32,1,1.71,1.71,0,0,0,.37.39c.07.06.14.09.18.17a.63.63,0,0,1,0,.3.41.41,0,0,1-.19.31.81.81,0,0,0-.31.21,1.74,1.74,0,0,0-.42,1.13,1.7,1.7,0,0,0,.3.95,1.26,1.26,0,0,0,.33.32.62.62,0,0,1,.32.39,1.42,1.42,0,0,1-.05.54,2.53,2.53,0,0,0,.5,2A4.84,4.84,0,0,0,16.4,57Z"/><path class="cls-10" d="M27.52,49.63c-.33.42.06.7.32,1a1.76,1.76,0,0,1,.37,1.07,1.89,1.89,0,0,1-.77,1.45c-.42.4-.46,1.1-.68,1.63a4.11,4.11,0,0,1-1,1.36l-.05,0a3.09,3.09,0,0,1-2.07.79H19.2A5.64,5.64,0,0,0,21,56,2.24,2.24,0,0,0,21.43,54c-.09-.41-.42-.6-.09-1a4.45,4.45,0,0,0,.52-.54,1.63,1.63,0,0,0-.12-1.83c-.27-.34-.66-.62-.33-1s.69-.76.69-1.4a1.82,1.82,0,0,0-.36-1.08c-.21-.26-.45-.48-.45-.72a.53.53,0,0,1,.16-.35,2,2,0,0,0,.65-1.37A1.77,1.77,0,0,0,20.35,43h6.1a1.77,1.77,0,0,1,1.76,1.76,2,2,0,0,1-.65,1.37.53.53,0,0,0-.16.35c0,.24.24.46.44.72a1.76,1.76,0,0,1,.37,1.08C28.21,48.87,27.87,49.16,27.52,49.63Z"/><path class="cls-6" d="M27.4,46.43a.51.51,0,0,0,.07.23c-1.83.11-4.86.19-8.28.19s-6.51-.08-8.33-.19v0c.11-.15.08-.24,0-.32l0,0a1.11,1.11,0,0,0-.16-.11c1.8-.12,4.95-.2,8.54-.2,3.44,0,6.49.07,8.31.19A.48.48,0,0,0,27.4,46.43Z"/><path class="cls-6" d="M27.53,50.29c-1.82.12-4.88.19-8.34.19s-6.61-.08-8.42-.2a.32.32,0,0,0,.16-.31.29.29,0,0,0-.12-.18c1.82-.12,4.89-.2,8.38-.2s6.41.08,8.24.19A.48.48,0,0,0,27.53,50.29Z"/><path class="cls-6" d="M27.52,53.11a.6.6,0,0,1-.08.08,1.42,1.42,0,0,0-.3.45c-1.85.1-4.72.17-7.95.17-3.38,0-6.36-.07-8.2-.19a1.23,1.23,0,0,0-.25-.36l-.05,0-.1-.09c1.78-.13,5-.21,8.6-.21C22.65,52.92,25.7,53,27.52,53.11Z"/><path class="cls-6" d="M25.58,56.34a3.09,3.09,0,0,1-1.92.67H14.43a3,3,0,0,1-1.9-.66c1.78-.07,4.11-.11,6.66-.11S23.84,56.28,25.58,56.34Z"/></g></g></g></g></g></svg>