<svg xmlns="http://www.w3.org/2000/svg" xmlns:xlink="http://www.w3.org/1999/xlink" viewBox="0 0 62.84 43.07"><defs><style>.cls-1{isolation:isolate;}.cls-2{fill:none;stroke:#bb6828;stroke-miterlimit:10;stroke-width:0.8px;}.cls-3{fill:#cd3f22;stroke:#8b0a08;stroke-linecap:round;stroke-linejoin:round;stroke-width:0.21px;}.cls-4{fill:#992310;}.cls-5{fill:#fff;opacity:0.27;mix-blend-mode:screen;}.cls-6{fill:#4d4d4d;}.cls-7{fill:#58595b;}.cls-10,.cls-12,.cls-13,.cls-14,.cls-7{mix-blend-mode:soft-light;}.cls-8{fill:url(#linear-gradient);}.cls-9{fill:#bb6828;}.cls-10{fill:#231f20;}.cls-11{fill:#9457ad;}.cls-12{fill:#00b4ff;}.cls-13{fill:#cfaccf;}.cls-14{fill:#1f2023;}</style><linearGradient id="linear-gradient" x1="19.36" y1="13.47" x2="43.25" y2="13.47" gradientUnits="userSpaceOnUse"><stop offset="0" stop-color="#ffde0b"/><stop offset="1" stop-color="#ffce00"/></linearGradient></defs><g class="cls-1"><g id="Layer_2" data-name="Layer 2"><g id="Layer_1-2" data-name="Layer 1"><path class="cls-2" d="M0,39.44H25.22s5.54-.57,5.36-7.92"/><path class="cls-2" d="M62.84,39.44H37.62s-5.54-.57-5.36-7.92"/><rect class="cls-3" x="3.2" y="36.57" width="22.4" height="6.4"/><rect class="cls-4" x="3.2" y="36.98" width="22.4" height="2.79"/><rect class="cls-5" x="3.2" y="40.3" width="22.4" height="1.31"/><rect class="cls-3" x="36.88" y="36.57" width="22.4" height="6.4"/><rect class="cls-4" x="36.88" y="36.98" width="22.4" height="2.79"/><rect class="cls-5" x="36.88" y="40.3" width="22.4" height="1.31"/><path class="cls-6" d="M31.31,37.4h0a3.71,3.71,0,0,1-3-1.63l0-.05h6.06l0,.05A3.88,3.88,0,0,1,31.31,37.4Z"/><path class="cls-7" d="M34.33,35.72l0,.05a3.88,3.88,0,0,1-3,1.63,3.53,3.53,0,0,1-2.46-1,3,3,0,0,0,1.47.27,1.32,1.32,0,0,0,1.08-.94Z"/><path class="cls-8" d="M43.25,11.94a11.94,11.94,0,0,1-3.18,8.13,10.23,10.23,0,0,0-2.66,5.58l0,.31a1.12,1.12,0,0,1-1.12,1H26.36a1.13,1.13,0,0,1-1.12-1l0-.36a9.91,9.91,0,0,0-.69-2.52,10.32,10.32,0,0,0-2-3A11.95,11.95,0,0,1,31.72,0a11.38,11.38,0,0,1,3,.5A12,12,0,0,1,43.25,11.94Z"/><path class="cls-9" d="M38.23,15.41a2.12,2.12,0,0,0-2.36-2.13h-.11a2.32,2.32,0,0,0-2.55,2.27L33.09,17H29.38l-.12-1.44A2.18,2.18,0,0,0,27,13.29a2.28,2.28,0,0,0-2.65,2.12A2.59,2.59,0,0,0,25,17.26a1.92,1.92,0,0,0,1.55.66h1.94l.74,9.18.94-.09-.74-9.09H33L32.15,27l1.09.09L34,17.92h1.79a2.38,2.38,0,0,0,1.78-.66A2.54,2.54,0,0,0,38.23,15.41ZM35.73,17H34.07l.11-1.33A1.62,1.62,0,0,1,35.6,14,1.48,1.48,0,0,1,35.73,17Zm-7.29,0H26.5a1.39,1.39,0,0,1-1.28-1.53A1.34,1.34,0,0,1,26.7,14h.06a1.77,1.77,0,0,1,1.57,1.61Z"/><path class="cls-10" d="M43.25,11.94a11.94,11.94,0,0,1-3.18,8.13,10.23,10.23,0,0,0-2.66,5.58l0,.31a1.12,1.12,0,0,1-1.12,1H26.36a1.13,1.13,0,0,1-1.12-1l0-.36a9.91,9.91,0,0,0-.69-2.52s.52.48.63.6a3.54,3.54,0,0,0,1.13.69,6.42,6.42,0,0,0,2.28.52,8.89,8.89,0,0,0,2.79-.48c1.84-.57,2.77-2.3,3.82-3.83.81-1.19,2.63-2.44,3.35-3.39a9.87,9.87,0,0,0,1.78-7.91A12,12,0,0,0,34.76.51,12,12,0,0,1,43.25,11.94Z"/><path class="cls-11" d="M36.55,29.11a.29.29,0,0,1,.1-.22,1.24,1.24,0,0,0,.4-.85A1.11,1.11,0,0,0,36,26.93H26.66a1.1,1.1,0,0,0-.68,2c.14.12.32.15.2.34s-.27.18-.36.29a1.11,1.11,0,0,0-.26.71,1.14,1.14,0,0,0,.51.93c.16.1.27.1.12.29s-.27.16-.37.27a1.1,1.1,0,0,0,.25,1.64c.3.26.26.69.42,1a2.56,2.56,0,0,0,.6.82l0,0a1.91,1.91,0,0,0,1.29.5H34.2a2,2,0,0,0,1.3-.5l0,0a2.5,2.5,0,0,0,.61-.86c.14-.33.17-.77.43-1a1.18,1.18,0,0,0,.48-.9,1.09,1.09,0,0,0-.23-.68c-.16-.21-.41-.38-.2-.65s.43-.47.43-.88a1.09,1.09,0,0,0-.23-.67C36.69,29.4,36.54,29.27,36.55,29.11Z"/><path class="cls-12" d="M25.84,31.71l0,0Z"/><path class="cls-13" d="M29.65,35.75H28.41a1.93,1.93,0,0,1-1.29-.5l0,0a2.56,2.56,0,0,1-.6-.82c-.15-.34-.12-.75-.39-1l0,0L26,33.28a1.14,1.14,0,0,1-.4-.83,1.18,1.18,0,0,1,.26-.72h0c.12-.11.41-.19.37-.38s-.12-.15-.2-.2l-.07-.06h0l0,0,0,0-.05-.07,0,0,0,0-.06-.09,0,0,0,0,0,0h0l0-.05a.56.56,0,0,1,0-.12,3731640636972.42,3731640636972.42,0,0,0,0-.1h0a.11.11,0,0,1,0-.05s0,0,0-.06v-.06a.28.28,0,0,1,0-.09.38.38,0,0,1,0-.1.29.29,0,0,1,0-.09l0-.09s0,0,0-.05a.89.89,0,0,1,.14-.25l0,0a.35.35,0,0,1,.09-.07l.05,0,.15-.1a.27.27,0,0,0,.07-.08c.06-.1.05-.15,0-.2l0,0L26,28.9a1.11,1.11,0,0,1,.31-1.9l.05,0a1.13,1.13,0,0,1,.32-.05h2a1.1,1.1,0,0,0-.65,2c.14.12.32.15.2.34s-.27.18-.36.29a1.11,1.11,0,0,0-.26.71,1.07,1.07,0,0,0,.2.63,1,1,0,0,0,.23.24s.09.06.11.11a.32.32,0,0,1,0,.19.25.25,0,0,1-.12.19.8.8,0,0,0-.19.13,1.12,1.12,0,0,0-.26.72,1,1,0,0,0,.19.59,1,1,0,0,0,.2.2.36.36,0,0,1,.2.25.93.93,0,0,1,0,.33,1.59,1.59,0,0,0,.32,1.26A3,3,0,0,0,29.65,35.75Z"/><path class="cls-14" d="M36.62,31.12c-.21.27,0,.44.2.65a1.09,1.09,0,0,1,.23.68,1.2,1.2,0,0,1-.48.9c-.26.25-.29.69-.43,1a2.5,2.5,0,0,1-.61.86l0,0a2,2,0,0,1-1.3.5H31.4a3.5,3.5,0,0,0,1.1-.66,1.39,1.39,0,0,0,.3-1.21c-.06-.26-.26-.38,0-.62a3.47,3.47,0,0,0,.32-.34A1,1,0,0,0,33,31.77c-.17-.21-.41-.38-.2-.65s.43-.47.43-.88a1.09,1.09,0,0,0-.23-.67c-.13-.17-.28-.3-.28-.46a.39.39,0,0,1,.1-.22,1.21,1.21,0,0,0,.41-.85,1.11,1.11,0,0,0-1.1-1.11H36A1.11,1.11,0,0,1,37.05,28a1.24,1.24,0,0,1-.4.85.29.29,0,0,0-.1.22c0,.16.14.29.27.46a1.09,1.09,0,0,1,.23.67C37.05,30.65,36.84,30.83,36.62,31.12Z"/><path class="cls-10" d="M36.55,29.11a.28.28,0,0,0,0,.15c-1.15.07-3.05.12-5.2.12s-4.08-.05-5.22-.12v0c.06-.1.05-.15,0-.2l0,0L26,29c1.13-.08,3.1-.13,5.35-.13s4.08,0,5.22.12A.25.25,0,0,0,36.55,29.11Z"/><path class="cls-10" d="M36.62,31.53c-1.14.08-3.06.13-5.23.13s-4.14-.05-5.28-.13a.19.19,0,0,0,.1-.2.16.16,0,0,0-.07-.11c1.14-.08,3.07-.12,5.25-.12s4,0,5.17.11A.31.31,0,0,0,36.62,31.53Z"/><path class="cls-10" d="M36.62,33.3l0,.05a1.07,1.07,0,0,0-.19.28c-1.16.07-3,.11-5,.11s-4-.05-5.14-.12a.54.54,0,0,0-.15-.22l0,0L26,33.31c1.12-.08,3.12-.13,5.39-.13S35.48,33.23,36.62,33.3Z"/><path class="cls-10" d="M35.4,35.33a1.93,1.93,0,0,1-1.2.42H28.41a2,2,0,0,1-1.19-.41c1.11-.05,2.57-.07,4.17-.07S34.31,35.29,35.4,35.33Z"/></g></g></g></svg>