<svg xmlns="http://www.w3.org/2000/svg" viewBox="0 0 83.13 44.81"><defs><style>.cls-1{isolation:isolate;}.cls-2{fill:none;stroke:#bb6828;stroke-miterlimit:10;stroke-width:0.8px;}.cls-3{fill:#cd3f22;stroke:#8b0a08;stroke-linecap:round;stroke-linejoin:round;stroke-width:0.21px;}.cls-4{fill:#992310;}.cls-5{fill:#fff;opacity:0.27;mix-blend-mode:screen;}.cls-6{fill:#a25225;}.cls-7{fill:#131414;}.cls-10,.cls-8{fill:#63afb7;}.cls-11,.cls-9{fill:#3f7982;}.cls-10,.cls-12,.cls-13,.cls-14,.cls-15,.cls-16,.cls-9{fill-rule:evenodd;}.cls-12{fill:#80d7de;}.cls-13{fill:#fbc800;}.cls-14{fill:#fff9dc;}.cls-15{fill:#40484c;}.cls-16{fill:#6b777e;}</style></defs><g class="cls-1"><g id="Layer_2" data-name="Layer 2"><g id="portrait"><g id="Page-02"><path class="cls-2" d="M10.26,39.47H35.47s5.55-.57,5.36-7.92"/><path class="cls-2" d="M73.1,39.47H47.88s-5.54-.57-5.36-7.92"/><rect class="cls-3" x="13.46" y="36.6" width="22.4" height="6.4"/><rect class="cls-4" x="13.46" y="37.01" width="22.4" height="2.79"/><rect class="cls-5" x="13.46" y="40.33" width="22.4" height="1.31"/><rect class="cls-3" x="47.14" y="36.6" width="22.4" height="6.4"/><rect class="cls-4" x="47.14" y="37.01" width="22.4" height="2.79"/><rect class="cls-5" x="47.14" y="40.33" width="22.4" height="1.31"/><path class="cls-6" d="M0,34.42V44.81H10.39V34.42Zm5.2,9.17a4,4,0,1,1,4-4A4,4,0,0,1,5.2,43.59Z"/><path class="cls-6" d="M72.74,34.42V44.81H83.13V34.42Zm5.19,9.17a4,4,0,1,1,4-4A4,4,0,0,1,77.93,43.59Z"/><path class="cls-7" d="M24.45,28.15A3.08,3.08,0,0,1,23.33,27h0a3.07,3.07,0,0,1-.42-1.54,3.1,3.1,0,1,1,6.2,0c0,.12,0,.25,0,.39a4,4,0,0,1-.08.4L28.07,26a1.43,1.43,0,0,0,.07-.28c0-.08,0-.18,0-.27A2.15,2.15,0,0,0,27.52,24a2.14,2.14,0,0,0-3.65,1.51,2.05,2.05,0,0,0,.28,1.06h0a2.27,2.27,0,0,0,.78.79Z"/><path class="cls-8" d="M30.2,15c-1.38,1.51-3.09,4.27-4.19,9.27l-1.54-.35c1.22-5.51,3.24-8.59,4.86-10.25A2.61,2.61,0,0,0,30.2,15Z"/><path class="cls-9" d="M31.87,10.29h0v5.3a2.65,2.65,0,0,1,0-5.3Z"/><path class="cls-10" d="M32.7,9.48H50.42a.83.83,0,0,1,.82.83V24.2a.82.82,0,0,1-.82.83H32.7a.83.83,0,0,1-.83-.83V10.31a.84.84,0,0,1,.83-.83Z"/><rect class="cls-11" x="33.25" y="12.21" width="16.63" height="4.89"/><rect class="cls-11" x="38.94" y="7.83" width="5.26" height="1.65"/><path class="cls-10" d="M35.47,7.83H47.65a.78.78,0,0,0,.78-.78V.79A.78.78,0,0,0,47.65,0H35.47a.78.78,0,0,0-.77.79V7.05a.78.78,0,0,0,.77.78Z"/><path class="cls-12" d="M38.29,1.08a2.84,2.84,0,1,1-2.85,2.84,2.84,2.84,0,0,1,2.85-2.84Zm6.55,0A2.84,2.84,0,1,1,42,3.92a2.84,2.84,0,0,1,2.84-2.84Z"/><path class="cls-13" d="M38.29,1.51a2.41,2.41,0,1,1-2.4,2.41,2.39,2.39,0,0,1,2.4-2.41Z"/><path class="cls-13" d="M44.84,1.15a2.41,2.41,0,1,1-2.39,2.41,2.4,2.4,0,0,1,2.39-2.41Z"/><path class="cls-14" d="M38.28,3.41a.51.51,0,0,0-.5.51.51.51,0,0,0,1,0,.51.51,0,0,0-.51-.51Z"/><path class="cls-14" d="M44.84,3.06a.5.5,0,0,0-.5.5.51.51,0,0,0,.5.5.5.5,0,0,0,.5-.5.5.5,0,0,0-.5-.5Z"/><rect class="cls-11" x="34.19" y="1.73" width="0.51" height="4.37"/><rect class="cls-8" x="33.66" y="2.37" width="0.52" height="3.1"/><rect class="cls-11" x="48.43" y="1.73" width="0.51" height="4.37"/><rect class="cls-8" x="48.94" y="2.37" width="0.52" height="3.1"/><path class="cls-9" d="M25.41,21.26a2,2,0,1,1-2,2,2,2,0,0,1,2-2Z"/><path class="cls-12" d="M25.41,22.21a1,1,0,1,1-1.05,1,1.05,1.05,0,0,1,1.05-1Z"/><path class="cls-7" d="M58.67,28.15A3,3,0,0,0,59.8,27h0a3.06,3.06,0,0,0,.41-1.54,3.1,3.1,0,0,0-5.28-2.2,3.11,3.11,0,0,0-.91,2.2c0,.12,0,.25,0,.39a4,4,0,0,0,.08.4l.92-.24a2.8,2.8,0,0,1-.06-.28c0-.08,0-.18,0-.27A2.14,2.14,0,0,1,58.63,24a2.11,2.11,0,0,1,.63,1.51A2.26,2.26,0,0,1,59,26.55h0a2.17,2.17,0,0,1-.8.79Z"/><path class="cls-8" d="M52.93,15c1.38,1.51,3.09,4.27,4.19,9.27l1.54-.35c-1.22-5.51-3.24-8.59-4.86-10.25A2.75,2.75,0,0,1,52.93,15Z"/><path class="cls-9" d="M51.24,10.29h0v5.3a2.65,2.65,0,0,0,0-5.3Z"/><path class="cls-9" d="M57.72,21.26a2,2,0,1,0,2,2,2,2,0,0,0-2-2Z"/><path class="cls-12" d="M57.72,22.21a1,1,0,1,0,1.05,1,1.05,1.05,0,0,0-1.05-1Z"/><rect class="cls-11" x="38.85" y="24.86" width="5.4" height="1.37"/><path class="cls-15" d="M32.42,25.47H36.8a.93.93,0,0,1,.92.93v8.38a.92.92,0,0,1-.92.91H32.42a.92.92,0,0,1-.92-.91V26.4a.93.93,0,0,1,.92-.93Z"/><path class="cls-16" d="M32.26,28.21H37a.19.19,0,0,1,.19.19h0a.19.19,0,0,1-.19.19h-4.7a.18.18,0,0,1-.19-.19h0a.18.18,0,0,1,.19-.19Zm0,1.45H37a.2.2,0,0,1,.19.19h0A.2.2,0,0,1,37,30h-4.7a.18.18,0,0,1-.19-.19h0a.18.18,0,0,1,.19-.19Zm0,1.46H37a.2.2,0,0,1,.19.19h0a.2.2,0,0,1-.19.19h-4.7a.18.18,0,0,1-.19-.19h0a.18.18,0,0,1,.19-.19Zm0,1.46H37a.19.19,0,0,1,.19.19h0A.2.2,0,0,1,37,33h-4.7a.18.18,0,0,1-.19-.19h0a.18.18,0,0,1,.19-.19Zm0,1.45H37a.19.19,0,0,1,.19.19h0a.2.2,0,0,1-.19.19h-4.7a.18.18,0,0,1-.19-.19h0a.18.18,0,0,1,.19-.19Zm0-7.27H37a.19.19,0,0,1,.19.19h0a.19.19,0,0,1-.19.19h-4.7a.18.18,0,0,1-.19-.19h0a.18.18,0,0,1,.19-.19Z"/><path class="cls-15" d="M46.31,25.47H50.7a.92.92,0,0,1,.91.93v8.38a.91.91,0,0,1-.91.91H46.31a.93.93,0,0,1-.93-.91V26.4a.93.93,0,0,1,.93-.93Z"/><path class="cls-16" d="M46.15,28.21h4.71a.19.19,0,0,1,.19.19h0a.19.19,0,0,1-.19.19H46.15A.18.18,0,0,1,46,28.4h0a.18.18,0,0,1,.19-.19Zm0,1.45h4.71a.2.2,0,0,1,.19.19h0a.2.2,0,0,1-.19.19H46.15a.18.18,0,0,1-.19-.19h0a.18.18,0,0,1,.19-.19Zm0,1.46h4.71a.2.2,0,0,1,.19.19h0a.2.2,0,0,1-.19.19H46.15a.18.18,0,0,1-.19-.19h0a.18.18,0,0,1,.19-.19Zm0,1.46h4.71a.19.19,0,0,1,.19.19h0a.2.2,0,0,1-.19.19H46.15a.18.18,0,0,1-.19-.19h0a.18.18,0,0,1,.19-.19Zm0,1.45h4.71a.19.19,0,0,1,.19.19h0a.2.2,0,0,1-.19.19H46.15a.18.18,0,0,1-.19-.19h0a.18.18,0,0,1,.19-.19Zm0-7.27h4.71a.19.19,0,0,1,.19.19h0a.19.19,0,0,1-.19.19H46.15A.18.18,0,0,1,46,27h0a.18.18,0,0,1,.19-.19Z"/><polygon class="cls-10" points="37.72 29.79 40.56 29.79 40.56 26.23 42.54 26.23 42.54 29.79 45.38 29.79 45.38 31.37 37.72 31.37 37.72 29.79"/><path class="cls-9" d="M41.55,28.21a2.14,2.14,0,1,1-2.14,2.14,2.14,2.14,0,0,1,2.14-2.14Z"/></g></g></g></g></svg>