<svg xmlns="http://www.w3.org/2000/svg" xmlns:xlink="http://www.w3.org/1999/xlink" viewBox="0 0 83.13 44.68"><defs><style>.cls-1{isolation:isolate;}.cls-2{fill:none;stroke:#bb6828;stroke-miterlimit:10;stroke-width:0.8px;}.cls-3{fill:#cd3f22;stroke:#8b0a08;stroke-linecap:round;stroke-linejoin:round;stroke-width:0.21px;}.cls-4{fill:#992310;}.cls-28,.cls-5{fill:#fff;}.cls-5{opacity:0.27;mix-blend-mode:screen;}.cls-6{fill:#a25225;}.cls-7{fill:#2e8915;}.cls-8{fill:#eee;}.cls-9{fill:#794da5;}.cls-10{fill:#fcd1b6;}.cls-11{fill:#262626;}.cls-12{fill:#333;}.cls-13{fill:#4a197a;}.cls-14{fill:#2a2626;}.cls-15{fill:#0e0603;}.cls-16{fill:#48200d;}.cls-17{fill:#1f1b1b;}.cls-18{fill:#231b14;}.cls-19{fill:#4b4545;}.cls-20{fill:#352f2f;}.cls-21{fill:url(#linear-gradient);}.cls-22{fill:#1f0e05;}.cls-23{fill:#ccc;}.cls-24{fill:url(#linear-gradient-2);}.cls-25{fill:#1c1c1c;}.cls-26{fill:#639;}.cls-27{fill:url(#linear-gradient-3);}.cls-29{fill:#999;}.cls-30{fill:#300;}.cls-31{fill:url(#linear-gradient-4);}.cls-32{fill:url(#linear-gradient-5);}.cls-33{fill:url(#linear-gradient-6);}.cls-34{fill:url(#radial-gradient);}.cls-35{fill:#fc0;}.cls-36{fill:url(#radial-gradient-2);}.cls-37{fill:url(#radial-gradient-3);}</style><linearGradient id="linear-gradient" x1="74.1" y1="275.36" x2="74.74" y2="267.64" gradientTransform="matrix(0.99, 0.15, 0.15, -0.99, -75.32, 271.72)" gradientUnits="userSpaceOnUse"><stop offset="0" stop-color="#ffe258"/><stop offset="0.58" stop-color="#ff9"/><stop offset="1" stop-color="#ba9501"/></linearGradient><linearGradient id="linear-gradient-2" x1="-60.9" y1="-199.78" x2="13.29" y2="-215.88" gradientTransform="translate(17.81 227.2) rotate(8.62)" gradientUnits="userSpaceOnUse"><stop offset="0" stop-color="#fff"/><stop offset="1" stop-color="#c1c1c1"/></linearGradient><linearGradient id="linear-gradient-3" x1="-6.28" y1="391.44" x2="-4.42" y2="391.92" gradientTransform="matrix(0.99, 0.15, 0.15, -0.99, -8.18, 398.66)" gradientUnits="userSpaceOnUse"><stop offset="0" stop-color="#fcd1b6"/><stop offset="1" stop-color="#f78b44"/></linearGradient><linearGradient id="linear-gradient-4" x1="-154.13" y1="1196.25" x2="-155.52" y2="1195.56" gradientTransform="matrix(1, -0.06, -0.06, -1, 266.9, 1189.28)" xlink:href="#linear-gradient-3"/><linearGradient id="linear-gradient-5" x1="252.66" y1="1106.35" x2="251.75" y2="1105.9" gradientTransform="matrix(1, -0.06, -0.06, -1, -144, 1121.7)" xlink:href="#linear-gradient-3"/><linearGradient id="linear-gradient-6" x1="253.96" y1="1105.53" x2="252.3" y2="1104.71" gradientTransform="matrix(1, -0.06, -0.06, -1, -144, 1121.7)" xlink:href="#linear-gradient-3"/><radialGradient id="radial-gradient" cx="-187.92" cy="1227.73" r="3.71" gradientTransform="matrix(1, -0.06, -0.06, -1, 304.47, 1218.39)" gradientUnits="userSpaceOnUse"><stop offset="0" stop-color="#66f"/><stop offset="1" stop-color="#4a197a"/></radialGradient><radialGradient id="radial-gradient-2" cx="-175.6" cy="1213.75" r="2.67" gradientTransform="matrix(1, -0.06, -0.06, -1, 289.93, 1203.62)" xlink:href="#radial-gradient"/><radialGradient id="radial-gradient-3" cx="-185.4" cy="1231.87" r="0.78" gradientTransform="matrix(1, -0.06, -0.06, -1, 301.93, 1223.14)" gradientUnits="userSpaceOnUse"><stop offset="0" stop-color="#630"/><stop offset="1"/></radialGradient></defs><g class="cls-1"><g id="Layer_2" data-name="Layer 2"><g id="portrait"><g id="Page-02"><path class="cls-2" d="M10.26,39.34H35.47s5.55-.57,5.36-7.92"/><path class="cls-2" d="M73.1,39.34H47.88s-5.54-.57-5.36-7.92"/><rect class="cls-3" x="13.46" y="36.47" width="22.4" height="6.4"/><rect class="cls-4" x="13.46" y="36.88" width="22.4" height="2.79"/><rect class="cls-5" x="13.46" y="40.2" width="22.4" height="1.31"/><rect class="cls-3" x="47.14" y="36.47" width="22.4" height="6.4"/><rect class="cls-4" x="47.14" y="36.88" width="22.4" height="2.79"/><rect class="cls-5" x="47.14" y="40.2" width="22.4" height="1.31"/><path class="cls-6" d="M72.74,34.29V44.68H83.13V34.29Zm5.19,9.17a4,4,0,1,1,4-4A4,4,0,0,1,77.93,43.46Z"/><path class="cls-6" d="M0,34.29V44.68H10.39V34.29Zm5.2,9.17a4,4,0,1,1,4-4A4,4,0,0,1,5.2,43.46Z"/><rect class="cls-7" x="22.53" y="31.46" width="38.2" height="1"/><g id="Layer0_109_MEMBER_0_MEMBER_0_MEMBER_0_FILL" data-name="Layer0 109 MEMBER 0 MEMBER 0 MEMBER 0 FILL"><path class="cls-8" d="M44.69,7.44a6.71,6.71,0,0,0,.9-1.06c-.55.37-1,.13-1.48-.73l-1,1.76c-.27.24.07.6,1,1.09l1,.47a.8.8,0,0,1,.62-.78Z"/></g><g id="Layer0_109_MEMBER_0_MEMBER_0_MEMBER_1_FILL" data-name="Layer0 109 MEMBER 0 MEMBER 0 MEMBER 1 FILL"><path class="cls-9" d="M45.81,9.3c0-.39.23-.6.67-.62l-.72-.49a.8.8,0,0,0-.62.78l.67.33m-.22-2.92c.65-1,.67-1.67.07-1.94-.4-.08-.91.33-1.55,1.21C44.55,6.51,45,6.75,45.59,6.38Z"/></g><g id="Layer0_109_MEMBER_0_MEMBER_0_MEMBER_2_FILL" data-name="Layer0 109 MEMBER 0 MEMBER 0 MEMBER 2 FILL"><path class="cls-10" d="M47,9.17l-.56-.49c-.44,0-.66.23-.67.62a2.8,2.8,0,0,0,.38.16c.2.07.31.13.33.17a2,2,0,0,0,.72.6l.06,0c0,.13.17.22.41.25s.16,0,.16-.17.2-.06.17-.2a.15.15,0,0,0,.13-.22c.11-.11.11-.22,0-.31.26,0,.39,0,.38-.16l-.87-.31Z"/></g><g id="Layer0_110_MEMBER_0_MEMBER_0_MEMBER_0_FILL" data-name="Layer0 110 MEMBER 0 MEMBER 0 MEMBER 0 FILL"><path class="cls-11" d="M38.14,18.21l0,.27,1.27-.18.25-.19.73.21A4.81,4.81,0,0,0,42.64,18a.22.22,0,0,0,.09-.2,4.55,4.55,0,0,1-2.14.46L39.71,18A15.78,15.78,0,0,1,38.14,18.21Z"/></g><g id="Layer0_110_MEMBER_0_MEMBER_0_MEMBER_1_FILL" data-name="Layer0 110 MEMBER 0 MEMBER 0 MEMBER 1 FILL"><path class="cls-12" d="M40.31,15.86c.31-.87.64-1.69,1-2.46l-1.94-.61A24.07,24.07,0,0,0,38.58,16l-.12.67v.07a2.18,2.18,0,0,0-.31,1.46A15.78,15.78,0,0,0,39.71,18l.88.19a4.55,4.55,0,0,0,2.14-.46c0-.11-.13-.19-.35-.25l-1.71-.31a1.4,1.4,0,0,1-.58-.7v0Z"/></g><g id="Layer0_110_MEMBER_0_MEMBER_0_MEMBER_2_FILL" data-name="Layer0 110 MEMBER 0 MEMBER 0 MEMBER 2 FILL"><path class="cls-13" d="M39.18,7.22l-.49,3.21c.61.12,1.21.2,1.81.26a4.82,4.82,0,0,0-1.13,2.1,2.53,2.53,0,0,1,1.94.61,17.74,17.74,0,0,1,1.28-2.3l0,0Q44,8.92,40.24,7.66Z"/></g><g id="Layer0_111_MEMBER_0_MEMBER_0_MEMBER_0_FILL" data-name="Layer0 111 MEMBER 0 MEMBER 0 MEMBER 0 FILL"><path class="cls-14" d="M49.45,26.35v0h0v0m2.62-1.2.13.09v-.07l-.14,0M55.35,5.54A2.93,2.93,0,0,0,56.1,7l1,.28a4.44,4.44,0,0,0-1.76-1.73m5,8.09h-.05s0,0-.06,0a.41.41,0,0,0-.11.15c0,.08-.07.13,0,.15l0,0,0,0s.06,0,.12,0l.12-.05.06,0a.2.2,0,0,0,0-.08.06.06,0,0,0,0-.06v-.06l0,0,0,0h0Z"/></g><g id="Layer0_111_MEMBER_0_MEMBER_0_MEMBER_1_FILL" data-name="Layer0 111 MEMBER 0 MEMBER 0 MEMBER 1 FILL"><path class="cls-15" d="M27.52,31.54A1.18,1.18,0,0,0,27,30.45a1.33,1.33,0,0,1-1.41.12l0,.08.12.46a3.45,3.45,0,0,0,1.78.43M40,30.81l-.62-1.14-1.24.19a2.88,2.88,0,0,0,0,.7q0,.18.06.12a9.25,9.25,0,0,0,1.57.19c.25,0,.33,0,.25-.06m7.33-4.4c-.6-.33-1.14-.1-1.61.71l0,.07.89.16.76-.94M56.18,32A4.13,4.13,0,0,0,56,30.41l-1.22-.27c-.18.14-.22.4-.13.77A9.39,9.39,0,0,0,56.18,32Z"/></g><g id="Layer0_111_MEMBER_0_MEMBER_0_MEMBER_2_FILL" data-name="Layer0 111 MEMBER 0 MEMBER 0 MEMBER 2 FILL"><path class="cls-16" d="M49,27.66v0h-.06l0,.05,0,0m3.44-3.75h-.24a1.26,1.26,0,0,1,.24.36,1,1,0,0,0,0-.35m-.32-7.3,0,.11,0-.11h0m8.2-3,0,.08s0,0,.06,0h0l-.07,0M25.94,11h0l0,0h0m7-1.5V9.43h0Z"/></g><g id="Layer0_111_MEMBER_0_MEMBER_0_MEMBER_3_FILL" data-name="Layer0 111 MEMBER 0 MEMBER 0 MEMBER 3 FILL"><path d="M45.75,27.12c.47-.81,1-1,1.61-.71l.16-.2c-.76-.58-1.43-.27-2,.94l.2,0Z"/></g><g id="Layer0_111_MEMBER_0_MEMBER_0_MEMBER_4_FILL" data-name="Layer0 111 MEMBER 0 MEMBER 0 MEMBER 4 FILL"><path class="cls-17" d="M52.42,23.91a1,1,0,0,1,0,.35,1.38,1.38,0,0,1,.1,1l-.31-.06v.07a7.19,7.19,0,0,1,1.08,1.16,14.91,14.91,0,0,1,1.12,1.46l.12,0-.09.15.16,1a3.17,3.17,0,0,1,.2,1.13l1.22.27a2.74,2.74,0,0,1-.15-1.81l-.11-.19-.12-.2.16.17c.1-.67-.42-1.63-1.55-2.91A3.31,3.31,0,0,0,52.92,24l0,0a1.56,1.56,0,0,0-.8-.69,10,10,0,0,0-1.29-.21,4.27,4.27,0,0,0,.5.15,2.87,2.87,0,0,1,.88.62h.24M35.3,20l2.25,1a9.63,9.63,0,0,0,2.17.65l.69.11.34,0a28.67,28.67,0,0,1,2.93.63l.48.11a6.45,6.45,0,0,0,.88.14c0,.09.09.24.17.45a7.86,7.86,0,0,0,1.34.51c.75.26,1.49.53,2.22.8L50.4,25a6.1,6.1,0,0,1-.8.74h-.06a1.35,1.35,0,0,0-1.1.45c-.43.21-.73.22-.92,0l-.16.2.12.07.09.07a.71.71,0,0,0,.68.13,1.12,1.12,0,0,0,.28-.16.79.79,0,0,1,.91-.19h0a6.31,6.31,0,0,0,1.27-1.22l.46.16.48-.21-1-.35c-.82-.29-1.5-.54-2-.77l-.73-.29-.06,0c-.39-.15-.83-.31-1.32-.47a7.44,7.44,0,0,0-.76-.19c-.13,0-.21,0-.24,0l-.12-.28A9.52,9.52,0,0,0,44.47,21a2,2,0,0,0-1-.86h0a2.24,2.24,0,0,1,.76.85c-.59,0-1.33-.1-2.23-.22l-.89-.13v0a12.49,12.49,0,0,1-5.78-2.35,6.45,6.45,0,0,1-.49,1.36l.5.26M24.79,13.71a5.69,5.69,0,0,0-.07,2.89c.23.52.47,1.14.71,1.86a2.8,2.8,0,0,1-.15,2.12,8.57,8.57,0,0,1-2.16,2.54h0a1.3,1.3,0,0,0-.28,1.42,6.77,6.77,0,0,1,.35,1.09l.1.57c0,.18.07.41.14.69s.12.52.2.82.21.72.41,1.25v.31a1.14,1.14,0,0,0,.28.68,1.94,1.94,0,0,0,.93.39l.35.16,0,.07A1.33,1.33,0,0,0,27,30.45c0-.18-.3-.42-.92-.73a3.77,3.77,0,0,0-.78-.59q-.16-.78-.3-1.59a9.56,9.56,0,0,0-.4-1.67,2.36,2.36,0,0,1,.23-1.52,24.13,24.13,0,0,1,3.52-3.28,7.7,7.7,0,0,0,1.1-.87,3.3,3.3,0,0,0-.16-.82,4.42,4.42,0,0,0-.55-.8h0l-.93-.84A3.75,3.75,0,0,1,25.32,16,3.59,3.59,0,0,1,24.79,13.71Z"/></g><g id="Layer0_111_MEMBER_0_MEMBER_0_MEMBER_5_FILL" data-name="Layer0 111 MEMBER 0 MEMBER 0 MEMBER 5 FILL"><path class="cls-14" d="M54.88,8.19l-.62,1a6.42,6.42,0,0,0-.19.83c-.31,1.23-.53,2-.66,2.43-.38,1.16-.66,2.08-.84,2.77a20.41,20.41,0,0,0,1-2.17c.26-.38.47-.66.6-.83s.37-.16.82-.07l0-.11-.26-.24a2.11,2.11,0,0,1-.19-.23l-.06-.13a.86.86,0,0,1-.08-.57,8.15,8.15,0,0,1,.37-2l.1-.33a1.92,1.92,0,0,1,.1-.22v0h0l0-.12M48.42,20.72l.12.17a5.42,5.42,0,0,0,.5.78,4.24,4.24,0,0,0,1.76,1.46,10,10,0,0,1,1.29.21L51.57,23a8.37,8.37,0,0,1-2.11-1.8,6,6,0,0,0,1-1.76,4.86,4.86,0,0,1-1.54,1.09A4.29,4.29,0,0,1,48.42,20.72Z"/></g><g id="Layer0_111_MEMBER_0_MEMBER_0_MEMBER_6_FILL" data-name="Layer0 111 MEMBER 0 MEMBER 0 MEMBER 6 FILL"><path class="cls-15" d="M50,6.75a4.56,4.56,0,0,1,2.83.48,17.07,17.07,0,0,0-4.42.32l2.92.26a19,19,0,0,0-4,.72,8.74,8.74,0,0,1,2.29,0,10.34,10.34,0,0,0-2.72.73,4.68,4.68,0,0,1,2-.11,16.17,16.17,0,0,0-3.42.66,2.61,2.61,0,0,1,1.78.27,7,7,0,0,0-3.1.2,5.13,5.13,0,0,1,2,.27,4.86,4.86,0,0,0-1.74.58l.67-.06c.69-.2,1.38-.37,2.08-.52l.33,0,0,0c2.05-1.27,3.61-2.19,4.66-2.78s1.49-.81,1.76-.93a11.78,11.78,0,0,0-3.93,0M18.24,13.31h0c.06.24.31.42.74.53-.69-1.09-.14-1.85,1.67-2.27l2.32.35a6.62,6.62,0,0,0-1.37,1.22,13.62,13.62,0,0,1,2.46-1.36,3.66,3.66,0,0,0-1.59,1.59,3.82,3.82,0,0,1,2-1.33A2.67,2.67,0,0,0,23,13.76a5.56,5.56,0,0,1,1.82-1.59l.37,0L26,11l0,0A19.11,19.11,0,0,0,20,9.05c-2.44-.32-4.14-.05-5.08.8Q12.46,12.67,18,15a3.64,3.64,0,0,1-.73-.51c.54.22.82.18.83-.1a2.15,2.15,0,0,0,.56.52A4.19,4.19,0,0,1,18.24,13.31Z"/></g><g id="Layer0_111_MEMBER_0_MEMBER_0_MEMBER_7_FILL" data-name="Layer0 111 MEMBER 0 MEMBER 0 MEMBER 7 FILL"><path class="cls-18" d="M54.76,6.55a1.17,1.17,0,0,1,.44-.06l0,0a6.55,6.55,0,0,0-2.35-.21,9,9,0,0,1,1.4.46c.12,0,.3-.08.53-.16Z"/></g><g id="Layer0_111_MEMBER_0_MEMBER_0_MEMBER_8_FILL" data-name="Layer0 111 MEMBER 0 MEMBER 0 MEMBER 8 FILL"><path class="cls-19" d="M58.1,15a1.13,1.13,0,0,0,.45.25,3.22,3.22,0,0,1-.46-.27v0M52,24.2a2.65,2.65,0,0,1,.55.32.82.82,0,0,0-.1-.26,1.26,1.26,0,0,0-.24-.36,2.87,2.87,0,0,0-.88-.62,4.27,4.27,0,0,1-.5-.15,4.05,4.05,0,0,1-1.28-.89l-.15-.16a1,1,0,0,0,.11.17,4,4,0,0,0,.23.34A4.24,4.24,0,0,0,51.48,24a3,3,0,0,0,.49.16m-4.61,2.21-.76.94c-.22.26.21.3,1.28.12h0l.47.07.46.07H49v0a4,4,0,0,0,.77-.48,13.33,13.33,0,0,0,1-.9c.2-.19.41-.39.63-.62l-.11,0-.79-.29a5.79,5.79,0,0,1-.6.61,4.12,4.12,0,0,1-.47.38v0a.79.79,0,0,0-.91.19,1.12,1.12,0,0,1-.28.16.71.71,0,0,1-.68-.13l-.09-.07-.12-.07M45.72,23h0a6.81,6.81,0,0,0-.58-1,3.24,3.24,0,0,0-.39-.47,12.7,12.7,0,0,1,.6,1.22l.12.28s.11,0,.24,0M55.5,9.5l.09-.22,0,0h0l0-.13-.63,1a6.3,6.3,0,0,0-.19.82c-.06.26-.13.51-.18.73l.06.07.06.07.26.24.08,0a1,1,0,0,1,0-.3l0-.38a7.54,7.54,0,0,1,.25-1.34l.09-.27.1-.33m-19.67,17-.49-.6.09.13c.06.08.16.21.29.4s.43.56.78,1a5.24,5.24,0,0,1,1.28,1.26h0a4.06,4.06,0,0,1,1.42.95l0,.05.12,0a4.65,4.65,0,0,0-.84-.94,4.05,4.05,0,0,0-1.42-1h0a5.43,5.43,0,0,0-1.28-1.25m-6.41-7,0,0,0,0-.15-.14,0,0a3.3,3.3,0,0,1,.16.82l0,.23s0,.07,0,.11A4.38,4.38,0,0,0,30,21.75a12.07,12.07,0,0,0,.7,1.1c.18.26.37.51.57.76a5.8,5.8,0,0,1-1.12-2.26v-.24A3.7,3.7,0,0,0,30,20.3a4.23,4.23,0,0,0-.55-.81m11.72-7.66a11.53,11.53,0,0,1-3.28-.38l-4.92-2V9.42L32,9.33a10.65,10.65,0,0,0-3.93.1A9.47,9.47,0,0,0,26,11l0,0h0l-.82,1.2h-.09a2.9,2.9,0,0,0-.25,1l0,.55A3.59,3.59,0,0,0,25.32,16s0,.05,0,.06a3.1,3.1,0,0,0,.49.64,4.11,4.11,0,0,1-.39-2v-.35c0-.13.09-.25.14-.37h.09l.83-1.2h0l0,0a9.62,9.62,0,0,1,2.13-1.54,10.92,10.92,0,0,1,3.94-.1c.24,0,.54.07.91.1v0l4.92,2a11.25,11.25,0,0,0,3.29.38c.9-.07,1.54-.13,1.93-.18h.09l.36-.12a3,3,0,0,1,2.29-.89,6,6,0,0,0-1.87.75c.34-.11.7-.21,1.09-.32.69-.19,1.38-.37,2.07-.51l.34,0,0,0,3-1.82A26.32,26.32,0,0,1,53,8.53l.09-.07a10.78,10.78,0,0,1,1.41-1c-.32.25-.63.5-.93.76a.18.18,0,0,1-.07.05c.53-.28.9-.47,1.1-.55a.46.46,0,0,1,.21-.07l.1,0a3.55,3.55,0,0,0,.54-.16v0h0l.24,0h.18l0,0-.08-.17a3.78,3.78,0,0,1-.17-.46,1.33,1.33,0,0,1-.05-.19,1.64,1.64,0,0,1,0-.43,1.93,1.93,0,0,1-.17-.57,6.37,6.37,0,0,1,.85.6,4.29,4.29,0,0,1,1.08.74,3,3,0,0,0-.41-.63,4.31,4.31,0,0,0-2-1.28,1.67,1.67,0,0,0,.19,1.3l.07.18,0,0a1.17,1.17,0,0,0-.44.06h0c-.23.08-.41.13-.53.16h-.1a.75.75,0,0,0-.22.07c-.27.12-.86.43-1.76.93s-2.61,1.51-4.66,2.78l0,0-.33,0c-.7.15-1.39.32-2.08.52s-1.32.38-1.86.58h-.09c-.39,0-1,.11-1.94.18M31.93,9.71h0a13.12,13.12,0,0,0-3,.38,4,4,0,0,1,3-.39m12.69,2.58c-.19.11-.38.24-.58.37a1.88,1.88,0,0,1,.16-.23,3,3,0,0,1,2.29-.89,6.36,6.36,0,0,0-1.87.75m-2.69,1.22h-.3a13.41,13.41,0,0,1-7.24-2.67,30.69,30.69,0,0,0,7.26,2.62Z"/><path class="cls-20" d="M33.49,11.19v0c-.37,0-.67-.07-.91-.1a10.92,10.92,0,0,0-3.94.1,9.62,9.62,0,0,0-2.13,1.54l0,0h0l-.83,1.2h-.09c-.05.12-.1.24-.14.37v.35a4.11,4.11,0,0,0,.39,2,4,4,0,0,0,2,1.05l.93.84,0,0h0a5.14,5.14,0,0,1,.53.77l.15.14,0,0,0,0a4.23,4.23,0,0,1,.55.81,3.7,3.7,0,0,1,.17.81v.24a5.8,5.8,0,0,0,1.12,2.26,17.84,17.84,0,0,0,2.19,2.27l.07.07a4.78,4.78,0,0,0,1.16,1.17,7.12,7.12,0,0,1,1.57,1.71v0h0c.27.44.56.65.86.64a1.46,1.46,0,0,1,1,.41l1.12-.17,0-.05a4.06,4.06,0,0,0-1.42-.95h0a5.24,5.24,0,0,0-1.28-1.26c-.35-.42-.61-.74-.78-1s-.23-.32-.29-.4l-.09-.13c-.12-.15-.22-.27-.29-.38a5,5,0,0,0-.3-.41L34.66,25a1.34,1.34,0,0,1,0-.14l-.06-.14q-1.26-2.88-.06-4.42c.13-.22.23-.41.31-.57a6.45,6.45,0,0,0,.49-1.36,12.49,12.49,0,0,0,5.78,2.35v0l.89.13c.9.12,1.64.19,2.23.22a2.24,2.24,0,0,0-.76-.85h0a2,2,0,0,1,1,.86,4.4,4.4,0,0,1,.29.45,3.24,3.24,0,0,1,.39.47,6.81,6.81,0,0,1,.58,1,6.8,6.8,0,0,1,.75.19c.49.16.93.32,1.32.47l.06,0,.73.29c.55.23,1.23.48,2,.77l1,.35-.48.21-.46-.16c-.07.08-.13.16-.2.23l.79.29.11,0,.06-.06a3.44,3.44,0,0,0,.52-.47l.52.1a1.42,1.42,0,0,0,0-.71A2.65,2.65,0,0,0,52,24.2a3,3,0,0,1-.49-.16,4.24,4.24,0,0,1-1.77-1.45,4,4,0,0,1-.23-.34,1,1,0,0,1-.11-.17L49,21.67a5.42,5.42,0,0,1-.5-.78l-.12-.17a4.29,4.29,0,0,0,.48-.17,4.86,4.86,0,0,0,1.54-1.09l.29-.5a3.17,3.17,0,0,0,1.35-2.24l0-.11h0l.45-1.36c.18-.69.46-1.61.84-2.77.13-.38.35-1.2.66-2.43a6.42,6.42,0,0,1,.19-.83l.62-1,0,.12h0v0h0l-.09.21-.1.33a8.15,8.15,0,0,0-.37,2,.86.86,0,0,0,.08.57l.06.13.07.09c0-.22.12-.47.18-.73a6.3,6.3,0,0,1,.19-.82l.63-1,0,.13h0l0,0-.09.22-.1.33-.09.27a7.54,7.54,0,0,0-.25,1.34l0,.38a1,1,0,0,0,0,.3l.22.12a1.34,1.34,0,0,0,.54.13,3,3,0,0,0,.58.8A5.79,5.79,0,0,0,58,14.4a1,1,0,0,0,.09.58,3.22,3.22,0,0,0,.46.27.84.84,0,0,0,.56-.05.66.66,0,0,0,.15-.26.58.58,0,0,0,.66.14,3,3,0,0,0,.89-.95,1.51,1.51,0,0,0,.15-.28c-.67-1.39-1.29-2.65-1.86-3.76a18.7,18.7,0,0,0-1.62-2.72,3.58,3.58,0,0,0-.2-.49,4.29,4.29,0,0,0-1.08-.74,3.88,3.88,0,0,1,.91,1.13L56.1,7l-.05-.07,0,0a4.2,4.2,0,0,1-.5-.78,1.64,1.64,0,0,0,0,.43,1.33,1.33,0,0,0,.05.19,3.78,3.78,0,0,0,.17.46l.08.17,0,0H55.7l-.24,0h0v0a3.55,3.55,0,0,1-.54.16l-.1,0a.46.46,0,0,0-.21.07c-.2.08-.57.27-1.1.55-.71.61-1.41,1.25-2.11,1.93S50,11.57,49.3,12.33l0,0c.62-.71,1.2-1.36,1.75-1.93L48,12.2l0,0-.34,0c-.69.14-1.38.32-2.07.51-.39.11-.75.21-1.09.32a6,6,0,0,1,1.87-.75,3,3,0,0,0-2.29.89l-.36.12h-.09c-.39.05-1,.11-1.93.18a11.25,11.25,0,0,1-3.29-.38l-4.92-2m17.17,7.37c.07-.25.13-.52.19-.82l0-.25a8.38,8.38,0,0,0,0-2.29,3.57,3.57,0,0,1,.27,2.15l-.08.35a4.35,4.35,0,0,1-.4.86m9.81-4.88,0,0v.06a.06.06,0,0,1,0,.06.2.2,0,0,1,0,.08l-.06,0-.12.05c-.06,0-.1,0-.12,0l0,0,0,0s0-.07,0-.15a.41.41,0,0,1,.11-.15l0-.08.07,0h.06Z"/></g><g id="Layer0_111_MEMBER_0_MEMBER_0_MEMBER_9_FILL" data-name="Layer0 111 MEMBER 0 MEMBER 0 MEMBER 9 FILL"><path class="cls-14" d="M50.87,15.2a8.38,8.38,0,0,1,0,2.29l0,.25c-.06.3-.12.57-.19.82a4.35,4.35,0,0,0,.4-.86l.08-.35a3.57,3.57,0,0,0-.27-2.15m-9.24-1.7h.3l-.28-.06a30.69,30.69,0,0,1-7.26-2.62,13.41,13.41,0,0,0,7.24,2.67m7.65-1.19,0,0A45.59,45.59,0,0,1,53.55,8.2c.3-.26.61-.51.93-.76a10.78,10.78,0,0,0-1.41,1,33.93,33.93,0,0,0-3.79,3.85m-2.79-.77A2.77,2.77,0,0,0,44,12.66a6.89,6.89,0,0,1,2.45-1.12M32,9.72h0a4,4,0,0,0-3,.39A13.12,13.12,0,0,1,32,9.72Z"/></g><g id="Layer0_112_MEMBER_0_MEMBER_0_MEMBER_0_FILL" data-name="Layer0 112 MEMBER 0 MEMBER 0 MEMBER 0 FILL"><path class="cls-11" d="M59.08,13.64v0a.32.32,0,0,0-.07-.22.3.3,0,0,0-.21-.13h-.1a.27.27,0,0,0-.14.05.3.3,0,0,0-.14.21.3.3,0,0,0,.06.26.3.3,0,0,0,.21.13h0a.35.35,0,0,0,.21-.07A.3.3,0,0,0,59.08,13.64Z"/></g><g id="Layer0_112_MEMBER_0_MEMBER_0_MEMBER_1_FILL" data-name="Layer0 112 MEMBER 0 MEMBER 0 MEMBER 1 FILL"><path d="M54.14,6.72a1.56,1.56,0,0,0-.65.26,52.85,52.85,0,0,0,4.86,6.62l-.87.9.37.28.89-.87h0a.3.3,0,0,1-.21-.13.3.3,0,0,1-.06-.26.3.3,0,0,1,.14-.21.27.27,0,0,1,.14-.05h.1a.3.3,0,0,1,.21.13.32.32,0,0,1,.07.22,5.83,5.83,0,0,1,1.23-.85l-.22-.36a4.26,4.26,0,0,0-1.29.77A26.38,26.38,0,0,1,54.14,6.72Z"/></g><path class="cls-12" d="M58.73,14h0a.35.35,0,0,1-.24-.15.4.4,0,0,1-.07-.3.33.33,0,0,1,.16-.24.27.27,0,0,1,.17-.06h.11a.35.35,0,0,1,.24.15.41.41,0,0,1,.08.25v0a.35.35,0,0,1-.15.24.38.38,0,0,1-.24.08Zm.08-.66c-.05,0-.07,0-.09,0a.28.28,0,0,0-.12,0,.27.27,0,0,0-.12.18.25.25,0,0,0,.05.22.22.22,0,0,0,.18.11h0a.3.3,0,0,0,.18-.06.27.27,0,0,0,.11-.17v0a.28.28,0,0,0-.06-.18A.27.27,0,0,0,58.81,13.3Z"/><g id="Layer0_113_MEMBER_0_MEMBER_0_MEMBER_0_FILL" data-name="Layer0 113 MEMBER 0 MEMBER 0 MEMBER 0 FILL"><path class="cls-21" d="M35.54,10.29a6.65,6.65,0,0,0-.93,6.16c.64.42,2.86.95,6.68,1.59-.2-.14-.09-1,.35-2.69a12.85,12.85,0,0,1,2.26-4.21,5.19,5.19,0,0,1-3.35.13A13.22,13.22,0,0,1,35.54,10.29Z"/></g><g id="Layer0_114_MEMBER_0_MEMBER_0_MEMBER_0_FILL" data-name="Layer0 114 MEMBER 0 MEMBER 0 MEMBER 0 FILL"><path class="cls-12" d="M39.78,11.58l0,.06.27,0,0-.07h.08L41,11h-.19c-1.82,0-3-.33-3.64-.9-.55-.31-.62-.25-.22.17v0A4,4,0,0,0,39.78,11.58Z"/></g><g id="Layer0_115_FILL" data-name="Layer0 115 FILL"><path class="cls-22" d="M43.64,11.21l-1.92.25a16.06,16.06,0,0,1-1.79,10.3l1.64.4A15.26,15.26,0,0,0,43.64,11.21Z"/></g><g id="Layer0_117_FILL" data-name="Layer0 117 FILL"><path class="cls-23" d="M36.42,7l.23.31A9.68,9.68,0,0,0,38,8.73l1.7-.92L40,7.65a6.11,6.11,0,0,1,1.12-.38,10.58,10.58,0,0,0,5.32-2c.23-.1.42-.2.59-.29l0-.34c0-.16,0-.31,0-.45A.47.47,0,0,0,46.44,4l-.14-.41a.44.44,0,0,0,0-.15q-.47-1.2-4.2-.53a10.29,10.29,0,0,0-6,2.54l.29.85-.28,0A4.82,4.82,0,0,0,36.42,7Z"/><path class="cls-8" d="M35.81,4.69l-.09.1.1.08.11.34c0,.08-.17.26-.36.52l.4-.42,0,.11a10.29,10.29,0,0,1,6-2.54q3.73-.67,4.2.53a.44.44,0,0,1,0,.15l.14.41A.47.47,0,0,1,47,4.2a1.89,1.89,0,0,0-.17-.75.46.46,0,0,0-.56-.24l-.14-.41a.44.44,0,0,0-.05-.15c-.31-.8-1.71-1-4.2-.53A10.25,10.25,0,0,0,35.81,4.69Z"/></g><g id="Layer0_118_MEMBER_0_MEMBER_0_MEMBER_0_FILL" data-name="Layer0 118 MEMBER 0 MEMBER 0 MEMBER 0 FILL"><path class="cls-12" d="M40.76,10.86l0,1.06.08,4.39a.39.39,0,0,1,.25-.21Z"/></g><g id="Layer0_118_MEMBER_0_MEMBER_0_MEMBER_1_FILL" data-name="Layer0 118 MEMBER 0 MEMBER 0 MEMBER 1 FILL"><path class="cls-24" d="M40.8,16.31a1.69,1.69,0,0,0-.13.27L40.56,18c0,.12.09.17.23.15.39.27.82.06,1.32-.65a.39.39,0,0,0,0-.45l-.83-.83-.06,0a.25.25,0,0,0-.14,0,.39.39,0,0,0-.25.21m.35.16.77.88a2.92,2.92,0,0,1-1.11.51,3.26,3.26,0,0,1,.11-1.27Z"/></g><g id="Layer0_119_FILL" data-name="Layer0 119 FILL"><path class="cls-11" d="M39.53,18.26l.41,0a4.56,4.56,0,0,0,1.75-.55c.07-.08.1-.15.07-.22a4.44,4.44,0,0,1-2.07.7l-.9-.09-.73.18a6.54,6.54,0,0,1-.8.15l.06.27,1.23-.31.23-.23Z"/><path class="cls-12" d="M40.37,17.18l.13.09,1.17.07a.84.84,0,0,0-.28-.09l-1-.07M38.72,13a2.37,2.37,0,0,1,.52-.06,2,2,0,0,0-.48-.11,2.86,2.86,0,0,0-.87,0,24.06,24.06,0,0,0-.44,3.28l-.05.67v.07a2.18,2.18,0,0,0-.14,1.48,6.54,6.54,0,0,0,.8-.15,1.81,1.81,0,0,1,.18-1.2V17l0-.67A24.26,24.26,0,0,1,38.72,13Z"/><path class="cls-25" d="M39.87,13.28a2.63,2.63,0,0,0-.63-.31,2.37,2.37,0,0,0-.52.06,24.26,24.26,0,0,0-.43,3.28l0,.67v.07a1.81,1.81,0,0,0-.18,1.2l.73-.18.9.09a4.44,4.44,0,0,0,2.07-.7.18.18,0,0,0-.09-.12l-1.17-.07-.13-.09-.71,0A1.57,1.57,0,0,1,39,16.5h0l.15-.66A24.4,24.4,0,0,1,39.87,13.28Z"/><path class="cls-9" d="M39.2,10.45l-.67,0,.06,0a16.39,16.39,0,0,0-.7,2.46,2.86,2.86,0,0,1,.87,0,16.18,16.18,0,0,1,.67-2.3l-.23-.11m-.33-3.06H39l-.36-.15.2.14m-.11,0-.19-.11h-.19l.38.1m-2.63-2A5.32,5.32,0,0,1,36,4.56,4.53,4.53,0,0,0,34.25,8.2c.09,1.15,1.16,1.84,3.22,2.06C36,10,35.17,9.31,35.08,8.33A4.7,4.7,0,0,1,36.13,5.34Z"/><path class="cls-26" d="M36.13,5.34a4.7,4.7,0,0,0-1.05,3c.09,1,.88,1.62,2.39,1.93.28,0,.58.05.89.06l.17.09.67,0,.23.11a16.18,16.18,0,0,0-.67,2.3,2,2,0,0,1,.48.11,2.63,2.63,0,0,1,.63.31l1.49-3h-.07Q42.57,9,39.2,7.51c-.05,0-.08-.06-.07-.07l-.1,0h-.16l.48.31-.59-.32-.38-.1C37.25,7.31,36.5,6.66,36.13,5.34Z"/></g><g id="Layer0_120_MEMBER_0_MEMBER_0_FILL" data-name="Layer0 120 MEMBER 0 MEMBER 0 FILL"><path class="cls-8" d="M57.63,12.75a.38.38,0,0,1,.3-.07.4.4,0,0,1,.26.16.36.36,0,0,1,.07.3.42.42,0,0,1-.16.27.45.45,0,0,1-.3.07.38.38,0,0,1-.26-.16.39.39,0,0,1-.08-.21l-.2,0a.52.52,0,0,0,.12.34.61.61,0,0,0,.86.14.64.64,0,0,0,.25-.4.54.54,0,0,0-.12-.46.53.53,0,0,0-.39-.24.61.61,0,0,0-.46.1.57.57,0,0,0-.21.29l.21,0a.4.4,0,0,1,.11-.12M42,4.54a1.77,1.77,0,0,0-.46,0c-.5.7-1,1.43-1.44,2.2h0a.85.85,0,0,0-.14.34v.07c-.06.28.11.64.53,1.08a12.14,12.14,0,0,0,2,1.59,1.06,1.06,0,0,1,0-.19,1.79,1.79,0,0,1,.6-.88c-.22-.45-.4-.77-.53-1A7.12,7.12,0,0,1,42.22,7l1.25-1.28a1.71,1.71,0,0,0-1.14-1.09l-.31,0m.14,2.3h0Z"/><path d="M46.5,10.76a.24.24,0,0,1-.14.09q3,.74,10.9,2.22l.2,0,.09,0,0-.23-.07,0-.21,0Z"/><path class="cls-27" d="M43.64,10.28a.32.32,0,0,0,0,.14l.84.5.5.6.54.24c.19,0,.28,0,.27-.08h0c.14,0,.19-.07.15-.13h0c.15,0,.23-.08.22-.19h0c.13-.06.2-.14.2-.24h0l-.09-.23.06,0a.24.24,0,0,0,.14-.09h0l-.79-.62-.7-.07h0l-.82-.55A.93.93,0,0,0,43.64,10.28Z"/><path class="cls-9" d="M43.61,10.42a.32.32,0,0,1,0-.14l-.33-.17-.18-.1L43,9.89l-.38-.25a1.06,1.06,0,0,0,0,.19l.17.11.18.11.72.37M44,2.55a1.31,1.31,0,0,0-1,.13c-.51.62-1,1.24-1.43,1.86a1.77,1.77,0,0,1,.46,0c.43-.6.89-1.2,1.39-1.8A1.72,1.72,0,0,1,44,2.55Z"/><path class="cls-26" d="M43.44,9l-.26-.21a1.79,1.79,0,0,0-.6.88l.38.25.17.12.18.1.33.17a.93.93,0,0,1,.54-.77c-.28-.19-.53-.38-.74-.54M44,2.55a1.72,1.72,0,0,0-.63.19c-.5.6-1,1.2-1.39,1.8l.31,0a1.71,1.71,0,0,1,1.14,1.09l.26-.26c.85-.92,1.21-1.58,1.06-2A1.46,1.46,0,0,0,44,2.55Z"/></g><g id="Layer0_146_MEMBER_0_MEMBER_0_MEMBER_0_MEMBER_0_FILL" data-name="Layer0 146 MEMBER 0 MEMBER 0 MEMBER 0 MEMBER 0 FILL"><path class="cls-28" d="M56.64,9.29a2.07,2.07,0,0,1,.94-.23,1.14,1.14,0,0,0-1.09-.53C56.31,8.78,56.37,9,56.64,9.29Z"/></g><g id="Layer0_146_MEMBER_0_MEMBER_1_MEMBER_0_FILL" data-name="Layer0 146 MEMBER 0 MEMBER 1 MEMBER 0 FILL"><path d="M56.1,8.61h0l.26,0a.58.58,0,0,0,.17.7,1.41,1.41,0,0,0-.36.24s0,0,0,0a0,0,0,0,0,0,0l0,0h0a1.66,1.66,0,0,1,.39-.26h0a2.05,2.05,0,0,1,.9-.22h0a0,0,0,0,0,0,0s0,0,0,0a1.18,1.18,0,0,0-1.14-.55h0a1.55,1.55,0,0,0-.37,0l0,0a0,0,0,0,0,0,0s0,0,0,0m.55.62a.49.49,0,0,1-.14-.65,1.09,1.09,0,0,1,1,.43A2,2,0,0,0,56.65,9.23Z"/></g><g id="Layer0_146_MEMBER_1_MEMBER_0_MEMBER_0_MEMBER_0_FILL" data-name="Layer0 146 MEMBER 1 MEMBER 0 MEMBER 0 MEMBER 0 FILL"><path d="M57.39,8.8a1.49,1.49,0,0,0-.55-.27.2.2,0,0,0-.08.13.1.1,0,0,0,0,.08.42.42,0,0,0,0,.16h0a.34.34,0,0,0,.18.19.31.31,0,0,0,.25,0,.26.26,0,0,0,.17-.17A.5.5,0,0,0,57.39,8.8Z"/></g><g id="Face_0_Layer0_0_MEMBER_0_FILL" data-name="Face 0 Layer0 0 MEMBER 0 FILL"><path class="cls-29" d="M46.94,4a1.05,1.05,0,0,0-.22-.72.68.68,0,0,0-.56-.31.82.82,0,0,0-.61.28.92.92,0,0,0-.17.9,1,1,0,0,0,.53.79,1.22,1.22,0,0,0,.71.15.32.32,0,0,0,.31-.36C46.93,4.48,46.93,4.24,46.94,4Z"/></g><g id="Face_0_Layer0_0_MEMBER_1_MEMBER_0_MEMBER_0_MEMBER_0_FILL" data-name="Face 0 Layer0 0 MEMBER 1 MEMBER 0 MEMBER 0 MEMBER 0 FILL"><path class="cls-30" d="M45.65,2.92h0l-.17,0V3h.17Z"/></g><g id="Face_0_Layer0_0_MEMBER_1_MEMBER_0_MEMBER_0_MEMBER_1_FILL" data-name="Face 0 Layer0 0 MEMBER 1 MEMBER 0 MEMBER 0 MEMBER 1 FILL"><path class="cls-31" d="M45.81,4.61l.71.21L46.4,4a2.08,2.08,0,0,1-.58-1,.14.14,0,0,0,0-.06l-.15,0,0,.48A1.59,1.59,0,0,0,45.81,4.61Z"/></g><g id="Face_0_Layer0_0_MEMBER_1_MEMBER_0_MEMBER_0_MEMBER_2_FILL" data-name="Face 0 Layer0 0 MEMBER 1 MEMBER 0 MEMBER 0 MEMBER 2 FILL"><path class="cls-32" d="M46.9,3.1h0L46.08,3c.2.67.44,1,.7.84h0l.08-.14A.75.75,0,0,0,46.9,3.1Z"/></g><g id="Face_0_Layer0_0_MEMBER_1_MEMBER_0_MEMBER_0_MEMBER_3_FILL" data-name="Face 0 Layer0 0 MEMBER 1 MEMBER 0 MEMBER 0 MEMBER 3 FILL"><path class="cls-33" d="M46.91,4l-.14.12V5a.35.35,0,0,0,0,.13,1.11,1.11,0,0,0,.53.4c.19,0,.27-.08.24-.2s0-.16.07-.18.21-.06.18-.12a.12.12,0,0,0,0-.09c.11,0,.17,0,.19-.13l.16-.18a.61.61,0,0,0,.3.16q.1,0,.12-.3l0-.37a1.45,1.45,0,0,1-.74-.1,6.15,6.15,0,0,1-.7-.75A.79.79,0,0,1,46.91,4Z"/></g><g id="Face_0_Layer0_0_MEMBER_1_MEMBER_0_MEMBER_0_MEMBER_4_FILL" data-name="Face 0 Layer0 0 MEMBER 1 MEMBER 0 MEMBER 0 MEMBER 4 FILL"><path d="M45.8,3a.14.14,0,0,1,0,.06,2.08,2.08,0,0,0,.58,1l.12.85v0a.42.42,0,0,0,.3.31.35.35,0,0,1,0-.13V4.15L46.91,4a.79.79,0,0,0,.25-.73,6.15,6.15,0,0,0,.7.75,1.45,1.45,0,0,0,.74.1l0-.13,0-.1a1.29,1.29,0,0,1-.85-.31c0-.23,0-.37.06-.43l-1-.08a.75.75,0,0,1,0,.59l-.08.14h0c-.26.11-.5-.17-.7-.84Z"/></g><g id="Face_0_Layer0_0_MEMBER_1_MEMBER_0_MEMBER_0_MEMBER_5_FILL" data-name="Face 0 Layer0 0 MEMBER 1 MEMBER 0 MEMBER 0 MEMBER 5 FILL"><path class="cls-10" d="M47.84,3.61a1.29,1.29,0,0,0,.85.31s0,0,0,0a1.9,1.9,0,0,0,.57-.72c-.5,0-1,0-1.36,0C47.83,3.24,47.81,3.38,47.84,3.61Z"/></g><g id="Face_0_Layer0_0_MEMBER_1_MEMBER_0_MEMBER_0_MEMBER_6_FILL" data-name="Face 0 Layer0 0 MEMBER 1 MEMBER 0 MEMBER 0 MEMBER 6 FILL"><path class="cls-34" d="M50.59,3.06c0-.09-.3-.17-.78-.22s-1.13.05-1.67,0a10.26,10.26,0,0,1-1.3-.1,10.48,10.48,0,0,1-1.38-.25l-.3-.09,0,.36.07.05.39.07h0l.43.08.77.1h0l1,.08c.4,0,.86,0,1.36,0h.42C50.33,3.2,50.63,3.16,50.59,3.06Z"/></g><g id="Face_0_Layer0_0_MEMBER_1_MEMBER_0_MEMBER_0_MEMBER_7_FILL" data-name="Face 0 Layer0 0 MEMBER 1 MEMBER 0 MEMBER 0 MEMBER 7 FILL"><path class="cls-35" d="M49.81,2.84l0-.25c-.41,0-.8,0-1.16,0a16.55,16.55,0,0,1-1.81-.11L45.36,2.3l-.2,0v.18l.3.09a10.48,10.48,0,0,0,1.38.25,10.26,10.26,0,0,0,1.3.1C48.68,2.89,49.24,2.88,49.81,2.84Z"/></g><g id="Face_0_Layer0_0_MEMBER_1_MEMBER_0_MEMBER_0_MEMBER_8_FILL" data-name="Face 0 Layer0 0 MEMBER 1 MEMBER 0 MEMBER 0 MEMBER 8 FILL"><path class="cls-36" d="M49.79,2.59a1.6,1.6,0,0,0,0-.31A2.34,2.34,0,0,0,49,.62,2.14,2.14,0,0,0,48.5.25,2.1,2.1,0,0,0,47.42,0h-.08a2,2,0,0,0-.65.13,2.22,2.22,0,0,0-.95.66c-.09.12-.17.22-.23.32l-.19.37a2.78,2.78,0,0,0-.16.77l.2,0,1.46.21a16.55,16.55,0,0,0,1.81.11C49,2.63,49.38,2.61,49.79,2.59Z"/></g><g id="Face_0_Layer0_0_MEMBER_2_MEMBER_0_MEMBER_0_MEMBER_0_FILL" data-name="Face 0 Layer0 0 MEMBER 2 MEMBER 0 MEMBER 0 MEMBER 0 FILL"><path class="cls-37" d="M48.69,3.93v0a1.85,1.85,0,0,0,.56-.72c-.43,0-.88,0-1.36,0-.07.06-.09.21-.06.44A1.31,1.31,0,0,0,48.69,3.93Z"/></g></g></g></g></g></svg>