<svg xmlns="http://www.w3.org/2000/svg"
    xmlns:xlink="http://www.w3.org/1999/xlink" viewBox="0 0 83.13 44.78">
    <defs>
        <style>.cls-1{isolation:isolate;}.cls-2{fill:#a25225;}.cls-3{fill:none;stroke:#bb6828;stroke-miterlimit:10;stroke-width:0.8px;}.cls-4{fill:#cd3f22;stroke:#8b0a08;stroke-linecap:round;stroke-linejoin:round;stroke-width:0.21px;}.cls-5{fill:#992310;}.cls-6{fill:#fff;opacity:0.27;mix-blend-mode:screen;}.cls-7{fill:#4d4d4d;}.cls-8{fill:#58595b;}.cls-11,.cls-13,.cls-14,.cls-15,.cls-8{mix-blend-mode:soft-light;}.cls-9{fill:url(#linear-gradient);}.cls-10{fill:#bb6828;}.cls-11{fill:#231f20;}.cls-12{fill:#9457ad;}.cls-13{fill:#00b4ff;}.cls-14{fill:#cfaccf;}.cls-15{fill:#1f2023;}</style>
        <linearGradient id="linear-gradient" x1="29.62" y1="13.47" x2="53.51" y2="13.47" gradientUnits="userSpaceOnUse">
            <stop offset="0" stop-color="#ffde0b"/>
            <stop offset="1" stop-color="#ffce00"/>
        </linearGradient>
    </defs>
    <g class="cls-1">
        <g id="Layer_2" data-name="Layer 2">
            <g id="portrait">
                <g id="Page-02">
                    <path class="cls-2" d="M5.2,43.56a4,4,0,1,1,4-4A4,4,0,0,1,5.2,43.56ZM0,34.39V44.78H10.39V34.39Z"/>
                    <path class="cls-3" d="M10.26,39.44H35.47s5.55-.57,5.36-7.92"/>
                    <path class="cls-3" d="M73.1,39.44H47.88s-5.54-.57-5.36-7.92"/>
                    <rect class="cls-4" x="13.46" y="36.57" width="22.4" height="6.4"/>
                    <rect class="cls-5" x="13.46" y="36.98" width="22.4" height="2.79"/>
                    <rect class="cls-6" x="13.46" y="40.3" width="22.4" height="1.31"/>
                    <rect class="cls-4" x="47.14" y="36.57" width="22.4" height="6.4"/>
                    <rect class="cls-5" x="47.14" y="36.98" width="22.4" height="2.79"/>
                    <rect class="cls-6" x="47.14" y="40.3" width="22.4" height="1.31"/>
                    <path class="cls-2" d="M72.74,34.39V44.78H83.13V34.39Zm5.19,9.17a4,4,0,1,1,4-4A4,4,0,0,1,77.93,43.56Z"/>
                    <path class="cls-7" d="M41.56,37.4h0a3.71,3.71,0,0,1-3-1.63l0-.05h6.06l0,.05A3.9,3.9,0,0,1,41.56,37.4Z"/>
                    <path class="cls-8" d="M44.58,35.72l0,.05a3.9,3.9,0,0,1-3,1.63,3.51,3.51,0,0,1-2.45-1,3,3,0,0,0,1.46.27,1.33,1.33,0,0,0,1.09-.94Z"/>
                    <path class="cls-9" d="M53.51,11.94a11.9,11.9,0,0,1-3.19,8.13,10.29,10.29,0,0,0-2.65,5.58l0,.31a1.13,1.13,0,0,1-1.12,1H36.62a1.13,1.13,0,0,1-1.12-1l0-.36a10.34,10.34,0,0,0-.69-2.52,10.53,10.53,0,0,0-2-3A11.94,11.94,0,0,1,42,0,11.38,11.38,0,0,1,45,.51,12,12,0,0,1,53.51,11.94Z"/>
                    <path class="cls-10" d="M48.48,15.41a2.11,2.11,0,0,0-2.35-2.13H46a2.33,2.33,0,0,0-2.56,2.27L43.34,17h-3.7l-.12-1.44a2.19,2.19,0,0,0-2.25-2.26,2.28,2.28,0,0,0-2.65,2.12,2.64,2.64,0,0,0,.68,1.85,1.91,1.91,0,0,0,1.54.66h1.94l.75,9.18.93-.09-.73-9.09h3.52L42.4,27l1.09.09.75-9.18H46a2.4,2.4,0,0,0,1.79-.66A2.57,2.57,0,0,0,48.48,15.41ZM46,17H44.33l.11-1.33A1.62,1.62,0,0,1,45.85,14a1.48,1.48,0,0,1,1.54,1.42A1.46,1.46,0,0,1,46,17Zm-7.3,0H36.75a1.39,1.39,0,0,1-1.27-1.53A1.33,1.33,0,0,1,37,14H37a1.75,1.75,0,0,1,1.57,1.61Z"/>
                    <path class="cls-11" d="M53.51,11.94a11.9,11.9,0,0,1-3.19,8.13,10.29,10.29,0,0,0-2.65,5.58l0,.31a1.13,1.13,0,0,1-1.12,1H36.62a1.13,1.13,0,0,1-1.12-1l0-.36a10.34,10.34,0,0,0-.69-2.52l.63.6a3.54,3.54,0,0,0,1.13.69,6.42,6.42,0,0,0,2.28.52,8.78,8.78,0,0,0,2.78-.48c1.85-.57,2.78-2.3,3.82-3.83.81-1.19,2.64-2.44,3.36-3.39a9.87,9.87,0,0,0,1.78-7.91A12.07,12.07,0,0,0,45,.51,12,12,0,0,1,53.51,11.94Z"/>
                    <path class="cls-12" d="M46.8,29.11a.33.33,0,0,1,.1-.22,1.21,1.21,0,0,0,.41-.85,1.11,1.11,0,0,0-1.1-1.11H36.92a1.1,1.1,0,0,0-.68,2c.14.12.32.15.2.34s-.27.18-.36.29a1.11,1.11,0,0,0-.26.71,1.13,1.13,0,0,0,.5.93c.16.1.28.1.12.29s-.26.16-.36.27a1.12,1.12,0,0,0-.26.72,1.17,1.17,0,0,0,.5.92c.31.26.27.69.43,1a2.42,2.42,0,0,0,.6.82l0,0a2,2,0,0,0,1.3.5h5.79a1.91,1.91,0,0,0,1.29-.5l0,0a2.4,2.4,0,0,0,.62-.86c.14-.33.16-.77.42-1a1.16,1.16,0,0,0,.49-.9,1.09,1.09,0,0,0-.23-.68c-.17-.21-.41-.38-.21-.65s.44-.47.44-.88a1.09,1.09,0,0,0-.23-.67C47,29.4,46.8,29.27,46.8,29.11Z"/>
                    <path class="cls-13" d="M36.1,31.71l0,0Z"/>
                    <path class="cls-14" d="M39.91,35.75H38.67a2,2,0,0,1-1.3-.5l0,0a2.42,2.42,0,0,1-.6-.82c-.16-.34-.12-.75-.4-1l0,0-.1-.09a1.1,1.1,0,0,1-.4-.83,1.12,1.12,0,0,1,.26-.72h0c.12-.11.41-.19.37-.38s-.12-.15-.2-.2l-.07-.06h0s0,0,0,0l0,0-.06-.07v0l0,0L36,30.8v0l0,0,0,0h0a.08.08,0,0,0,0-.05l0-.12,0-.05a.09.09,0,0,0,0,0h0a.07.07,0,0,0,0-.05v-.21s0-.06,0-.1a.29.29,0,0,1,0-.09.16.16,0,0,1,0-.09s0,0,0-.05a1.28,1.28,0,0,1,.15-.25l0,0,.08-.07.05,0a.78.78,0,0,0,.15-.1.3.3,0,0,0,.08-.08c.06-.1,0-.15,0-.2l0,0a.76.76,0,0,1-.16-.11,1.1,1.1,0,0,1-.42-.86,1.09,1.09,0,0,1,.32-.78,1.2,1.2,0,0,1,.4-.26l.05,0a1.26,1.26,0,0,1,.33-.05h2a1.1,1.1,0,0,0-.65,2c.14.12.32.15.19.34s-.26.18-.36.29a1.16,1.16,0,0,0-.25.71,1.14,1.14,0,0,0,.19.63,1.75,1.75,0,0,0,.23.24.43.43,0,0,1,.12.11.32.32,0,0,1,0,.19.25.25,0,0,1-.12.19.64.64,0,0,0-.19.13,1.12,1.12,0,0,0-.26.72,1,1,0,0,0,.18.59.8.8,0,0,0,.21.2.42.42,0,0,1,.2.25.93.93,0,0,1,0,.33,1.62,1.62,0,0,0,.31,1.26A3.07,3.07,0,0,0,39.91,35.75Z"/>
                    <path class="cls-15" d="M46.87,31.12c-.2.27,0,.44.21.65a1.09,1.09,0,0,1,.23.68,1.18,1.18,0,0,1-.49.9c-.26.25-.28.69-.42,1a2.4,2.4,0,0,1-.62.86l0,0a1.91,1.91,0,0,1-1.29.5h-2.8a3.5,3.5,0,0,0,1.1-.66,1.36,1.36,0,0,0,.29-1.21c0-.26-.25-.38,0-.62a3.55,3.55,0,0,0,.33-.34,1,1,0,0,0-.08-1.15c-.17-.21-.41-.38-.21-.65s.44-.47.44-.88a1.09,1.09,0,0,0-.23-.67c-.13-.17-.28-.3-.28-.46a.33.33,0,0,1,.1-.22,1.21,1.21,0,0,0,.41-.85,1.11,1.11,0,0,0-1.1-1.11h3.83A1.11,1.11,0,0,1,47.31,28a1.21,1.21,0,0,1-.41.85.33.33,0,0,0-.1.22c0,.16.15.29.28.46a1.09,1.09,0,0,1,.23.67C47.31,30.65,47.1,30.83,46.87,31.12Z"/>
                    <path class="cls-11" d="M46.8,29.11a.42.42,0,0,0,0,.15c-1.14.07-3,.12-5.19.12s-4.08-.05-5.22-.12v0c.06-.1,0-.15,0-.2l0,0L36.3,29c1.13-.08,3.1-.13,5.35-.13s4.07,0,5.22.12A.27.27,0,0,0,46.8,29.11Z"/>
                    <path class="cls-11" d="M46.88,31.53c-1.14.08-3.06.13-5.23.13s-4.14-.05-5.28-.13a.19.19,0,0,0,.1-.2.21.21,0,0,0-.07-.11c1.14-.08,3.06-.12,5.25-.12s4,0,5.17.11A.31.31,0,0,0,46.88,31.53Z"/>
                    <path class="cls-11" d="M46.88,33.3l-.06.05a.84.84,0,0,0-.18.28c-1.16.07-3,.11-5,.11s-4-.05-5.14-.12a.69.69,0,0,0-.16-.22l0,0-.06-.06c1.12-.08,3.11-.13,5.39-.13S45.74,33.23,46.88,33.3Z"/>
                    <path class="cls-11" d="M45.66,35.33a1.93,1.93,0,0,1-1.2.42H38.67a2,2,0,0,1-1.19-.41c1.11-.05,2.57-.07,4.17-.07S44.57,35.29,45.66,35.33Z"/>
                </g>
            </g>
        </g>
    </g>
</svg>