<svg xmlns="http://www.w3.org/2000/svg" viewBox="0 0 83.13 44.12"><defs><style>.cls-1{isolation:isolate;}.cls-2{fill:#ffae80;}.cls-3{fill:#f2e9e9;}.cls-4{fill:#ea6e29;}.cls-5{fill:#6b3b10;}.cls-6{fill:#7c4213;}.cls-7{fill:#b3b3b3;}.cls-8{fill:#9da768;}.cls-9{fill:#88944b;}.cls-10{fill:#dd7b43;}.cls-11{fill:#d45915;}.cls-12{fill:#37364f;}.cls-13{fill:#612f26;}.cls-14{fill:#4a1f15;}.cls-15{fill:#543838;}.cls-16{fill:#82bdd9;}.cls-17{fill:#cfb4b4;}.cls-18{fill:none;stroke:#bb6828;stroke-miterlimit:10;stroke-width:0.8px;}.cls-19{fill:#cd3f22;stroke:#8b0a08;stroke-linecap:round;stroke-linejoin:round;stroke-width:0.21px;}.cls-20{fill:#992310;}.cls-21{fill:#fff;opacity:0.27;mix-blend-mode:screen;}.cls-22{fill:#a25225;}</style></defs><g class="cls-1"><g id="Layer_2" data-name="Layer 2"><g id="portrait"><g id="Page-02"><path class="cls-2" d="M38.28,11.37a17.63,17.63,0,0,1-3.36.51l-.22,2.35c1.47,0,4.2-.16,4.88-.7a45.07,45.07,0,0,0,3.67-5.19A6.77,6.77,0,0,0,42,7.92,45.78,45.78,0,0,1,38.28,11.37Z"/><path class="cls-3" d="M41.66,23.94a3.82,3.82,0,0,0-.07-1.12,9.88,9.88,0,0,1-.05-1.22,5.42,5.42,0,0,0-.29-1.9,5.49,5.49,0,0,0-.48-1.3,6.77,6.77,0,0,1-.67-1.69,4,4,0,0,0-.5-1.42,5.85,5.85,0,0,1-.48-1.59C39,12.78,38.89,11.55,38,11a5.19,5.19,0,0,0-1.66-.61c-.32-.05-.73-.4-1-.43-.52-.19-1,.37-1.39.7A3.89,3.89,0,0,0,33,12.15a4.05,4.05,0,0,0-.29,2,6.75,6.75,0,0,1-.12,1.27,1.83,1.83,0,0,0,0,.93c.06.18.45.24.59.26A2,2,0,0,0,33,17.71c0,.56,0,1.12-.07,1.68s-.13,1-.17,1.55a2.49,2.49,0,0,0,0,.67.19.19,0,0,0-.08.28,3.27,3.27,0,0,0,1.73,1.2c.77.33,1.34,1,2.13,1.24a5.25,5.25,0,0,0,2.33.18,15.47,15.47,0,0,0,2.35-.34C41.37,24.25,41.63,24.2,41.66,23.94Z"/><path class="cls-3" d="M62.52,20.87c.07,0,.06-.1,0-.1A.05.05,0,0,0,62.52,20.87Z"/><path class="cls-4" d="M42.11,20.68a2.77,2.77,0,0,0,0-.39,12.71,12.71,0,0,0-.27-1.55c0-.12-.05-.25-.08-.37a42.34,42.34,0,0,0-2.3-6.83c0-.08-.09-.16-.12-.23a.25.25,0,0,1,0-.07,2.08,2.08,0,0,0-2.33-1,3,3,0,0,0-1.17-.31,4.28,4.28,0,0,0-2.33.48c-1.07.55-2.37,1.52-2.26,1.91a.79.79,0,0,0,.92.45A4.29,4.29,0,0,0,31.75,15c0,.31.48,8.06,2,8.35,2,.37,7.94-.19,8.33-2.09A2.21,2.21,0,0,0,42.11,20.68Zm-7.45-3.34a2.31,2.31,0,0,1-1.88-2.64A2.32,2.32,0,0,1,36.65,14C38.21,15.4,36,17.54,34.66,17.34Z"/><path class="cls-5" d="M79.49,21.36c-.22-.34-9.81,0-16.65.16-.25,0-16.25.49-24.09.6q-13.55.18-27.09.27c-4.79,0-1.57.05-6.36.07-1.31,0-1.7.17-1.7.26a14.46,14.46,0,0,0-.09,2.46c0,.12,0,.23,0,.35a15.42,15.42,0,0,0,.61,3.35A3,3,0,0,0,6,30.22c8.13.45,8.28.74,16.42.87s37.65-.35,37.93-.36c8.27-.28,7.7-.85,14.34-4A13.4,13.4,0,0,0,76.9,25.3l.53-.43C78.87,23.64,80.05,22.19,79.49,21.36Z"/><path class="cls-6" d="M77.43,24.87l-.53.43c-3.84.12-7.66.36-11.48.64-7.63.56-7.25.46-14.89.57s-15.27-.38-22.89-.6c-10.71-.31-13.41-.34-24.11-.38,0-.12,0-.23,0-.35,3.91,0-.18,0,3.73,0,7.74,0,15.47.15,23.21.37s15.23.68,22.85.44,7.26-.19,14.89-.7C71.27,25.12,74.35,25,77.43,24.87Z"/><path class="cls-2" d="M44.07,6.93a1.66,1.66,0,0,1-.2.65,3.05,3.05,0,0,1-.39.58s-.69.57-.84.43-.72-.25-.59-.83a2.2,2.2,0,0,1,.78-1.18A1.5,1.5,0,0,1,44.07,6.93Z"/><polygon class="cls-7" points="54.69 31.35 55.3 31.03 40.15 0 39.53 0.31 54.69 31.35"/><path class="cls-8" d="M50.58,24.81a8.07,8.07,0,0,0,1,5.57L53,33.08a2.51,2.51,0,0,0,3.38,1.09h0a2.52,2.52,0,0,0,1.09-3.38l-1.38-2.7A9.31,9.31,0,0,0,52.2,24c-.1-.05-.32-.14-.39-.28l-.23-.44c-.08-.18-1.15.38-1,.56l.21.43C50.81,24.36,50.62,24.66,50.58,24.81Z"/><path class="cls-9" d="M51.3,25c.42,1,.89,2,1.34,3a9.32,9.32,0,0,0,.62,1.29c.18.28.4.77.73.91.18.08.32-.08.37-.25a1,1,0,0,0-.07-.64.06.06,0,0,0,0-.06c-.78-1.66-1.69-3.29-2.51-5-.05-.1-.21,0-.16.07.82,1.53,1.53,3.13,2.37,4.64,0,0,0,0,0,0,.28.64.25.93.14,1s-.44-.29-.6-.55S52,26.2,51.41,25A.06.06,0,0,0,51.3,25Z"/><path class="cls-2" d="M48.09,16.43c0-.07-.05-.39-.13-.33l-.08.07.09-.09c.07-.08-.1-.43-.19-.34l-.1.09,0,0,.07-.07c.06-.14-.14-.4-.23-.34l0,0,0,0c.11-.12-.17-.44-.31-.34l-.27.17c-.32.19-.48,0-.48,0L46.33,15s-.49.37-.62.51a3,3,0,0,0-.5.9,1.83,1.83,0,0,0,.07.56,3.87,3.87,0,0,0,.45.7s.92-.28,1.2-.41a3.8,3.8,0,0,0,.9-.51Z"/><path class="cls-10" d="M47.43,15.47s0,0,0,0l.13-.12,0,0Z"/><path class="cls-10" d="M47.57,15.89s0,0,0,0l.21-.18,0,0Z"/><path class="cls-10" d="M48,16.06l-.26.24s0,0,0,0,.17-.16.25-.23A0,0,0,0,1,48,16.06Z"/><path class="cls-11" d="M39.05,12.77s-.1,0-.07.05a77.81,77.81,0,0,1,2.48,7.83c0,.07.11,0,.1,0A55.16,55.16,0,0,0,39.05,12.77Z"/><path class="cls-12" d="M41.81,18.74c-1.2,1-3.16,1-4.63,1a.15.15,0,0,1,0-.29,12.12,12.12,0,0,0,2.75-.29,7,7,0,0,0,1.8-.78C41.76,18.49,41.79,18.62,41.81,18.74Z"/><path class="cls-2" d="M39.31,16.77a17.64,17.64,0,0,1-2.82-1.9l-1.76,1.58c1.05,1,3.21,2.72,4.08,2.79a55.31,55.31,0,0,0,6.92-1.6,9.65,9.65,0,0,0-.45-1.44C44.35,16.29,39.8,16.87,39.31,16.77Z"/><path class="cls-2" d="M39,12.75a4.81,4.81,0,0,0-.83-.63A2.53,2.53,0,0,0,37.8,12a16.78,16.78,0,0,1-2.29-.65c-2.86-1.5,1.16-1.15,1.16-1.15a7.54,7.54,0,0,1,1.79,1.41v0A5.6,5.6,0,0,1,39,12.75Z"/><path class="cls-2" d="M37.6,10.35l-.11.74c0,.31-.83.43-1.46.22s-1.17-.48-1.21-1a12.49,12.49,0,0,0,.26-1.49A7.66,7.66,0,0,1,37.6,10.35Z"/><path class="cls-2" d="M39.06,7.63a4.8,4.8,0,0,1,0-.65c0-.17,0-.32,0-.43s0-.12,0-.19a2.63,2.63,0,0,0-5.26-.11,2.47,2.47,0,0,0,.94,1.94c.17.32.3.68.41.85a4.07,4.07,0,0,0,1.51,1.19,2.51,2.51,0,0,0,1.68.23,4.38,4.38,0,0,0,.72-2.07C39.12,8.2,39.07,7.9,39.06,7.63Z"/><path class="cls-13" d="M36.67,7.24a1.54,1.54,0,0,1,.55-.14,1.22,1.22,0,0,1,.27,0,.68.68,0,0,1,.29.06c.07,0,0,.09,0,.18s-.49,0-.65,0l-.37,0C36.65,7.39,36.58,7.28,36.67,7.24Z"/><path class="cls-13" d="M38.54,7.29a.73.73,0,0,0,.43,0l.12,0a.15.15,0,0,0,0-.22H38.8a.6.6,0,0,0-.3.11S38.44,7.24,38.54,7.29Z"/><path class="cls-10" d="M37.58,10.5A3.71,3.71,0,0,1,36.52,10a6.25,6.25,0,0,1-.75-.66,2.56,2.56,0,0,0,.82.94,3.84,3.84,0,0,0,1,.39Z"/><path class="cls-10" d="M38.68,9.3l-.44,0a2,2,0,0,1-.48,0c-.07,0-.1.09,0,.1a1.71,1.71,0,0,0,1,0C38.78,9.36,38.73,9.29,38.68,9.3Z"/><path class="cls-13" d="M33.57,6.2c0-.15,0-.29,0-.44A1.23,1.23,0,0,1,34,5h0A.36.36,0,0,1,34,4.78a.77.77,0,0,1,.41-.26.7.7,0,0,1,.14-.46,1.59,1.59,0,0,1,1.11-.43,3.66,3.66,0,0,0,.74-.1A3.34,3.34,0,0,1,37,3.39a1,1,0,0,1,.83.18,1,1,0,0,1,.8.41c.13.23.12.37.36.53a1.88,1.88,0,0,1,.5.55.56.56,0,0,1,0,.52c.12.35-.15.78-.53.54l-.07,0a.52.52,0,0,1-.37,0c-.2-.07-.42-.33-.6-.34l-.1.08a2.2,2.2,0,0,1-.59.38c-.11,0-.31.06-.45.11s-.12.21-.19.31a1.16,1.16,0,0,1-.16.21,1,1,0,0,0-.15.14,1.13,1.13,0,0,0,0,.27.89.89,0,0,1-.08.32.49.49,0,0,1-.31.32.25.25,0,0,1-.29-.08c-.06-.08,0-.12,0-.21a.75.75,0,0,0,.06-.29.73.73,0,0,0-.23.12,3.34,3.34,0,0,0,0,.68c-.32.14,0,.56-.29.63a3,3,0,0,1-.72-1.07c-.24-.16-.59-.28-.72-.63A1.2,1.2,0,0,1,33.57,6.2Z"/><path class="cls-2" d="M35.65,7.36s-.39-.46-.66,0c-.19.33.17,1,.74,1.17C35.85,8.6,35.46,8,35.65,7.36Z"/><path class="cls-10" d="M35.47,8c0-.08-.13-.13-.15-.23a.29.29,0,0,1,0-.28c.06,0,0-.12-.08-.09a.37.37,0,0,0-.13.39c0,.14.13.31.29.29S35.49,8,35.47,8Z"/><path class="cls-14" d="M34.16,6.62s.07,0,.05,0-.15.28-.25.4,0,0,0,0A1.37,1.37,0,0,1,34.16,6.62Z"/><path class="cls-14" d="M34.57,7l.21-.26s.08,0,.06,0a2.27,2.27,0,0,0-.18.25.78.78,0,0,1-.16.24s-.06,0,0,0A.58.58,0,0,1,34.57,7Z"/><path class="cls-14" d="M35.09,6c.18,0,.22-.19.35-.3a.41.41,0,0,1,.43,0,.34.34,0,0,0,.26,0c.08,0,.12-.16.18-.23a1.18,1.18,0,0,1,.38-.32s.05,0,0,0a1.27,1.27,0,0,0-.4.46.32.32,0,0,1-.37.17,2.5,2.5,0,0,0-.26-.07.27.27,0,0,0-.25.14c-.07.1-.2.28-.35.2A0,0,0,0,1,35.09,6Z"/><path class="cls-14" d="M35.22,5.25a2.81,2.81,0,0,1,.49-.09s0,0,0,.06l-.39.1a.56.56,0,0,0-.27.15,0,0,0,0,1-.07,0A.27.27,0,0,1,35.22,5.25Z"/><path class="cls-14" d="M38.34,4.86a1.35,1.35,0,0,1,.6.56,0,0,0,0,1-.06,0,2,2,0,0,0-.27-.31c-.1-.08-.21-.15-.3-.23S38.31,4.85,38.34,4.86Z"/><path class="cls-14" d="M38.18,4.55a1.08,1.08,0,0,1,.29.13s0,.06,0,0a1.28,1.28,0,0,1-.29-.13S38.15,4.55,38.18,4.55Z"/><path class="cls-15" d="M39,7.78a.12.12,0,0,1-.09.06.14.14,0,0,1-.12-.06c0-.09-.07-.39.1-.37S39,7.69,39,7.78Z"/><path class="cls-15" d="M37.43,7.91s0,.06-.08.06a.14.14,0,0,1-.13-.06c0-.09-.07-.39.1-.37S37.51,7.81,37.43,7.91Z"/><path class="cls-10" d="M38.42,8.64a.26.26,0,0,0,.15-.14.37.37,0,0,0-.07-.2,2.64,2.64,0,0,1-.26-.57,0,0,0,0,1,.08,0l.26.49a.53.53,0,0,1,.12.3c0,.17-.31.27-.44.32s0-.05,0-.06Z"/><path class="cls-3" d="M39,12.75a4.81,4.81,0,0,0-.83-.63A2.53,2.53,0,0,0,37.8,12a2.09,2.09,0,0,0,.67-.37A5.6,5.6,0,0,1,39,12.75Z"/><path class="cls-2" d="M44.08,6.9a1.23,1.23,0,0,1-.3.67,4.88,4.88,0,0,0-.51-.49c-.13,0-.42,0-.52-.07s-.07-.09,0-.12a.05.05,0,0,1,0,0h0s-.27,0-.29-.1a.09.09,0,0,1,.06-.1.12.12,0,0,1-.06-.11c0-.06.1-.09.14-.1l.69-.14.1,0a1.59,1.59,0,0,0,.37-.14.52.52,0,0,1,.16.09A.83.83,0,0,1,44.08,6.9Z"/><path class="cls-2" d="M43.38,5.9a4.37,4.37,0,0,0-.76,0c-.13,0-.07.15,0,.17l.53.1a1.52,1.52,0,0,0,.28.18c.18.05.46,0,.43-.11A1.76,1.76,0,0,0,43.38,5.9Z"/><path class="cls-2" d="M42.11,6.21A4.56,4.56,0,0,0,42,6.9c0,.32.06,1,.06,1s.59-.11.47-.48S42.48,6,42.11,6.21Z"/><path class="cls-10" d="M43.66,6.66c-.11-.06-.23-.1-.31-.14l-.42,0a4.3,4.3,0,0,0-.44.08s0,0,0,0l.43,0c.13,0,.27,0,.43,0l.29.13C43.71,6.75,43.74,6.69,43.66,6.66Z"/><path class="cls-10" d="M43.61,7c-.09,0-.24-.13-.33-.17H43l-.31,0a.05.05,0,0,1,0,0h0l.3,0,.28,0,.33.2S43.63,7,43.61,7Z"/><path class="cls-10" d="M43.65,6.42s0,0,0,0l-.34-.14.09,0a2.17,2.17,0,0,1,.26.12S43.65,6.4,43.65,6.42Z"/><path class="cls-11" d="M38.05,12.12a3.93,3.93,0,0,1-1.34.67A3,3,0,0,1,35,12.51a3.2,3.2,0,0,0-2.69-.31c-.08,0,0,.16.07.12,1.21-.54,2.35.49,3.49.7a2.15,2.15,0,0,0,2.26-.8C38.2,12.16,38.12,12.08,38.05,12.12Z"/><path class="cls-11" d="M39.41,11.51a.67.67,0,0,1-.37.25c-.16,0-.19-.07,0-.14a.46.46,0,0,0,.24-.24.7.7,0,0,0,0-.14.25.25,0,0,0,0,.07Z"/><path class="cls-12" d="M42.1,20.49a10.35,10.35,0,0,1-4.92,1,.12.12,0,0,1,0-.24,12,12,0,0,0,4.88-1.11A2.87,2.87,0,0,1,42.1,20.49Z"/><path class="cls-3" d="M33.59,16c0,.08,2,1.64,2,1.64l2-1.93-2-1.65S32.73,13.51,33.59,16Z"/><path class="cls-16" d="M36.59,26.39h0S36.6,26.39,36.59,26.39Z"/><path class="cls-17" d="M36.78,15.06c-.58.63-1.28,1.35-1.91,1.92-.43-.37-.88-.72-1.3-1.11a0,0,0,1,0-.06.05,12.54,12.54,0,0,0,1.67,1.39s.06,0,0,0L34.94,17a9.87,9.87,0,0,0,1.9-1.92S36.81,15,36.78,15.06Z"/><path class="cls-17" d="M37.29,15.48a11.21,11.21,0,0,0-1.07-1,0,0,0,0,0-.06.06,10.26,10.26,0,0,0,1.1,1S37.31,15.5,37.29,15.48Z"/><path class="cls-18" d="M10.26,38.78H35.47s5.55-.57,5.36-7.92"/><path class="cls-18" d="M73.1,38.78H47.88s-5.54-.57-5.36-7.92"/><rect class="cls-19" x="13.46" y="35.91" width="22.4" height="6.4"/><rect class="cls-20" x="13.46" y="36.32" width="22.4" height="2.79"/><rect class="cls-21" x="13.46" y="39.64" width="22.4" height="1.31"/><rect class="cls-19" x="47.14" y="35.91" width="22.4" height="6.4"/><rect class="cls-20" x="47.14" y="36.32" width="22.4" height="2.79"/><rect class="cls-21" x="47.14" y="39.64" width="22.4" height="1.31"/><path class="cls-22" d="M72.74,33.73V44.12H83.13V33.73Zm5.19,9.17a4,4,0,1,1,4-4A4,4,0,0,1,77.93,42.9Z"/><path class="cls-22" d="M0,33.73V44.12H10.39V33.73ZM5.2,42.9a4,4,0,1,1,4-4A4,4,0,0,1,5.2,42.9Z"/></g></g></g></g></svg>