<svg xmlns="http://www.w3.org/2000/svg" xmlns:xlink="http://www.w3.org/1999/xlink" viewBox="0 0 83.81 44.34"><defs><style>.cls-1{isolation:isolate;}.cls-2{font-size:12.8px;font-family:Montserrat-Bold, Montserrat;font-weight:700;}.cls-11,.cls-2,.cls-7{fill:#fff;}.cls-10,.cls-3{fill:none;}.cls-3{stroke:#bb6828;}.cls-10,.cls-3,.cls-8,.cls-9{stroke-miterlimit:10;stroke-width:0.8px;}.cls-4{fill:#a25225;}.cls-5{fill:#cd3f22;stroke:#8b0a08;stroke-linecap:round;stroke-linejoin:round;stroke-width:0.35px;}.cls-6{fill:#992310;}.cls-7{opacity:0.27;mix-blend-mode:screen;}.cls-8{fill:#cc5019;}.cls-10,.cls-8{stroke:#757575;}.cls-9{fill:#275b63;stroke:#000;}.cls-11{opacity:0.12;}.cls-12{fill:url(#linear-gradient);}.cls-13{fill:#161616;}.cls-14{fill:#ffcc2c;}.cls-15{fill:#fda503;}.cls-16{fill:#efebe1;}</style><linearGradient id="linear-gradient" x1="38.67" y1="21.69" x2="44.64" y2="29.08" gradientUnits="userSpaceOnUse"><stop offset="0" stop-color="#a6162c"/><stop offset="1" stop-color="#1a1a1a"/></linearGradient></defs><g class="cls-1"><g id="Layer_2" data-name="Layer 2"><g id="portrait"><g id="Page-02"><text class="cls-2" transform="translate(31.7 16.53)">0 A</text><line class="cls-3" x1="9.85" y1="39.14" x2="74.09" y2="39.14"/><path class="cls-4" d="M73.42,33.94v10.4H83.81V33.94Zm5.19,9.17a4,4,0,1,1,4-4A4,4,0,0,1,78.61,43.11Z"/><path class="cls-4" d="M0,33.94v10.4H10.39V33.94Zm5.2,9.17a4,4,0,1,1,4-4A4,4,0,0,1,5.2,43.11Z"/><rect class="cls-5" x="13.54" y="35.52" width="56.01" height="7"/><rect class="cls-6" x="13.54" y="35.98" width="56.01" height="3.05"/><rect class="cls-7" x="13.54" y="39.61" width="56.01" height="1.43"/><path class="cls-8" d="M66.76,6.12a3.93,3.93,0,0,0-3.27-3.87c-21.66-4.13-43.21-.06-43.21-.06H21a3.93,3.93,0,0,0-3.91,3.93l-3,22.4A3.93,3.93,0,0,0,18,32.45h5.3l1.62,8c0,.88,1,1.61,2.24,1.76a135.1,135.1,0,0,0,29.58,0h-.47c1.48,0,2.68-.8,2.68-1.78l1.62-8h5.3a3.93,3.93,0,0,0,3.93-3.93Z"/><path class="cls-9" d="M64.92,20,42,25.67,18.9,19.91,20.56,7.57A3.37,3.37,0,0,1,23.92,4.2h-.59s18.51-3.5,37.12,0a3.37,3.37,0,0,1,2.8,3.32Z"/><line class="cls-10" x1="64.92" y1="19.95" x2="65.01" y2="19.91"/><path class="cls-11" d="M59.88,21.22,42,25.69,23.93,21.18a18.53,18.53,0,0,1,36,0Z"/><path class="cls-11" d="M42.18,7.17V25.68l-18-4.49a18.54,18.54,0,0,1,18-14Z"/><circle class="cls-12" cx="41.9" cy="25.69" r="4.11"/><circle class="cls-13" cx="44.58" cy="33.88" r="1.48"/><circle class="cls-13" cx="48.84" cy="33.88" r="1.48"/><circle class="cls-13" cx="53.1" cy="33.88" r="1.48"/><polygon class="cls-14" points="30.56 29.48 27.87 34.93 29.61 35.17 28.84 36.83 28.27 36.41 28.04 38.28 31.61 34.23 30.01 33.82 32.08 30.01 30.56 29.48"/><polygon class="cls-15" points="32.08 30.01 30.01 33.82 31.61 34.23 28.04 38.28 30.32 37.41 29.54 37.14 34.45 33.58 31.65 32.98 33.98 30.68 32.08 30.01"/><circle class="cls-16" cx="44.41" cy="33.73" r="1.48"/><circle class="cls-16" cx="48.67" cy="33.73" r="1.48"/><circle class="cls-16" cx="52.93" cy="33.73" r="1.48"/></g></g></g></g></svg>