<svg xmlns="http://www.w3.org/2000/svg" xmlns:xlink="http://www.w3.org/1999/xlink" viewBox="0 0 62.84 42.97"><defs><style>.cls-1{isolation:isolate;}.cls-2{fill:none;stroke:#bb6828;stroke-miterlimit:10;stroke-width:0.8px;}.cls-3{fill:#cd3f22;stroke:#8b0a08;stroke-linecap:round;stroke-linejoin:round;stroke-width:0.21px;}.cls-4{fill:#992310;}.cls-27,.cls-5{fill:#fff;}.cls-5{opacity:0.27;mix-blend-mode:screen;}.cls-6{fill:#2e8915;}.cls-7{fill:#eee;}.cls-8{fill:#794da5;}.cls-9{fill:#fcd1b6;}.cls-10{fill:#262626;}.cls-11{fill:#333;}.cls-12{fill:#4a197a;}.cls-13{fill:#2a2626;}.cls-14{fill:#0e0603;}.cls-15{fill:#48200d;}.cls-16{fill:#1f1b1b;}.cls-17{fill:#231b14;}.cls-18{fill:#4b4545;}.cls-19{fill:#352f2f;}.cls-20{fill:url(#linear-gradient);}.cls-21{fill:#1f0e05;}.cls-22{fill:#ccc;}.cls-23{fill:url(#linear-gradient-2);}.cls-24{fill:#1c1c1c;}.cls-25{fill:#639;}.cls-26{fill:url(#linear-gradient-3);}.cls-28{fill:#999;}.cls-29{fill:#300;}.cls-30{fill:url(#linear-gradient-4);}.cls-31{fill:url(#linear-gradient-5);}.cls-32{fill:url(#linear-gradient-6);}.cls-33{fill:url(#radial-gradient);}.cls-34{fill:#fc0;}.cls-35{fill:url(#radial-gradient-2);}.cls-36{fill:url(#radial-gradient-3);}</style><linearGradient id="linear-gradient" x1="76.07" y1="113.12" x2="76.71" y2="105.4" gradientTransform="matrix(0.99, 0.15, 0.15, -0.99, -63.21, 111.01)" gradientUnits="userSpaceOnUse"><stop offset="0" stop-color="#ffe258"/><stop offset="0.58" stop-color="#ff9"/><stop offset="1" stop-color="#ba9501"/></linearGradient><linearGradient id="linear-gradient-2" x1="-58.93" y1="12.23" x2="15.26" y2="-3.87" gradientTransform="translate(37.37 17.29) rotate(8.62)" gradientUnits="userSpaceOnUse"><stop offset="0" stop-color="#fff"/><stop offset="1" stop-color="#c1c1c1"/></linearGradient><linearGradient id="linear-gradient-3" x1="-4.31" y1="229.2" x2="-2.45" y2="229.68" gradientTransform="matrix(0.99, 0.15, 0.15, -0.99, 3.93, 237.96)" gradientUnits="userSpaceOnUse"><stop offset="0" stop-color="#fcd1b6"/><stop offset="1" stop-color="#f78b44"/></linearGradient><linearGradient id="linear-gradient-4" x1="-160.96" y1="1324.3" x2="-162.35" y2="1323.62" gradientTransform="matrix(1, -0.06, -0.06, -1, 270.56, 1316.75)" xlink:href="#linear-gradient-3"/><linearGradient id="linear-gradient-5" x1="245.83" y1="1234.41" x2="244.93" y2="1233.96" gradientTransform="matrix(1, -0.06, -0.06, -1, -140.35, 1249.17)" xlink:href="#linear-gradient-3"/><linearGradient id="linear-gradient-6" x1="247.14" y1="1233.59" x2="245.47" y2="1232.77" gradientTransform="matrix(1, -0.06, -0.06, -1, -140.35, 1249.17)" xlink:href="#linear-gradient-3"/><radialGradient id="radial-gradient" cx="-194.75" cy="1355.79" r="3.71" gradientTransform="matrix(1, -0.06, -0.06, -1, 308.13, 1345.86)" gradientUnits="userSpaceOnUse"><stop offset="0" stop-color="#66f"/><stop offset="1" stop-color="#4a197a"/></radialGradient><radialGradient id="radial-gradient-2" cx="-182.43" cy="1341.8" r="2.67" gradientTransform="matrix(1, -0.06, -0.06, -1, 293.59, 1331.09)" xlink:href="#radial-gradient"/><radialGradient id="radial-gradient-3" cx="-192.23" cy="1359.93" r="0.78" gradientTransform="matrix(1, -0.06, -0.06, -1, 305.59, 1350.61)" gradientUnits="userSpaceOnUse"><stop offset="0" stop-color="#630"/><stop offset="1"/></radialGradient></defs><g class="cls-1"><g id="Layer_2" data-name="Layer 2"><g id="Layer_1-2" data-name="Layer 1"><path class="cls-2" d="M0,39.34H25.22s5.54-.57,5.36-7.92"/><path class="cls-2" d="M62.84,39.34H37.62s-5.54-.57-5.36-7.92"/><rect class="cls-3" x="3.2" y="36.47" width="22.4" height="6.4"/><rect class="cls-4" x="3.2" y="36.88" width="22.4" height="2.79"/><rect class="cls-5" x="3.2" y="40.2" width="22.4" height="1.31"/><rect class="cls-3" x="36.88" y="36.47" width="22.4" height="6.4"/><rect class="cls-4" x="36.88" y="36.88" width="22.4" height="2.79"/><rect class="cls-5" x="36.88" y="40.2" width="22.4" height="1.31"/><rect class="cls-6" x="12.27" y="31.46" width="38.2" height="1"/><g id="Layer0_109_MEMBER_0_MEMBER_0_MEMBER_0_FILL" data-name="Layer0 109 MEMBER 0 MEMBER 0 MEMBER 0 FILL"><path class="cls-7" d="M34.44,7.44a7.09,7.09,0,0,0,.89-1.06c-.54.37-1,.13-1.47-.73l-1,1.76c-.27.24.06.6,1,1.09l1,.47a.81.81,0,0,1,.62-.78Z"/></g><g id="Layer0_109_MEMBER_0_MEMBER_0_MEMBER_1_FILL" data-name="Layer0 109 MEMBER 0 MEMBER 0 MEMBER 1 FILL"><path class="cls-8" d="M35.55,9.3c0-.39.24-.6.67-.62l-.72-.49a.81.81,0,0,0-.62.78l.67.33m-.22-2.92c.65-1,.67-1.67.07-1.94-.4-.08-.91.33-1.54,1.21C34.29,6.51,34.79,6.75,35.33,6.38Z"/></g><g id="Layer0_109_MEMBER_0_MEMBER_0_MEMBER_2_FILL" data-name="Layer0 109 MEMBER 0 MEMBER 0 MEMBER 2 FILL"><path class="cls-9" d="M36.78,9.17l-.56-.49c-.43,0-.66.23-.67.62l.39.16c.2.07.31.13.33.17a1.9,1.9,0,0,0,.71.6l.07,0c0,.13.17.22.41.25s.15,0,.15-.17.2-.06.17-.2c.13,0,.17-.1.13-.22.11-.11.11-.22,0-.31.26,0,.39,0,.38-.16l-.87-.31Z"/></g><g id="Layer0_110_MEMBER_0_MEMBER_0_MEMBER_0_FILL" data-name="Layer0 110 MEMBER 0 MEMBER 0 MEMBER 0 FILL"><path class="cls-10" d="M27.88,18.21l0,.27,1.27-.18.26-.19.73.21A4.79,4.79,0,0,0,32.38,18a.22.22,0,0,0,.09-.2,4.55,4.55,0,0,1-2.14.46L29.45,18A15.48,15.48,0,0,1,27.88,18.21Z"/></g><g id="Layer0_110_MEMBER_0_MEMBER_0_MEMBER_1_FILL" data-name="Layer0 110 MEMBER 0 MEMBER 0 MEMBER 1 FILL"><path class="cls-11" d="M30.06,15.86c.3-.87.64-1.69,1-2.46l-1.94-.61A25.72,25.72,0,0,0,28.32,16l-.12.67v.07a2.18,2.18,0,0,0-.31,1.46A15.48,15.48,0,0,0,29.45,18l.88.19a4.55,4.55,0,0,0,2.14-.46c0-.11-.13-.19-.35-.25l-1.71-.31a1.37,1.37,0,0,1-.57-.7v0C29.91,16.27,30,16.06,30.06,15.86Z"/></g><g id="Layer0_110_MEMBER_0_MEMBER_0_MEMBER_2_FILL" data-name="Layer0 110 MEMBER 0 MEMBER 0 MEMBER 2 FILL"><path class="cls-12" d="M28.92,7.22l-.48,3.21c.6.12,1.2.2,1.8.26a4.92,4.92,0,0,0-1.13,2.1,2.52,2.52,0,0,1,1.94.61,19,19,0,0,1,1.28-2.3l0,0c.91-1.42.11-2.55-2.38-3.39Z"/></g><g id="Layer0_111_MEMBER_0_MEMBER_0_MEMBER_0_FILL" data-name="Layer0 111 MEMBER 0 MEMBER 0 MEMBER 0 FILL"><path class="cls-13" d="M39.19,26.35v0h0v0m2.63-1.2.12.09v-.07l-.13,0M45.09,5.54A2.93,2.93,0,0,0,45.84,7l1,.28a4.38,4.38,0,0,0-1.76-1.73m5,8.09h-.06l-.06,0a.56.56,0,0,0-.11.15c0,.08-.06.13,0,.15l0,0,0,0A.19.19,0,0,0,50,14l.12-.05.06,0a.2.2,0,0,0,0-.08.13.13,0,0,0,0-.06l0-.06,0,0,0,0h0Z"/></g><g id="Layer0_111_MEMBER_0_MEMBER_0_MEMBER_1_FILL" data-name="Layer0 111 MEMBER 0 MEMBER 0 MEMBER 1 FILL"><path class="cls-14" d="M17.26,31.54a1.18,1.18,0,0,0-.51-1.09,1.31,1.31,0,0,1-1.4.12v.08l.12.46a3.45,3.45,0,0,0,1.78.43m12.51-.73-.62-1.14-1.24.19a3.54,3.54,0,0,0,0,.7q0,.18.06.12a9.33,9.33,0,0,0,1.58.19c.24,0,.33,0,.24-.06m7.34-4.4c-.6-.33-1.14-.1-1.62.71l0,.07.89.16.77-.94M45.92,32a4,4,0,0,0-.17-1.62l-1.22-.27c-.17.14-.22.4-.13.77A9.39,9.39,0,0,0,45.92,32Z"/></g><g id="Layer0_111_MEMBER_0_MEMBER_0_MEMBER_2_FILL" data-name="Layer0 111 MEMBER 0 MEMBER 0 MEMBER 2 FILL"><path class="cls-15" d="M38.72,27.66v0h-.06l0,.05,0,0m3.45-3.75h-.24a1.88,1.88,0,0,1,.24.36,1.36,1.36,0,0,0,0-.35m-.33-7.3,0,.11,0-.11h0m8.2-3,0,.08.06,0h0l-.07,0M15.69,11h0l0,0h0m7-1.5V9.43h0Z"/></g><g id="Layer0_111_MEMBER_0_MEMBER_0_MEMBER_3_FILL" data-name="Layer0 111 MEMBER 0 MEMBER 0 MEMBER 3 FILL"><path d="M35.49,27.12c.48-.81,1-1,1.62-.71l.15-.2c-.76-.58-1.43-.27-2,.94l.2,0Z"/></g><g id="Layer0_111_MEMBER_0_MEMBER_0_MEMBER_4_FILL" data-name="Layer0 111 MEMBER 0 MEMBER 0 MEMBER 4 FILL"><path class="cls-16" d="M42.17,23.91a1.36,1.36,0,0,1,0,.35,1.44,1.44,0,0,1,.09,1L42,25.17v.07A7.13,7.13,0,0,1,43,26.4a16.24,16.24,0,0,1,1.11,1.46l.12,0-.08.15.15,1a2.94,2.94,0,0,1,.2,1.13l1.22.27a2.81,2.81,0,0,1-.15-1.81l-.11-.19a.87.87,0,0,0-.12-.2l.16.17c.1-.67-.42-1.63-1.55-2.91A3.25,3.25,0,0,0,42.66,24l0,0a1.58,1.58,0,0,0-.79-.69,10,10,0,0,0-1.29-.21,4.19,4.19,0,0,0,.49.15,3,3,0,0,1,.89.62h.24M25,20l2.25,1a9.72,9.72,0,0,0,2.18.65l.68.11.34,0a28.67,28.67,0,0,1,2.93.63l.48.11a6.71,6.71,0,0,0,.88.14q.06.14.18.45a7.14,7.14,0,0,0,1.33.51c.75.26,1.49.53,2.22.8l1.63.55a6,6,0,0,1-.79.74h-.07a1.36,1.36,0,0,0-1.1.45c-.43.21-.73.22-.92,0l-.15.2.11.07.09.07a.71.71,0,0,0,.68.13,1.4,1.4,0,0,0,.29-.16.77.77,0,0,1,.9-.19h0a6.54,6.54,0,0,0,1.26-1.22l.46.16.49-.21-1-.35c-.82-.29-1.5-.54-2-.77l-.74-.29-.06,0c-.39-.15-.82-.31-1.31-.47s-.6-.16-.76-.19-.22,0-.25,0l-.12-.28A9.57,9.57,0,0,0,34.22,21a2,2,0,0,0-1-.86h0a2.17,2.17,0,0,1,.76.85c-.58,0-1.33-.1-2.23-.22l-.88-.13,0,0A12.49,12.49,0,0,1,25,18.37a5.93,5.93,0,0,1-.49,1.36L25,20M14.53,13.71a5.69,5.69,0,0,0-.07,2.89,18.45,18.45,0,0,1,.71,1.86A2.84,2.84,0,0,1,15,20.58a8.79,8.79,0,0,1-2.17,2.54h0a1.29,1.29,0,0,0-.28,1.42,7.54,7.54,0,0,1,.34,1.09l.1.57c0,.18.08.41.14.69s.12.52.21.82a12.72,12.72,0,0,0,.4,1.25v.31A1.14,1.14,0,0,0,14,30a2,2,0,0,0,.93.39l.35.16,0,.07a1.31,1.31,0,0,0,1.4-.12c0-.18-.3-.42-.92-.73a3.77,3.77,0,0,0-.78-.59c-.11-.52-.21-1.05-.29-1.59a9.45,9.45,0,0,0-.41-1.67,2.36,2.36,0,0,1,.23-1.52,23.51,23.51,0,0,1,3.53-3.28,8.3,8.3,0,0,0,1.1-.87,3.69,3.69,0,0,0-.17-.82,4,4,0,0,0-.55-.8h0l-.93-.84A3.75,3.75,0,0,1,15.06,16,3.59,3.59,0,0,1,14.53,13.71Z"/></g><g id="Layer0_111_MEMBER_0_MEMBER_0_MEMBER_5_FILL" data-name="Layer0 111 MEMBER 0 MEMBER 0 MEMBER 5 FILL"><path class="cls-13" d="M44.63,8.19l-.63,1a6.42,6.42,0,0,0-.19.83c-.31,1.23-.53,2-.66,2.43-.38,1.16-.66,2.08-.84,2.77a18.54,18.54,0,0,0,1-2.17l.6-.83c.1-.14.37-.16.83-.07a.36.36,0,0,1,0-.11l-.26-.24a1.3,1.3,0,0,1-.18-.23l-.07-.13a.86.86,0,0,1-.07-.57,7.7,7.7,0,0,1,.37-2l.1-.33.09-.22v0h0l0-.12M38.16,20.72l.12.17a6.44,6.44,0,0,0,.5.78,4.27,4.27,0,0,0,1.77,1.46,10,10,0,0,1,1.29.21L41.31,23a8.19,8.19,0,0,1-2.1-1.8,6.23,6.23,0,0,0,1-1.76,4.89,4.89,0,0,1-1.55,1.09A4.29,4.29,0,0,1,38.16,20.72Z"/></g><g id="Layer0_111_MEMBER_0_MEMBER_0_MEMBER_6_FILL" data-name="Layer0 111 MEMBER 0 MEMBER 0 MEMBER 6 FILL"><path class="cls-14" d="M39.71,6.75a4.54,4.54,0,0,1,2.83.48,17.1,17.1,0,0,0-4.42.32l2.93.26a18.76,18.76,0,0,0-4,.72,8.66,8.66,0,0,1,2.28,0,10.44,10.44,0,0,0-2.72.73,4.72,4.72,0,0,1,2-.11,16.15,16.15,0,0,0-3.43.66,2.61,2.61,0,0,1,1.78.27,7,7,0,0,0-3.1.2,5.13,5.13,0,0,1,2,.27,4.72,4.72,0,0,0-1.73.58l.67-.06c.69-.2,1.38-.37,2.07-.52l.34,0,0,0c2.05-1.27,3.61-2.19,4.67-2.78.89-.5,1.48-.81,1.75-.93a11.78,11.78,0,0,0-3.93,0M8,13.31H8c.06.24.31.42.74.53-.69-1.09-.14-1.85,1.67-2.27l2.32.35a6.57,6.57,0,0,0-1.36,1.22,13.11,13.11,0,0,1,2.45-1.36,3.66,3.66,0,0,0-1.59,1.59,3.82,3.82,0,0,1,2-1.33,2.67,2.67,0,0,0-1.56,1.72,5.56,5.56,0,0,1,1.82-1.59l.37,0,.83-1.2,0,0A19.27,19.27,0,0,0,9.74,9.05q-3.66-.48-5.07.8Q2.2,12.67,7.79,15a3.72,3.72,0,0,1-.74-.51c.55.22.82.18.83-.1a2.15,2.15,0,0,0,.56.52A4.36,4.36,0,0,1,8,13.31Z"/></g><g id="Layer0_111_MEMBER_0_MEMBER_0_MEMBER_7_FILL" data-name="Layer0 111 MEMBER 0 MEMBER 0 MEMBER 7 FILL"><path class="cls-17" d="M44.51,6.55a1.12,1.12,0,0,1,.43-.06l0,0a6.57,6.57,0,0,0-2.35-.21A8.78,8.78,0,0,1,44,6.7a5.3,5.3,0,0,0,.54-.16Z"/></g><g id="Layer0_111_MEMBER_0_MEMBER_0_MEMBER_8_FILL" data-name="Layer0 111 MEMBER 0 MEMBER 0 MEMBER 8 FILL"><path class="cls-18" d="M47.84,15a1.13,1.13,0,0,0,.45.25,2.68,2.68,0,0,1-.45-.27v0m-6.12,9.2a2.85,2.85,0,0,1,.54.32,1.14,1.14,0,0,0-.09-.26,1.88,1.88,0,0,0-.24-.36,3,3,0,0,0-.89-.62,4.19,4.19,0,0,1-.49-.15,4.09,4.09,0,0,1-1.29-.89l-.15-.16c0,.06.07.12.11.17a5.09,5.09,0,0,0,2,1.79,3.1,3.1,0,0,0,.5.16m-4.61,2.21-.77.94c-.22.26.21.3,1.28.12h0l.46.07.47.07h.12v0a3.72,3.72,0,0,0,.77-.48,11.71,11.71,0,0,0,1-.9c.2-.19.41-.39.63-.62l-.1,0-.79-.29a5.85,5.85,0,0,1-.61.61,5.13,5.13,0,0,1-.46.38v0a.77.77,0,0,0-.9.19,1.4,1.4,0,0,1-.29.16.71.71,0,0,1-.68-.13l-.09-.07-.11-.07M35.47,23h0a7.76,7.76,0,0,0-.59-1,3.24,3.24,0,0,0-.39-.47,12.7,12.7,0,0,1,.6,1.22l.12.28s.11,0,.25,0M45.24,9.5a1.24,1.24,0,0,1,.1-.22v0h0l0-.13-.62,1a5,5,0,0,0-.19.82c-.07.26-.13.51-.19.73l.06.07.06.07.26.24.08,0a1,1,0,0,1,0-.3l0-.38a8.56,8.56,0,0,1,.25-1.34l.09-.27.1-.33m-19.67,17-.49-.6.09.13c.07.08.16.21.3.4a11.49,11.49,0,0,0,.78,1,5.64,5.64,0,0,1,1.28,1.26h0a4,4,0,0,1,1.41.95l.05.05.12,0a4.65,4.65,0,0,0-.84-.94,4.05,4.05,0,0,0-1.42-1h0a5.24,5.24,0,0,0-1.28-1.25m-6.4-7,0,0,0,0L19,19.35l0,0a3.69,3.69,0,0,1,.17.82v.23s0,.07,0,.11a4,4,0,0,0,.5,1.21,12.36,12.36,0,0,0,.71,1.1c.17.26.36.51.56.76a5.89,5.89,0,0,1-1.11-2.26l0-.24a3.86,3.86,0,0,0-.16-.81,5.49,5.49,0,0,0-.55-.81m11.72-7.66a11.6,11.6,0,0,1-3.29-.38l-4.92-2V9.42l-.91-.09a10.7,10.7,0,0,0-3.94.1A10,10,0,0,0,15.69,11l0,0h0l-.83,1.2H14.8a2.9,2.9,0,0,0-.25,1l0,.55A3.59,3.59,0,0,0,15.06,16l0,.06a3.1,3.1,0,0,0,.49.64,4,4,0,0,1-.38-2v-.35a2.39,2.39,0,0,1,.15-.37h.08l.83-1.2h0l0,0a9.47,9.47,0,0,1,2.14-1.54,10.86,10.86,0,0,1,3.93-.1l.91.1v0l4.93,2a11.18,11.18,0,0,0,3.28.38c.9-.07,1.55-.13,1.94-.18h.08l.36-.12a3,3,0,0,1,2.29-.89,6,6,0,0,0-1.86.75c.33-.11.7-.21,1.08-.32.69-.19,1.38-.37,2.08-.51l.33,0,0,0c1.15-.71,2.15-1.32,3-1.82a26.29,26.29,0,0,1,2-1.85l.08-.07a12.32,12.32,0,0,1,1.41-1l-.93.76-.06.05c.53-.28.89-.47,1.09-.55a.5.5,0,0,1,.21-.07l.11,0a3.88,3.88,0,0,0,.53-.16v0h0l.24,0h.18l0,0-.07-.17a2.71,2.71,0,0,1-.18-.46,1.33,1.33,0,0,1-.05-.19,1.28,1.28,0,0,1,0-.43,2,2,0,0,1-.18-.57,5.78,5.78,0,0,1,.85.6A4.12,4.12,0,0,1,47,6.88a2.93,2.93,0,0,0-.4-.63,4.42,4.42,0,0,0-2-1.28,1.62,1.62,0,0,0,.18,1.3l.08.18,0,0a1.12,1.12,0,0,0-.43.06h0A5.3,5.3,0,0,1,44,6.7h-.1a.75.75,0,0,0-.22.07c-.27.12-.86.43-1.75.93-1.06.59-2.62,1.51-4.67,2.78l0,0-.34,0c-.69.15-1.38.32-2.07.52s-1.32.38-1.87.58h-.09c-.39,0-1,.11-1.93.18M21.68,9.71h0a13,13,0,0,0-3,.38,4,4,0,0,1,3-.39m12.69,2.58c-.19.11-.39.24-.58.37a1.82,1.82,0,0,1,.15-.23,3,3,0,0,1,2.29-.89,6.21,6.21,0,0,0-1.86.75m-2.7,1.22h-.3a13.35,13.35,0,0,1-7.23-2.67,30.46,30.46,0,0,0,7.25,2.62Z"/><path class="cls-19" d="M23.23,11.19v0l-.91-.1a10.86,10.86,0,0,0-3.93.1,9.47,9.47,0,0,0-2.14,1.54l0,0h0l-.83,1.2h-.08a2.39,2.39,0,0,0-.15.37v.35a4,4,0,0,0,.38,2,4.1,4.1,0,0,0,2,1.05l.93.84,0,0h0a4.47,4.47,0,0,1,.53.77l.16.14,0,0,0,0a5.49,5.49,0,0,1,.55.81,3.86,3.86,0,0,1,.16.81l0,.24A5.89,5.89,0,0,0,21,23.61a17.84,17.84,0,0,0,2.19,2.27l.07.07a5,5,0,0,0,1.16,1.17A7.12,7.12,0,0,1,26,28.83l0,0h0c.28.44.57.65.87.64a1.43,1.43,0,0,1,1,.41L29,29.69,29,29.64a4,4,0,0,0-1.41-.95h0a5.64,5.64,0,0,0-1.28-1.26,11.49,11.49,0,0,1-.78-1c-.14-.19-.23-.32-.3-.4l-.09-.13-.29-.38-.29-.41L24.41,25a.74.74,0,0,0-.06-.14l-.06-.14Q23,21.84,24.23,20.3c.13-.22.23-.41.31-.57A5.93,5.93,0,0,0,25,18.37a12.49,12.49,0,0,0,5.78,2.35l0,0,.88.13c.9.12,1.65.19,2.23.22a2.17,2.17,0,0,0-.76-.85h0a2,2,0,0,1,1,.86c.09.13.18.28.28.45a3.24,3.24,0,0,1,.39.47,7.76,7.76,0,0,1,.59,1c.16,0,.41.09.75.19.49.16.92.32,1.31.47l.06,0,.74.29c.54.23,1.22.48,2,.77l1,.35-.49.21-.46-.16-.19.23.79.29.1,0,.06-.06a3,3,0,0,0,.52-.47l.52.1a1.42,1.42,0,0,0,0-.71,2.85,2.85,0,0,0-.54-.32,3.1,3.1,0,0,1-.5-.16,5.09,5.09,0,0,1-2-1.79c0-.05-.07-.11-.11-.17l-.33-.41a6.44,6.44,0,0,1-.5-.78l-.12-.17a4.29,4.29,0,0,0,.48-.17,4.89,4.89,0,0,0,1.55-1.09l.29-.5a3.19,3.19,0,0,0,1.34-2.24l0-.11h0l.45-1.36c.18-.69.46-1.61.84-2.77.13-.38.35-1.2.66-2.43A6.42,6.42,0,0,1,44,9.22l.63-1,0,.12h0v0h0l-.08.21-.1.33a7.7,7.7,0,0,0-.37,2,.86.86,0,0,0,.07.57l.07.13.06.09c.06-.22.12-.47.19-.73a5,5,0,0,1,.19-.82l.62-1,0,.13h0v0a1.24,1.24,0,0,0-.1.22l-.1.33-.09.27a8.56,8.56,0,0,0-.25,1.34l0,.38a1,1,0,0,0,0,.3l.22.12a1.34,1.34,0,0,0,.54.13,3.23,3.23,0,0,0,.58.8,5.68,5.68,0,0,0,1.65,1.23,1,1,0,0,0,.09.58,2.68,2.68,0,0,0,.45.27.87.87,0,0,0,.57-.05,1.08,1.08,0,0,0,.15-.26.57.57,0,0,0,.65.14,3.13,3.13,0,0,0,.9-.95,2.44,2.44,0,0,0,.14-.28c-.67-1.39-1.29-2.65-1.86-3.76a18.7,18.7,0,0,0-1.62-2.72,3.58,3.58,0,0,0-.2-.49,4.12,4.12,0,0,0-1.08-.74,3.88,3.88,0,0,1,.91,1.13l-1-.28-.05-.07,0,0a3.66,3.66,0,0,1-.49-.78,1.28,1.28,0,0,0,0,.43,1.33,1.33,0,0,0,.05.19,2.71,2.71,0,0,0,.18.46l.07.17,0,0h-.18l-.24,0h0v0a3.88,3.88,0,0,1-.53.16l-.11,0a.5.5,0,0,0-.21.07c-.2.08-.56.27-1.09.55-.71.61-1.42,1.25-2.12,1.93S39.72,11.57,39,12.33v0c.61-.71,1.19-1.36,1.74-1.93-.84.5-1.84,1.11-3,1.82l0,0-.33,0c-.7.14-1.39.32-2.08.51-.38.11-.75.21-1.08.32a6,6,0,0,1,1.86-.75,3,3,0,0,0-2.29.89l-.36.12h-.08c-.39.05-1,.11-1.94.18a11.18,11.18,0,0,1-3.28-.38l-4.93-2M40.4,18.56a7.67,7.67,0,0,0,.19-.82l0-.25a8,8,0,0,0,0-2.29,3.65,3.65,0,0,1,.28,2.15l-.09.35a4.35,4.35,0,0,1-.4.86m9.82-4.88,0,0,0,.06a.13.13,0,0,1,0,.06.2.2,0,0,1,0,.08l-.06,0L50,14a.19.19,0,0,1-.12,0l0,0,0,0s0-.07,0-.15a.56.56,0,0,1,.11-.15l0-.08.07,0h.06Z"/></g><g id="Layer0_111_MEMBER_0_MEMBER_0_MEMBER_9_FILL" data-name="Layer0 111 MEMBER 0 MEMBER 0 MEMBER 9 FILL"><path class="cls-13" d="M40.61,15.2a8,8,0,0,1,0,2.29l0,.25a7.67,7.67,0,0,1-.19.82,4.35,4.35,0,0,0,.4-.86l.09-.35a3.65,3.65,0,0,0-.28-2.15m-9.24-1.7h.3l-.28-.06a30.46,30.46,0,0,1-7.25-2.62,13.35,13.35,0,0,0,7.23,2.67M39,12.31v0A46.85,46.85,0,0,1,43.29,8.2l.93-.76a12.32,12.32,0,0,0-1.41,1A33.14,33.14,0,0,0,39,12.31m-2.8-.77a2.74,2.74,0,0,0-2.44,1.12,6.85,6.85,0,0,1,2.44-1.12M21.7,9.72h0a4,4,0,0,0-3,.39A13,13,0,0,1,21.7,9.72Z"/></g><g id="Layer0_112_MEMBER_0_MEMBER_0_MEMBER_0_FILL" data-name="Layer0 112 MEMBER 0 MEMBER 0 MEMBER 0 FILL"><path class="cls-10" d="M48.82,13.64v0a.32.32,0,0,0-.07-.22.3.3,0,0,0-.2-.13h-.11a.32.32,0,0,0-.28.26.39.39,0,0,0,.06.26.3.3,0,0,0,.21.13h0a.31.31,0,0,0,.21-.07A.27.27,0,0,0,48.82,13.64Z"/></g><g id="Layer0_112_MEMBER_0_MEMBER_0_MEMBER_1_FILL" data-name="Layer0 112 MEMBER 0 MEMBER 0 MEMBER 1 FILL"><path d="M43.88,6.72a1.52,1.52,0,0,0-.64.26,52.8,52.8,0,0,0,4.85,6.62l-.87.9.38.28.88-.87h0a.3.3,0,0,1-.21-.13.39.39,0,0,1-.06-.26.32.32,0,0,1,.28-.26h.11a.3.3,0,0,1,.2.13.32.32,0,0,1,.07.22,5.86,5.86,0,0,1,1.24-.85l-.23-.36a4.26,4.26,0,0,0-1.29.77A26.38,26.38,0,0,1,43.88,6.72Z"/></g><path class="cls-11" d="M48.47,14h0a.35.35,0,0,1-.24-.15.4.4,0,0,1-.07-.3.34.34,0,0,1,.17-.24.25.25,0,0,1,.16-.06h.11a.39.39,0,0,1,.25.15.41.41,0,0,1,.07.25v0a.32.32,0,0,1-.15.24.35.35,0,0,1-.24.08Zm.08-.66s-.07,0-.08,0a.28.28,0,0,0-.13,0,.27.27,0,0,0-.12.18.29.29,0,0,0,.05.22.23.23,0,0,0,.18.11h0a.27.27,0,0,0,.17-.06.23.23,0,0,0,.11-.17v0a.28.28,0,0,0-.06-.18A.25.25,0,0,0,48.55,13.3Z"/><g id="Layer0_113_MEMBER_0_MEMBER_0_MEMBER_0_FILL" data-name="Layer0 113 MEMBER 0 MEMBER 0 MEMBER 0 FILL"><path class="cls-20" d="M25.29,10.29a6.63,6.63,0,0,0-.94,6.16q1,.63,6.69,1.59c-.21-.14-.1-1,.34-2.69a12.87,12.87,0,0,1,2.27-4.21,5.22,5.22,0,0,1-3.36.13A13.14,13.14,0,0,1,25.29,10.29Z"/></g><g id="Layer0_114_MEMBER_0_MEMBER_0_MEMBER_0_FILL" data-name="Layer0 114 MEMBER 0 MEMBER 0 MEMBER 0 FILL"><path class="cls-11" d="M29.52,11.58l0,.06.27,0,0-.07h.08l.9-.58h-.2c-1.81,0-3-.33-3.64-.9-.54-.31-.62-.25-.22.17l0,0A3.9,3.9,0,0,0,29.52,11.58Z"/></g><g id="Layer0_115_FILL" data-name="Layer0 115 FILL"><path class="cls-21" d="M33.38,11.21l-1.92.25a16,16,0,0,1-1.79,10.3l1.64.4A15.26,15.26,0,0,0,33.38,11.21Z"/></g><g id="Layer0_117_FILL" data-name="Layer0 117 FILL"><path class="cls-22" d="M26.16,7l.23.31A10.27,10.27,0,0,0,27.7,8.73l1.7-.92.35-.16a6.11,6.11,0,0,1,1.12-.38,10.54,10.54,0,0,0,5.32-2c.23-.1.43-.2.6-.29l0-.34V4.2A.46.46,0,0,0,36.18,4L36,3.56a.3.3,0,0,0,0-.15q-.47-1.2-4.2-.53a10.26,10.26,0,0,0-6,2.54l.28.85-.27,0A4.05,4.05,0,0,0,26.16,7Z"/><path class="cls-7" d="M25.56,4.69l-.09.1.09.08.12.34c-.05.08-.17.26-.37.52l.41-.42,0,.11a10.26,10.26,0,0,1,6-2.54q3.74-.67,4.2.53a.3.3,0,0,1,0,.15l.14.41a.46.46,0,0,1,.56.23,1.73,1.73,0,0,0-.17-.75A.45.45,0,0,0,36,3.21l-.14-.41a.3.3,0,0,0,0-.15c-.31-.8-1.71-1-4.2-.53A10.19,10.19,0,0,0,25.56,4.69Z"/></g><g id="Layer0_118_MEMBER_0_MEMBER_0_MEMBER_0_FILL" data-name="Layer0 118 MEMBER 0 MEMBER 0 MEMBER 0 FILL"><path class="cls-11" d="M30.51,10.86l0,1.06.08,4.39c.08-.13.16-.2.25-.21Z"/></g><g id="Layer0_118_MEMBER_0_MEMBER_0_MEMBER_1_FILL" data-name="Layer0 118 MEMBER 0 MEMBER 0 MEMBER 1 FILL"><path class="cls-23" d="M30.55,16.31a1.15,1.15,0,0,0-.14.27L30.3,18q0,.18.24.15c.38.27.82.06,1.31-.65a.39.39,0,0,0,0-.45L31,16.17l-.06,0a.22.22,0,0,0-.13,0c-.09,0-.17.08-.25.21m.34.16.77.88a2.79,2.79,0,0,1-1.11.51,3.18,3.18,0,0,1,.12-1.27Z"/></g><g id="Layer0_119_FILL" data-name="Layer0 119 FILL"><path class="cls-10" d="M29.27,18.26l.41,0a4.51,4.51,0,0,0,1.75-.55.22.22,0,0,0,.08-.22,4.54,4.54,0,0,1-2.07.7l-.9-.09-.74.18a6.54,6.54,0,0,1-.8.15l.06.27,1.23-.31.24-.23Z"/><path class="cls-11" d="M30.11,17.18l.13.09,1.17.07a.84.84,0,0,0-.28-.09l-1-.07M28.47,13A2.31,2.31,0,0,1,29,13a2,2,0,0,0-.49-.11,2.86,2.86,0,0,0-.87,0,25.75,25.75,0,0,0-.44,3.28l0,.67v.07A2.11,2.11,0,0,0,27,18.4a6.54,6.54,0,0,0,.8-.15,1.87,1.87,0,0,1,.18-1.2V17l.05-.67A24.06,24.06,0,0,1,28.47,13Z"/><path class="cls-24" d="M29.62,13.28A2.63,2.63,0,0,0,29,13a2.31,2.31,0,0,0-.52.06A24.06,24.06,0,0,0,28,16.31L28,17v.07a1.87,1.87,0,0,0-.18,1.2l.74-.18.9.09a4.54,4.54,0,0,0,2.07-.7.23.23,0,0,0-.1-.12l-1.17-.07-.13-.09-.71,0a1.48,1.48,0,0,1-.65-.64h0l.15-.66C29.12,14.9,29.36,14,29.62,13.28Z"/><path class="cls-8" d="M28.94,10.45l-.67,0,.06,0a17.66,17.66,0,0,0-.7,2.46,2.86,2.86,0,0,1,.87,0,17.6,17.6,0,0,1,.67-2.3l-.23-.11m-.33-3.06h.16l-.36-.15.2.14m-.1,0-.19-.11h-.19l.38.1m-2.64-2a5.32,5.32,0,0,1-.17-.78A4.53,4.53,0,0,0,24,8.2c.09,1.15,1.17,1.84,3.22,2.06-1.51-.31-2.3-.95-2.38-1.93A4.64,4.64,0,0,1,25.87,5.34Z"/><path class="cls-25" d="M25.87,5.34a4.64,4.64,0,0,0-1,3c.08,1,.87,1.62,2.38,1.93q.42,0,.9.06l.16.09.67,0,.23.11a17.6,17.6,0,0,0-.67,2.3A2,2,0,0,1,29,13a2.63,2.63,0,0,1,.63.31l1.49-3H31Q32.3,9,28.94,7.51l-.07-.07-.1,0h-.16l.48.31-.58-.32-.38-.1C27,7.31,26.24,6.66,25.87,5.34Z"/></g><g id="Layer0_120_MEMBER_0_MEMBER_0_FILL" data-name="Layer0 120 MEMBER 0 MEMBER 0 FILL"><path class="cls-7" d="M47.37,12.75a.4.4,0,0,1,.3-.07.38.38,0,0,1,.26.16.41.41,0,0,1,.08.3.47.47,0,0,1-.16.27.49.49,0,0,1-.31.07.4.4,0,0,1-.26-.16.49.49,0,0,1-.08-.21l-.19,0a.52.52,0,0,0,.12.34.56.56,0,0,0,.4.25.58.58,0,0,0,.46-.11.69.69,0,0,0,.25-.4.62.62,0,0,0-.12-.46.55.55,0,0,0-.4-.24.62.62,0,0,0-.46.1.57.57,0,0,0-.21.29l.21,0a.6.6,0,0,1,.11-.12M31.76,4.54a1.77,1.77,0,0,0-.46,0c-.5.7-1,1.43-1.43,2.2h0a.81.81,0,0,0-.13.34v.07c-.07.28.11.64.52,1.08a12.57,12.57,0,0,0,2.05,1.59,1.05,1.05,0,0,1,0-.19,1.84,1.84,0,0,1,.59-.88c-.22-.45-.4-.77-.53-1A7.12,7.12,0,0,1,32,7l1.26-1.28a1.71,1.71,0,0,0-1.15-1.09l-.31,0m.15,2.3h0Z"/><path d="M36.24,10.76a.22.22,0,0,1-.13.09q3,.74,10.9,2.22l.19,0,.1,0,0-.23-.07,0-.21,0Z"/><path class="cls-26" d="M33.38,10.28l0,.14.84.5.51.6.53.24c.19,0,.28,0,.27-.08h0c.14,0,.19-.07.16-.13h0c.15,0,.22-.08.22-.19h0c.13-.06.2-.14.2-.24h0l-.1-.23.07,0a.22.22,0,0,0,.13-.09h0l-.79-.62-.7-.07h0l-.82-.55A.93.93,0,0,0,33.38,10.28Z"/><path class="cls-8" d="M33.35,10.42l0-.14-.33-.17a.9.9,0,0,0-.18-.1l-.17-.12-.37-.25a1.05,1.05,0,0,0,0,.19l.17.11.18.11.72.37m.44-7.87a1.33,1.33,0,0,0-1.06.13c-.51.62-1,1.24-1.43,1.86a1.77,1.77,0,0,1,.46,0c.43-.6.89-1.2,1.39-1.8A1.71,1.71,0,0,1,33.79,2.55Z"/><path class="cls-25" d="M33.19,9l-.27-.21a1.84,1.84,0,0,0-.59.88l.37.25.17.12a.9.9,0,0,1,.18.1l.33.17a.93.93,0,0,1,.54-.77c-.28-.19-.52-.38-.73-.54m.6-6.42a1.71,1.71,0,0,0-.64.19c-.5.6-1,1.2-1.39,1.8l.31,0a1.71,1.71,0,0,1,1.15,1.09l.25-.26c.86-.92,1.21-1.58,1.06-2A1.48,1.48,0,0,0,33.79,2.55Z"/></g><g id="Layer0_146_MEMBER_0_MEMBER_0_MEMBER_0_MEMBER_0_FILL" data-name="Layer0 146 MEMBER 0 MEMBER 0 MEMBER 0 MEMBER 0 FILL"><path class="cls-27" d="M46.39,9.29a2,2,0,0,1,.93-.23,1.13,1.13,0,0,0-1.09-.53A.54.54,0,0,0,46.39,9.29Z"/></g><g id="Layer0_146_MEMBER_0_MEMBER_1_MEMBER_0_FILL" data-name="Layer0 146 MEMBER 0 MEMBER 1 MEMBER 0 FILL"><path d="M45.84,8.61h0l.26,0a.58.58,0,0,0,.17.7,1.21,1.21,0,0,0-.35.24.05.05,0,0,0,0,0,0,0,0,0,0,0,0l0,0h0a1.33,1.33,0,0,1,.39-.26h0a2,2,0,0,1,.9-.22h0l0,0a.06.06,0,0,0,0,0,1.16,1.16,0,0,0-1.13-.55h0a1.64,1.64,0,0,0-.38,0s0,0,0,0v0s0,0,0,0m.56.62a.48.48,0,0,1-.14-.65,1.07,1.07,0,0,1,1,.43A1.94,1.94,0,0,0,46.4,9.23Z"/></g><g id="Layer0_146_MEMBER_1_MEMBER_0_MEMBER_0_MEMBER_0_FILL" data-name="Layer0 146 MEMBER 1 MEMBER 0 MEMBER 0 MEMBER 0 FILL"><path d="M47.13,8.8a1.42,1.42,0,0,0-.55-.27.32.32,0,0,0-.08.13.34.34,0,0,0,0,.08.41.41,0,0,0,0,.16h0a.29.29,0,0,0,.18.19.31.31,0,0,0,.25,0,.25.25,0,0,0,.16-.17A.28.28,0,0,0,47.13,8.8Z"/></g><g id="Face_0_Layer0_0_MEMBER_0_FILL" data-name="Face 0 Layer0 0 MEMBER 0 FILL"><path class="cls-28" d="M36.69,4a1.11,1.11,0,0,0-.23-.72.67.67,0,0,0-.55-.31.83.83,0,0,0-.62.28.94.94,0,0,0-.17.9,1.05,1.05,0,0,0,.53.79,1.25,1.25,0,0,0,.71.15.33.33,0,0,0,.32-.36C36.67,4.48,36.68,4.24,36.69,4Z"/></g><g id="Face_0_Layer0_0_MEMBER_1_MEMBER_0_MEMBER_0_MEMBER_0_FILL" data-name="Face 0 Layer0 0 MEMBER 1 MEMBER 0 MEMBER 0 MEMBER 0 FILL"><path class="cls-29" d="M35.39,2.92h0l-.16,0V3h.17Z"/></g><g id="Face_0_Layer0_0_MEMBER_1_MEMBER_0_MEMBER_0_MEMBER_1_FILL" data-name="Face 0 Layer0 0 MEMBER 1 MEMBER 0 MEMBER 0 MEMBER 1 FILL"><path class="cls-30" d="M35.56,4.61l.7.21L36.15,4a2.1,2.1,0,0,1-.59-1,.13.13,0,0,0,0-.06l-.16,0,0,.48A1.6,1.6,0,0,0,35.56,4.61Z"/></g><g id="Face_0_Layer0_0_MEMBER_1_MEMBER_0_MEMBER_0_MEMBER_2_FILL" data-name="Face 0 Layer0 0 MEMBER 1 MEMBER 0 MEMBER 0 MEMBER 2 FILL"><path class="cls-31" d="M36.64,3.1h0L35.83,3c.2.67.43,1,.7.84h0a.7.7,0,0,0,.08-.14A.71.71,0,0,0,36.64,3.1Z"/></g><g id="Face_0_Layer0_0_MEMBER_1_MEMBER_0_MEMBER_0_MEMBER_3_FILL" data-name="Face 0 Layer0 0 MEMBER 1 MEMBER 0 MEMBER 0 MEMBER 3 FILL"><path class="cls-32" d="M36.65,4l-.14.12V5a.69.69,0,0,0,0,.13,1.15,1.15,0,0,0,.54.4c.18,0,.26-.08.24-.2s0-.16.06-.18.21-.06.19-.12a.18.18,0,0,0,0-.09c.1,0,.16,0,.19-.13l.16-.18a.56.56,0,0,0,.29.16q.12,0,.12-.3l0-.37a1.45,1.45,0,0,1-.74-.1,5.25,5.25,0,0,1-.69-.75A.8.8,0,0,1,36.65,4Z"/></g><g id="Face_0_Layer0_0_MEMBER_1_MEMBER_0_MEMBER_0_MEMBER_4_FILL" data-name="Face 0 Layer0 0 MEMBER 1 MEMBER 0 MEMBER 0 MEMBER 4 FILL"><path d="M35.55,3a.13.13,0,0,1,0,.06,2.1,2.1,0,0,0,.59,1l.11.85v0a.42.42,0,0,0,.3.31.69.69,0,0,1,0-.13V4.15L36.65,4a.8.8,0,0,0,.26-.73,5.25,5.25,0,0,0,.69.75,1.45,1.45,0,0,0,.74.1l0-.13,0-.1a1.31,1.31,0,0,1-.85-.31c0-.23,0-.37.06-.43l-1-.08a.71.71,0,0,1,0,.59.7.7,0,0,1-.08.14h0c-.27.11-.5-.17-.7-.84Z"/></g><g id="Face_0_Layer0_0_MEMBER_1_MEMBER_0_MEMBER_0_MEMBER_5_FILL" data-name="Face 0 Layer0 0 MEMBER 1 MEMBER 0 MEMBER 0 MEMBER 5 FILL"><path class="cls-9" d="M37.58,3.61a1.31,1.31,0,0,0,.85.31h0A2,2,0,0,0,39,3.19c-.5,0-1,0-1.36,0C37.57,3.24,37.55,3.38,37.58,3.61Z"/></g><g id="Face_0_Layer0_0_MEMBER_1_MEMBER_0_MEMBER_0_MEMBER_6_FILL" data-name="Face 0 Layer0 0 MEMBER 1 MEMBER 0 MEMBER 0 MEMBER 6 FILL"><path class="cls-33" d="M40.33,3.06c0-.09-.29-.17-.77-.22s-1.13.05-1.67,0a10.42,10.42,0,0,1-1.31-.1,10,10,0,0,1-1.37-.25l-.31-.09,0,.36.08.05.38.07h0l.44.08.77.1h0l1,.08c.41,0,.86,0,1.36,0h.43Q40.39,3.21,40.33,3.06Z"/></g><g id="Face_0_Layer0_0_MEMBER_1_MEMBER_0_MEMBER_0_MEMBER_7_FILL" data-name="Face 0 Layer0 0 MEMBER 1 MEMBER 0 MEMBER 0 MEMBER 7 FILL"><path class="cls-34" d="M39.56,2.84l0-.25c-.41,0-.8,0-1.16,0a16.7,16.7,0,0,1-1.81-.11L35.11,2.3l-.21,0a0,0,0,0,1,0,.05v.13l.31.09a10,10,0,0,0,1.37.25,10.42,10.42,0,0,0,1.31.1C38.43,2.89,39,2.88,39.56,2.84Z"/></g><g id="Face_0_Layer0_0_MEMBER_1_MEMBER_0_MEMBER_0_MEMBER_8_FILL" data-name="Face 0 Layer0 0 MEMBER 1 MEMBER 0 MEMBER 0 MEMBER 8 FILL"><path class="cls-35" d="M39.53,2.59a1.6,1.6,0,0,0,0-.31A2.34,2.34,0,0,0,38.76.62a2,2,0,0,0-.52-.37A2.1,2.1,0,0,0,37.16,0h-.07a2,2,0,0,0-.66.13,2.19,2.19,0,0,0-.94.66,2.66,2.66,0,0,0-.24.32l-.18.37a2.47,2.47,0,0,0-.17.77l.21,0,1.45.21a16.7,16.7,0,0,0,1.81.11C38.73,2.63,39.12,2.61,39.53,2.59Z"/></g><g id="Face_0_Layer0_0_MEMBER_2_MEMBER_0_MEMBER_0_MEMBER_0_FILL" data-name="Face 0 Layer0 0 MEMBER 2 MEMBER 0 MEMBER 0 MEMBER 0 FILL"><path class="cls-36" d="M38.44,3.93v0A1.76,1.76,0,0,0,39,3.19c-.43,0-.88,0-1.36,0-.07.06-.09.21-.06.44A1.32,1.32,0,0,0,38.44,3.93Z"/></g></g></g></g></svg>