<svg xmlns="http://www.w3.org/2000/svg" xmlns:xlink="http://www.w3.org/1999/xlink" viewBox="0 0 46.79 39.74"><defs><style>.cls-1{fill:none;stroke:#bb6929;stroke-miterlimit:10;stroke-width:0.8px;}.cls-2{fill:#318a42;}.cls-3{fill:#eeedee;}.cls-4{fill:#794fa0;}.cls-5{fill:#fdd2b7;}.cls-6{fill:#272626;}.cls-7{fill:#333;}.cls-8{fill:#4b2a78;}.cls-9{fill:#2a2626;}.cls-10{fill:#120d0c;}.cls-11{fill:#472212;}.cls-12{fill:#010101;}.cls-13{fill:#1f1b1b;}.cls-14{fill:#231b14;}.cls-15{fill:#4b4646;}.cls-16{fill:#352f2f;}.cls-17{fill:url(#linear-gradient);}.cls-18{fill:#21120b;}.cls-19{fill:#ccc;}.cls-20{fill:url(#linear-gradient-2);}.cls-21{fill:#1c1c1c;}.cls-22{fill:#663795;}.cls-23{fill:url(#linear-gradient-3);}.cls-24{fill:#fff;}.cls-25{fill:#989898;}.cls-26{fill:#301111;}.cls-27{fill:url(#linear-gradient-4);}.cls-28{fill:url(#linear-gradient-5);}.cls-29{fill:url(#linear-gradient-6);}.cls-30{fill:url(#radial-gradient);}.cls-31{fill:#ffcd05;}.cls-32{fill:url(#radial-gradient-2);}.cls-33{fill:url(#radial-gradient-3);}</style><linearGradient id="linear-gradient" x1="72.25" y1="111.87" x2="72.89" y2="104.15" gradientTransform="matrix(0.99, 0.15, 0.15, -0.99, -63.16, 110.35)" gradientUnits="userSpaceOnUse"><stop offset="0" stop-color="#fee258"/><stop offset="0.58" stop-color="#fbf49c"/><stop offset="1" stop-color="#b8962f"/></linearGradient><linearGradient id="linear-gradient-2" x1="-62.74" y1="21.05" x2="11.44" y2="4.95" gradientTransform="translate(38.56 9.14) rotate(8.62)" gradientUnits="userSpaceOnUse"><stop offset="0" stop-color="#fff"/><stop offset="1" stop-color="#c2c1c1"/></linearGradient><linearGradient id="linear-gradient-3" x1="-8.13" y1="227.94" x2="-6.27" y2="228.43" gradientTransform="matrix(0.99, 0.15, 0.15, -0.99, 3.98, 237.29)" gradientUnits="userSpaceOnUse"><stop offset="0" stop-color="#fdd2b7"/><stop offset="1" stop-color="#f68c47"/></linearGradient><linearGradient id="linear-gradient-4" x1="-164.57" y1="1335.12" x2="-165.96" y2="1334.44" gradientTransform="matrix(1, -0.06, -0.06, -1, 270.86, 1327.34)" xlink:href="#linear-gradient-3"/><linearGradient id="linear-gradient-5" x1="242.22" y1="1245.22" x2="241.31" y2="1244.78" gradientTransform="matrix(1, -0.06, -0.06, -1, -140.05, 1259.76)" xlink:href="#linear-gradient-3"/><linearGradient id="linear-gradient-6" x1="243.52" y1="1244.41" x2="241.86" y2="1243.59" gradientTransform="matrix(1, -0.06, -0.06, -1, -140.05, 1259.76)" xlink:href="#linear-gradient-3"/><radialGradient id="radial-gradient" cx="-198.37" cy="1366.6" r="3.71" gradientTransform="matrix(1, -0.06, -0.06, -1, 308.43, 1356.46)" gradientUnits="userSpaceOnUse"><stop offset="0" stop-color="#6168b0"/><stop offset="1" stop-color="#4b2a78"/></radialGradient><radialGradient id="radial-gradient-2" cx="-186.04" cy="1352.62" r="2.67" gradientTransform="matrix(1, -0.06, -0.06, -1, 293.89, 1341.69)" xlink:href="#radial-gradient"/><radialGradient id="radial-gradient-3" cx="-195.85" cy="1370.74" r="0.78" gradientTransform="matrix(1, -0.06, -0.06, -1, 305.88, 1361.2)" gradientUnits="userSpaceOnUse"><stop offset="0" stop-color="#663614"/><stop offset="1" stop-color="#010101"/></radialGradient></defs><g id="Layer_2" data-name="Layer 2"><g id="Layer_1-2" data-name="Layer 1"><path class="cls-1" d="M21.31,39.34s5.54-.57,5.36-7.92"/><path class="cls-1" d="M33.71,39.34s-5.54-.57-5.36-7.92"/><rect class="cls-2" x="8.36" y="31.46" width="38.2" height="1"/><g id="Layer0_109_MEMBER_0_MEMBER_0_MEMBER_0_FILL" data-name="Layer0 109 MEMBER 0 MEMBER 0 MEMBER 0 FILL"><path class="cls-3" d="M30.52,7.44a6.71,6.71,0,0,0,.9-1.06c-.55.37-1,.13-1.47-.73L29,7.41c-.27.24.06.6,1,1.09L31,9a.81.81,0,0,1,.62-.78Z"/></g><g id="Layer0_109_MEMBER_0_MEMBER_0_MEMBER_1_FILL" data-name="Layer0 109 MEMBER 0 MEMBER 0 MEMBER 1 FILL"><path class="cls-4" d="M31.64,9.3c0-.39.24-.6.67-.62l-.72-.49A.81.81,0,0,0,31,9l.67.33m-.22-2.92c.65-1,.67-1.67.07-1.94-.4-.08-.91.33-1.54,1.21C30.38,6.51,30.87,6.75,31.42,6.38Z"/></g><g id="Layer0_109_MEMBER_0_MEMBER_0_MEMBER_2_FILL" data-name="Layer0 109 MEMBER 0 MEMBER 0 MEMBER 2 FILL"><path class="cls-5" d="M32.87,9.17l-.56-.49c-.43,0-.66.23-.67.62l.38.16a.89.89,0,0,1,.34.17,1.9,1.9,0,0,0,.71.6l.07,0c0,.13.17.22.41.25s.15,0,.15-.17.2-.06.17-.2c.13,0,.17-.1.13-.22s.11-.22,0-.31c.26,0,.39,0,.38-.16l-.87-.31Z"/></g><g id="Layer0_110_MEMBER_0_MEMBER_0_MEMBER_0_FILL" data-name="Layer0 110 MEMBER 0 MEMBER 0 MEMBER 0 FILL"><path class="cls-6" d="M24,18.21l0,.27,1.27-.18.25-.19.73.21A4.81,4.81,0,0,0,28.47,18a.22.22,0,0,0,.09-.2,4.55,4.55,0,0,1-2.14.46L25.54,18A15.48,15.48,0,0,1,24,18.21Z"/></g><g id="Layer0_110_MEMBER_0_MEMBER_0_MEMBER_1_FILL" data-name="Layer0 110 MEMBER 0 MEMBER 0 MEMBER 1 FILL"><path class="cls-7" d="M26.14,15.86c.31-.87.64-1.69,1-2.46l-1.94-.61A25.72,25.72,0,0,0,24.41,16l-.12.67v.07A2.18,2.18,0,0,0,24,18.21,15.48,15.48,0,0,0,25.54,18l.88.19a4.55,4.55,0,0,0,2.14-.46c0-.11-.13-.19-.35-.25l-1.71-.31a1.46,1.46,0,0,1-.58-.7v0Q26,16.16,26.14,15.86Z"/></g><g id="Layer0_110_MEMBER_0_MEMBER_0_MEMBER_2_FILL" data-name="Layer0 110 MEMBER 0 MEMBER 0 MEMBER 2 FILL"><path class="cls-8" d="M25,7.22l-.48,3.21c.6.12,1.2.2,1.8.26a4.82,4.82,0,0,0-1.13,2.1,2.52,2.52,0,0,1,1.94.61,17.74,17.74,0,0,1,1.28-2.3l0,0c.91-1.42.11-2.55-2.38-3.39Z"/></g><g id="Layer0_111_MEMBER_0_MEMBER_0_MEMBER_0_FILL" data-name="Layer0 111 MEMBER 0 MEMBER 0 MEMBER 0 FILL"><path class="cls-9" d="M35.28,26.35v0h0v0m2.63-1.2.12.09v-.07l-.13,0M41.18,5.54A2.93,2.93,0,0,0,41.93,7l1,.28a4.38,4.38,0,0,0-1.76-1.73m5,8.09h-.05l-.06,0a.41.41,0,0,0-.11.15c-.05.08-.06.13-.05.15l0,0,0,0s.06,0,.12,0l.12-.05.06,0a.2.2,0,0,0,0-.08.13.13,0,0,0,0-.06l0-.06,0,0,0,0h0Z"/></g><g id="Layer0_111_MEMBER_0_MEMBER_0_MEMBER_1_FILL" data-name="Layer0 111 MEMBER 0 MEMBER 0 MEMBER 1 FILL"><path class="cls-10" d="M13.35,31.54a1.18,1.18,0,0,0-.51-1.09,1.33,1.33,0,0,1-1.41.12l0,.08.12.46a3.45,3.45,0,0,0,1.78.43m12.51-.73-.62-1.14L24,29.86a2.88,2.88,0,0,0,0,.7q0,.18.06.12a9.23,9.23,0,0,0,1.58.19q.36,0,.24-.06m7.34-4.4c-.6-.33-1.14-.1-1.62.71l0,.07.89.16.77-.94M42,32a4.13,4.13,0,0,0-.17-1.62l-1.22-.27c-.17.14-.22.4-.13.77A9.39,9.39,0,0,0,42,32Z"/></g><g id="Layer0_111_MEMBER_0_MEMBER_0_MEMBER_2_FILL" data-name="Layer0 111 MEMBER 0 MEMBER 0 MEMBER 2 FILL"><path class="cls-11" d="M34.81,27.66v0h-.06l0,.05,0,0m3.45-3.75H38a1.26,1.26,0,0,1,.24.36,1.39,1.39,0,0,0,0-.35m-.33-7.3,0,.11,0-.11h0m8.2-3,0,.08.06,0h0l-.07,0M11.78,11h0l0,0h0m7-1.5V9.43h0Z"/></g><g id="Layer0_111_MEMBER_0_MEMBER_0_MEMBER_3_FILL" data-name="Layer0 111 MEMBER 0 MEMBER 0 MEMBER 3 FILL"><path class="cls-12" d="M31.58,27.12c.48-.81,1-1,1.62-.71l.15-.2c-.76-.58-1.43-.27-2,.94l.2,0Z"/></g><g id="Layer0_111_MEMBER_0_MEMBER_0_MEMBER_4_FILL" data-name="Layer0 111 MEMBER 0 MEMBER 0 MEMBER 4 FILL"><path class="cls-13" d="M38.26,23.91a1.39,1.39,0,0,1,0,.35,1.38,1.38,0,0,1,.1,1L38,25.17v.07a6.76,6.76,0,0,1,1.08,1.16,14.91,14.91,0,0,1,1.12,1.46l.12,0-.08.15.15,1a2.94,2.94,0,0,1,.2,1.13l1.22.27a2.81,2.81,0,0,1-.15-1.81l-.11-.19-.12-.2.16.17c.1-.67-.42-1.63-1.55-2.91A3.31,3.31,0,0,0,38.75,24l0,0a1.58,1.58,0,0,0-.79-.69,9.87,9.87,0,0,0-1.3-.21,4.93,4.93,0,0,0,.5.15,2.87,2.87,0,0,1,.88.62h.25M21.13,20l2.25,1a9.79,9.79,0,0,0,2.17.65l.69.11.34,0a28.67,28.67,0,0,1,2.93.63l.48.11a6.71,6.71,0,0,0,.88.14c0,.09.09.24.18.45a7.14,7.14,0,0,0,1.33.51c.75.26,1.49.53,2.22.8l1.63.55a5.53,5.53,0,0,1-.8.74h-.06a1.36,1.36,0,0,0-1.1.45c-.43.21-.73.22-.92,0l-.15.2.11.07.09.07a.71.71,0,0,0,.68.13,1.12,1.12,0,0,0,.28-.16.79.79,0,0,1,.91-.19h0a6.31,6.31,0,0,0,1.27-1.22l.46.16.49-.21-1-.35c-.82-.29-1.5-.54-2-.77l-.74-.29-.06,0c-.39-.15-.82-.31-1.32-.47a7.44,7.44,0,0,0-.76-.19c-.13,0-.21,0-.24,0l-.12-.28A10.31,10.31,0,0,0,30.31,21a2,2,0,0,0-1-.86h0A2.17,2.17,0,0,1,30,21c-.58,0-1.33-.1-2.23-.22l-.89-.13v0a12.49,12.49,0,0,1-5.78-2.35,5.93,5.93,0,0,1-.49,1.36l.5.26M10.62,13.71a5.69,5.69,0,0,0-.07,2.89,18.45,18.45,0,0,1,.71,1.86,2.84,2.84,0,0,1-.14,2.12A8.79,8.79,0,0,1,9,23.12H9a1.3,1.3,0,0,0-.28,1.42A6.77,6.77,0,0,1,9,25.63l.1.57c0,.18.08.41.14.69s.12.52.21.82A10.47,10.47,0,0,0,9.87,29v.31a1.14,1.14,0,0,0,.28.68,2,2,0,0,0,.93.39l.35.16,0,.07a1.33,1.33,0,0,0,1.41-.12c0-.18-.3-.42-.92-.73a3.77,3.77,0,0,0-.78-.59q-.17-.78-.3-1.59a9.56,9.56,0,0,0-.4-1.67,2.36,2.36,0,0,1,.23-1.52,23.51,23.51,0,0,1,3.53-3.28,9,9,0,0,0,1.1-.87,3.69,3.69,0,0,0-.17-.82,4.42,4.42,0,0,0-.55-.8h0l-.93-.84A3.75,3.75,0,0,1,11.15,16,3.59,3.59,0,0,1,10.62,13.71Z"/></g><g id="Layer0_111_MEMBER_0_MEMBER_0_MEMBER_5_FILL" data-name="Layer0 111 MEMBER 0 MEMBER 0 MEMBER 5 FILL"><path class="cls-9" d="M40.72,8.19l-.63,1a6.42,6.42,0,0,0-.19.83c-.31,1.23-.53,2-.66,2.43-.38,1.16-.66,2.08-.84,2.77a20.41,20.41,0,0,0,1-2.17l.6-.83c.1-.14.37-.16.83-.07a.36.36,0,0,1,0-.11l-.26-.24a1.3,1.3,0,0,1-.18-.23l-.07-.13a.86.86,0,0,1-.07-.57,7.3,7.3,0,0,1,.37-2l.1-.33c.05-.14.09-.21.09-.22v0h0l0-.12M34.25,20.72l.12.17a6.44,6.44,0,0,0,.5.78,4.24,4.24,0,0,0,1.76,1.46,9.87,9.87,0,0,1,1.3.21L37.4,23a8.19,8.19,0,0,1-2.1-1.8,6.22,6.22,0,0,0,1-1.76,4.86,4.86,0,0,1-1.54,1.09A4.29,4.29,0,0,1,34.25,20.72Z"/></g><g id="Layer0_111_MEMBER_0_MEMBER_0_MEMBER_6_FILL" data-name="Layer0 111 MEMBER 0 MEMBER 0 MEMBER 6 FILL"><path class="cls-10" d="M35.8,6.75a4.54,4.54,0,0,1,2.83.48,17.07,17.07,0,0,0-4.42.32l2.93.26a18.76,18.76,0,0,0-4,.72,8.66,8.66,0,0,1,2.28,0,10.44,10.44,0,0,0-2.72.73,4.68,4.68,0,0,1,2-.11,16.17,16.17,0,0,0-3.42.66,2.61,2.61,0,0,1,1.78.27,7,7,0,0,0-3.1.2,5.13,5.13,0,0,1,2,.27,4.72,4.72,0,0,0-1.73.58l.67-.06c.68-.2,1.38-.37,2.07-.52l.34,0,0,0c2-1.27,3.61-2.19,4.66-2.78s1.49-.81,1.76-.93a11.78,11.78,0,0,0-3.93,0M4.08,13.31h0c.06.24.31.42.74.53-.69-1.09-.14-1.85,1.67-2.27l2.32.35a6.57,6.57,0,0,0-1.36,1.22,13.11,13.11,0,0,1,2.45-1.36,3.66,3.66,0,0,0-1.59,1.59,3.82,3.82,0,0,1,2-1.33,2.67,2.67,0,0,0-1.56,1.72,5.56,5.56,0,0,1,1.82-1.59l.37,0L11.8,11l0,0A19.27,19.27,0,0,0,5.83,9.05q-3.66-.48-5.08.8Q-1.71,12.67,3.87,15a3.64,3.64,0,0,1-.73-.51c.55.22.82.18.83-.1a2.15,2.15,0,0,0,.56.52A4.36,4.36,0,0,1,4.08,13.31Z"/></g><g id="Layer0_111_MEMBER_0_MEMBER_0_MEMBER_7_FILL" data-name="Layer0 111 MEMBER 0 MEMBER 0 MEMBER 7 FILL"><path class="cls-14" d="M40.6,6.55A1.12,1.12,0,0,1,41,6.49l0,0a6.53,6.53,0,0,0-2.35-.21,8.63,8.63,0,0,1,1.4.46,5.27,5.27,0,0,0,.53-.16Z"/></g><g id="Layer0_111_MEMBER_0_MEMBER_0_MEMBER_8_FILL" data-name="Layer0 111 MEMBER 0 MEMBER 0 MEMBER 8 FILL"><path class="cls-15" d="M43.93,15a1.13,1.13,0,0,0,.45.25,3.22,3.22,0,0,1-.46-.27v0m-6.12,9.2a2.85,2.85,0,0,1,.54.32.82.82,0,0,0-.1-.26A1.26,1.26,0,0,0,38,23.9a2.87,2.87,0,0,0-.88-.62,4.93,4.93,0,0,1-.5-.15,4.17,4.17,0,0,1-1.28-.89l-.15-.16c0,.06.07.12.11.17a5.09,5.09,0,0,0,2,1.79,3.1,3.1,0,0,0,.5.16M33.2,26.41l-.77.94c-.22.26.21.3,1.28.12h0l.46.07.47.07h.12v0a4,4,0,0,0,.77-.48,11.71,11.71,0,0,0,1-.9c.2-.19.41-.39.63-.62l-.1,0-.8-.29a5,5,0,0,1-.6.61,4.12,4.12,0,0,1-.47.38v0a.79.79,0,0,0-.91.19,1.12,1.12,0,0,1-.28.16.71.71,0,0,1-.68-.13l-.09-.07-.11-.07M31.55,23h0A6.81,6.81,0,0,0,31,22a3.24,3.24,0,0,0-.39-.47,12.7,12.7,0,0,1,.6,1.22l.12.28s.11,0,.24,0M41.33,9.5a1.24,1.24,0,0,1,.1-.22v0h0l0-.13-.62,1a6.45,6.45,0,0,0-.2.82c-.06.26-.12.51-.18.73l.06.07.06.07.26.24.08,0a1,1,0,0,1,0-.3l0-.38a8.56,8.56,0,0,1,.25-1.34l.09-.27.1-.33m-19.67,17-.49-.6.09.13c.06.08.16.21.29.4s.43.56.79,1a5.64,5.64,0,0,1,1.28,1.26h0a4,4,0,0,1,1.41.95l.05.05.12,0a4.65,4.65,0,0,0-.84-.94,4.05,4.05,0,0,0-1.42-1h0a5.24,5.24,0,0,0-1.28-1.25m-6.41-7,0,0,0,0-.16-.14,0,0a3.69,3.69,0,0,1,.17.82v.23a.52.52,0,0,0,0,.11,4,4,0,0,0,.5,1.21,10.45,10.45,0,0,0,.71,1.1c.17.26.36.51.56.76A5.74,5.74,0,0,1,16,21.35l0-.24a3.18,3.18,0,0,0-.17-.81,4.23,4.23,0,0,0-.55-.81M27,11.83a11.57,11.57,0,0,1-3.28-.38l-4.92-2V9.42l-.92-.09a10.65,10.65,0,0,0-3.93.1A9.7,9.7,0,0,0,11.78,11l0,0h0L11,12.2h-.09a2.9,2.9,0,0,0-.25,1l0,.55A3.59,3.59,0,0,0,11.15,16l0,.06a3.1,3.1,0,0,0,.49.64,4,4,0,0,1-.38-2v-.35a2.39,2.39,0,0,1,.15-.37h.08l.83-1.2h0l0,0a9.62,9.62,0,0,1,2.13-1.54,10.92,10.92,0,0,1,3.94-.1c.24,0,.54.07.91.1v0l4.92,2a11.28,11.28,0,0,0,3.29.38c.9-.07,1.55-.13,1.93-.18h.09l.36-.12a3,3,0,0,1,2.29-.89,6,6,0,0,0-1.86.75c.33-.11.7-.21,1.08-.32.69-.19,1.38-.37,2.07-.51l.34,0,0,0,3-1.82a26.29,26.29,0,0,1,2-1.85l.08-.07a11.5,11.5,0,0,1,1.41-1c-.32.25-.63.5-.93.76l-.06.05c.52-.28.89-.47,1.09-.55a.46.46,0,0,1,.21-.07l.11,0a3.88,3.88,0,0,0,.53-.16v0h0l.24,0h.18l0,0-.08-.17a3.78,3.78,0,0,1-.17-.46,1.33,1.33,0,0,1,0-.19,1.28,1.28,0,0,1,0-.43,1.7,1.7,0,0,1-.18-.57,6.37,6.37,0,0,1,.85.6,4.29,4.29,0,0,1,1.08.74,3,3,0,0,0-.41-.63,4.31,4.31,0,0,0-2-1.28,1.67,1.67,0,0,0,.19,1.3l.07.18,0,0a1.12,1.12,0,0,0-.43.06h0a5.27,5.27,0,0,1-.53.16H40a.75.75,0,0,0-.22.07c-.27.12-.86.43-1.76.93s-2.61,1.51-4.66,2.78l0,0-.34,0c-.69.15-1.39.32-2.07.52s-1.32.38-1.87.58h-.09c-.39,0-1,.11-1.94.18m-9.2-2.12h0a13,13,0,0,0-3,.38,4,4,0,0,1,3-.39m12.69,2.58c-.2.11-.39.24-.58.37a1.14,1.14,0,0,1,.15-.23,3,3,0,0,1,2.29-.89,6.21,6.21,0,0,0-1.86.75m-2.7,1.22h-.3a13.35,13.35,0,0,1-7.23-2.67,30.46,30.46,0,0,0,7.25,2.62Z"/><path class="cls-16" d="M19.32,11.19v0c-.37,0-.67-.07-.91-.1a10.92,10.92,0,0,0-3.94.1,9.62,9.62,0,0,0-2.13,1.54l0,0h0l-.83,1.2h-.08a2.39,2.39,0,0,0-.15.37v.35a4,4,0,0,0,.38,2,4.1,4.1,0,0,0,2,1.05l.93.84,0,0h0a4.47,4.47,0,0,1,.53.77l.16.14,0,0,0,0a4.23,4.23,0,0,1,.55.81,3.18,3.18,0,0,1,.17.81l0,.24a5.74,5.74,0,0,0,1.11,2.26,17.84,17.84,0,0,0,2.19,2.27l.07.07a4.78,4.78,0,0,0,1.16,1.17,7.12,7.12,0,0,1,1.57,1.71l0,0h0c.28.44.57.65.87.64a1.43,1.43,0,0,1,1,.41l1.12-.17-.05-.05a4,4,0,0,0-1.41-.95h0a5.64,5.64,0,0,0-1.28-1.26c-.36-.42-.62-.74-.79-1s-.23-.32-.29-.4l-.09-.13-.29-.38a5,5,0,0,0-.3-.41L20.5,25c0-.08-.05-.13-.06-.14l-.06-.14q-1.26-2.88-.06-4.42c.13-.22.23-.41.31-.57a5.93,5.93,0,0,0,.49-1.36,12.49,12.49,0,0,0,5.78,2.35v0l.89.13c.9.12,1.65.19,2.23.22a2.17,2.17,0,0,0-.76-.85h0a2,2,0,0,1,1,.86c.09.13.18.28.28.45A3.24,3.24,0,0,1,31,22a6.81,6.81,0,0,1,.58,1,6.8,6.8,0,0,1,.75.19c.5.16.93.32,1.32.47l.06,0,.74.29c.54.23,1.22.48,2,.77l1,.35-.49.21-.46-.16c-.07.08-.13.16-.2.23l.8.29.1,0,.06-.06a3,3,0,0,0,.52-.47l.52.1a1.42,1.42,0,0,0,0-.71,2.85,2.85,0,0,0-.54-.32,3.1,3.1,0,0,1-.5-.16,5.09,5.09,0,0,1-2-1.79c0-.05-.07-.11-.11-.17l-.33-.41a6.44,6.44,0,0,1-.5-.78l-.12-.17a4.29,4.29,0,0,0,.48-.17,4.86,4.86,0,0,0,1.54-1.09l.29-.5a3.17,3.17,0,0,0,1.35-2.24l0-.11h0l.45-1.36c.18-.69.46-1.61.84-2.77.13-.38.35-1.2.66-2.43a6.42,6.42,0,0,1,.19-.83l.63-1,0,.12h0v0h0l-.08.21-.1.33a7.3,7.3,0,0,0-.37,2,.86.86,0,0,0,.07.57l.07.13.06.09c.06-.22.12-.47.18-.73a6.45,6.45,0,0,1,.2-.82l.62-1,0,.13h0v0a1.24,1.24,0,0,0-.1.22l-.1.33-.09.27a8.56,8.56,0,0,0-.25,1.34l0,.38a1,1,0,0,0,0,.3l.22.12a1.34,1.34,0,0,0,.54.13,3,3,0,0,0,.58.8,5.79,5.79,0,0,0,1.64,1.23,1,1,0,0,0,.09.58,3.22,3.22,0,0,0,.46.27.84.84,0,0,0,.56-.05.9.9,0,0,0,.16-.26.56.56,0,0,0,.65.14,3,3,0,0,0,.89-.95,1.51,1.51,0,0,0,.15-.28c-.67-1.39-1.29-2.65-1.86-3.76a18.7,18.7,0,0,0-1.62-2.72,3.58,3.58,0,0,0-.2-.49A4.29,4.29,0,0,0,42,6.14a3.88,3.88,0,0,1,.91,1.13l-1-.28,0-.07,0,0a3.66,3.66,0,0,1-.49-.78,1.28,1.28,0,0,0,0,.43,1.33,1.33,0,0,0,0,.19,3.78,3.78,0,0,0,.17.46l.08.17,0,0h-.18l-.24,0h0v0a3.88,3.88,0,0,1-.53.16l-.11,0a.46.46,0,0,0-.21.07c-.2.08-.57.27-1.09.55-.71.61-1.42,1.25-2.12,1.93s-1.39,1.39-2.07,2.15l0,0c.62-.71,1.2-1.36,1.75-1.93l-3,1.82,0,0-.34,0c-.69.14-1.38.32-2.07.51-.38.11-.75.21-1.08.32a6,6,0,0,1,1.86-.75,3,3,0,0,0-2.29.89l-.36.12h-.09c-.38.05-1,.11-1.93.18a11.28,11.28,0,0,1-3.29-.38l-4.92-2m17.17,7.37a7.67,7.67,0,0,0,.19-.82l0-.25a8,8,0,0,0,0-2.29A3.65,3.65,0,0,1,37,17.35l-.09.35a4.35,4.35,0,0,1-.4.86m9.81-4.88,0,0,0,.06a.13.13,0,0,1,0,.06.2.2,0,0,1,0,.08l-.06,0-.12.05c-.06,0-.1,0-.12,0l0,0,0,0s0-.07.05-.15a.41.41,0,0,1,.11-.15l0-.08.07,0h.06Z"/></g><g id="Layer0_111_MEMBER_0_MEMBER_0_MEMBER_9_FILL" data-name="Layer0 111 MEMBER 0 MEMBER 0 MEMBER 9 FILL"><path class="cls-9" d="M36.7,15.2a8,8,0,0,1,0,2.29l0,.25a7.67,7.67,0,0,1-.19.82,4.35,4.35,0,0,0,.4-.86l.09-.35a3.65,3.65,0,0,0-.28-2.15m-9.24-1.7h.3l-.28-.06a30.46,30.46,0,0,1-7.25-2.62,13.35,13.35,0,0,0,7.23,2.67m7.65-1.19,0,0A46.85,46.85,0,0,1,39.38,8.2c.3-.26.61-.51.93-.76a11.5,11.5,0,0,0-1.41,1,33.93,33.93,0,0,0-3.79,3.85m-2.79-.77a2.74,2.74,0,0,0-2.44,1.12,6.78,6.78,0,0,1,2.44-1.12M17.79,9.72h0a4,4,0,0,0-3,.39A13,13,0,0,1,17.79,9.72Z"/></g><g id="Layer0_112_MEMBER_0_MEMBER_0_MEMBER_0_FILL" data-name="Layer0 112 MEMBER 0 MEMBER 0 MEMBER 0 FILL"><path class="cls-6" d="M44.91,13.64v0a.32.32,0,0,0-.07-.22.3.3,0,0,0-.21-.13h-.1a.32.32,0,0,0-.28.26.34.34,0,0,0,.06.26.3.3,0,0,0,.21.13h0a.35.35,0,0,0,.21-.07A.3.3,0,0,0,44.91,13.64Z"/></g><g id="Layer0_112_MEMBER_0_MEMBER_0_MEMBER_1_FILL" data-name="Layer0 112 MEMBER 0 MEMBER 0 MEMBER 1 FILL"><path class="cls-12" d="M40,6.72a1.52,1.52,0,0,0-.64.26,52.8,52.8,0,0,0,4.85,6.62l-.87.9.37.28.89-.87h0a.3.3,0,0,1-.21-.13.34.34,0,0,1-.06-.26.32.32,0,0,1,.28-.26h.1a.3.3,0,0,1,.21.13.32.32,0,0,1,.07.22,5.86,5.86,0,0,1,1.24-.85l-.23-.36a4.26,4.26,0,0,0-1.29.77A26.38,26.38,0,0,1,40,6.72Z"/></g><path class="cls-7" d="M44.56,14h0a.35.35,0,0,1-.24-.15.4.4,0,0,1-.07-.3.32.32,0,0,1,.17-.24.25.25,0,0,1,.16-.06h.11a.35.35,0,0,1,.24.15.36.36,0,0,1,.08.25v0a.32.32,0,0,1-.15.24.38.38,0,0,1-.24.08Zm.08-.66s-.07,0-.08,0a.28.28,0,0,0-.13,0,.27.27,0,0,0-.12.18.29.29,0,0,0,0,.22.23.23,0,0,0,.18.11h0a.3.3,0,0,0,.18-.06.27.27,0,0,0,.11-.17v0a.28.28,0,0,0-.06-.18A.27.27,0,0,0,44.64,13.3Z"/><g id="Layer0_113_MEMBER_0_MEMBER_0_MEMBER_0_FILL" data-name="Layer0 113 MEMBER 0 MEMBER 0 MEMBER 0 FILL"><path class="cls-17" d="M21.38,10.29a6.63,6.63,0,0,0-.94,6.16q1,.63,6.69,1.59c-.21-.14-.1-1,.34-2.69a12.85,12.85,0,0,1,2.26-4.21,5.19,5.19,0,0,1-3.35.13A13.14,13.14,0,0,1,21.38,10.29Z"/></g><g id="Layer0_114_MEMBER_0_MEMBER_0_MEMBER_0_FILL" data-name="Layer0 114 MEMBER 0 MEMBER 0 MEMBER 0 FILL"><path class="cls-7" d="M25.61,11.58l0,.06.27,0,0-.07H26l.9-.58h-.2c-1.82,0-3-.33-3.64-.9-.54-.31-.62-.25-.22.17l0,0A3.9,3.9,0,0,0,25.61,11.58Z"/></g><g id="Layer0_115_FILL" data-name="Layer0 115 FILL"><path class="cls-18" d="M29.47,11.21l-1.92.25a16,16,0,0,1-1.79,10.3l1.64.4A15.26,15.26,0,0,0,29.47,11.21Z"/></g><g id="Layer0_117_FILL" data-name="Layer0 117 FILL"><path class="cls-19" d="M22.25,7l.23.31a10.27,10.27,0,0,0,1.31,1.39l1.7-.92.35-.16A6.11,6.11,0,0,1,27,7.27a10.54,10.54,0,0,0,5.32-2c.23-.1.43-.2.6-.29l-.06-.34c0-.16,0-.31,0-.45A.46.46,0,0,0,32.27,4l-.14-.41a.44.44,0,0,0-.05-.15q-.46-1.2-4.2-.53a10.32,10.32,0,0,0-6,2.54l.29.85-.27,0A4.05,4.05,0,0,0,22.25,7Z"/><path class="cls-3" d="M21.65,4.69l-.1.1.1.08.11.34a5.9,5.9,0,0,1-.36.52l.4-.42,0,.11a10.32,10.32,0,0,1,6-2.54q3.74-.67,4.2.53a.44.44,0,0,1,.05.15l.14.41a.46.46,0,0,1,.56.23,1.89,1.89,0,0,0-.17-.75.46.46,0,0,0-.56-.24L32,2.8a.44.44,0,0,0-.05-.15c-.31-.8-1.71-1-4.2-.53A10.19,10.19,0,0,0,21.65,4.69Z"/></g><g id="Layer0_118_MEMBER_0_MEMBER_0_MEMBER_0_FILL" data-name="Layer0 118 MEMBER 0 MEMBER 0 MEMBER 0 FILL"><path class="cls-7" d="M26.6,10.86l-.05,1.06.09,4.39c.08-.13.16-.2.25-.21Z"/></g><g id="Layer0_118_MEMBER_0_MEMBER_0_MEMBER_1_FILL" data-name="Layer0 118 MEMBER 0 MEMBER 0 MEMBER 1 FILL"><path class="cls-20" d="M26.64,16.31a1.15,1.15,0,0,0-.14.27L26.39,18c0,.12.09.17.23.15.39.27.83.06,1.32-.65a.41.41,0,0,0,0-.45l-.84-.83-.06,0a.24.24,0,0,0-.13,0c-.09,0-.17.08-.25.21m.34.16.77.88a2.79,2.79,0,0,1-1.11.51,3,3,0,0,1,.12-1.27Z"/></g><g id="Layer0_119_FILL" data-name="Layer0 119 FILL"><path class="cls-6" d="M25.36,18.26l.41,0a4.51,4.51,0,0,0,1.75-.55.22.22,0,0,0,.08-.22,4.54,4.54,0,0,1-2.07.7l-.91-.09-.73.18a6.54,6.54,0,0,1-.8.15l.06.27,1.23-.31.24-.23Z"/><path class="cls-7" d="M26.2,17.18l.13.09,1.17.07a.84.84,0,0,0-.28-.09l-1-.07M24.55,13a2.46,2.46,0,0,1,.53-.06,2,2,0,0,0-.49-.11,2.86,2.86,0,0,0-.87,0,24.06,24.06,0,0,0-.44,3.28l0,.67v.07a2.11,2.11,0,0,0-.15,1.48,6.54,6.54,0,0,0,.8-.15,1.81,1.81,0,0,1,.18-1.2V17l.05-.67A26,26,0,0,1,24.55,13Z"/><path class="cls-21" d="M25.71,13.28a2.63,2.63,0,0,0-.63-.31,2.46,2.46,0,0,0-.53.06,26,26,0,0,0-.43,3.28l-.05.67v.07a1.81,1.81,0,0,0-.18,1.2l.73-.18.91.09a4.54,4.54,0,0,0,2.07-.7.23.23,0,0,0-.1-.12l-1.17-.07-.13-.09-.71,0a1.48,1.48,0,0,1-.65-.64h0l.15-.66A24.3,24.3,0,0,1,25.71,13.28Z"/><path class="cls-4" d="M25,10.45l-.67,0,.06,0a17.66,17.66,0,0,0-.7,2.46,2.86,2.86,0,0,1,.87,0,17.6,17.6,0,0,1,.67-2.3L25,10.45M24.7,7.39h.16l-.36-.15.2.14m-.1,0-.2-.11h-.19l.39.1M22,5.34a5.32,5.32,0,0,1-.17-.78A4.53,4.53,0,0,0,20.08,8.2c.09,1.15,1.17,1.84,3.22,2.06C21.79,10,21,9.31,20.92,8.33A4.64,4.64,0,0,1,22,5.34Z"/><path class="cls-22" d="M22,5.34a4.64,4.64,0,0,0-1,3c.08,1,.87,1.62,2.38,1.93q.42,0,.9.06l.16.09.67,0,.23.11a17.6,17.6,0,0,0-.67,2.3,2,2,0,0,1,.49.11,2.63,2.63,0,0,1,.63.31l1.48-3h-.06Q28.39,9,25,7.51L25,7.44l-.1,0H24.7l.48.31-.58-.32-.39-.1C23.08,7.31,22.33,6.66,22,5.34Z"/></g><g id="Layer0_120_MEMBER_0_MEMBER_0_FILL" data-name="Layer0 120 MEMBER 0 MEMBER 0 FILL"><path class="cls-3" d="M43.46,12.75a.4.4,0,0,1,.3-.07.38.38,0,0,1,.26.16.41.41,0,0,1,.08.3.44.44,0,0,1-.17.27.45.45,0,0,1-.3.07.4.4,0,0,1-.26-.16.39.39,0,0,1-.08-.21l-.2,0a.59.59,0,0,0,.13.34.6.6,0,0,0,.85.14.6.6,0,0,0,.25-.4.54.54,0,0,0-.12-.46.51.51,0,0,0-.39-.24.61.61,0,0,0-.46.1.57.57,0,0,0-.21.29l.21,0a.6.6,0,0,1,.11-.12M27.85,4.54a1.77,1.77,0,0,0-.46,0c-.5.7-1,1.43-1.43,2.2h0a.81.81,0,0,0-.13.34l0,.07c-.06.28.12.64.53,1.08a12.57,12.57,0,0,0,2.05,1.59,1.05,1.05,0,0,1,.05-.19A1.77,1.77,0,0,1,29,8.76c-.22-.45-.4-.77-.53-1A7.12,7.12,0,0,1,28.05,7l1.26-1.28a1.73,1.73,0,0,0-1.15-1.09l-.31,0M28,6.84h0Z"/><path class="cls-12" d="M32.33,10.76a.26.26,0,0,1-.13.09q3,.74,10.89,2.22l.2,0,.1,0,0-.23-.07,0-.21,0Z"/><path class="cls-23" d="M29.47,10.28a.58.58,0,0,0,0,.14l.84.5.51.6.53.24c.19,0,.28,0,.27-.08h0c.14,0,.19-.07.15-.13h0c.16,0,.23-.08.23-.19h0c.13-.06.2-.14.2-.24h0l-.09-.23.07,0a.26.26,0,0,0,.13-.09h0l-.79-.62-.7-.07h0L30,9.51A.93.93,0,0,0,29.47,10.28Z"/><path class="cls-4" d="M29.44,10.42a.58.58,0,0,1,0-.14l-.33-.17L29,10l-.17-.12-.37-.25a1.05,1.05,0,0,0-.05.19l.17.11.18.11.72.37m.44-7.87a1.33,1.33,0,0,0-1.06.13c-.51.62-1,1.24-1.43,1.86a1.77,1.77,0,0,1,.46,0c.43-.6.89-1.2,1.39-1.8A1.71,1.71,0,0,1,29.88,2.55Z"/><path class="cls-22" d="M29.28,9,29,8.76a1.77,1.77,0,0,0-.59.88l.37.25L29,10l.18.1.33.17A.93.93,0,0,1,30,9.51c-.28-.19-.53-.38-.73-.54m.6-6.42a1.71,1.71,0,0,0-.64.19c-.5.6-1,1.2-1.39,1.8l.31,0a1.73,1.73,0,0,1,1.15,1.09l.25-.26c.85-.92,1.21-1.58,1.06-2A1.48,1.48,0,0,0,29.88,2.55Z"/></g><g id="Layer0_146_MEMBER_0_MEMBER_0_MEMBER_0_MEMBER_0_FILL" data-name="Layer0 146 MEMBER 0 MEMBER 0 MEMBER 0 MEMBER 0 FILL"><path class="cls-24" d="M42.48,9.29a2,2,0,0,1,.93-.23,1.14,1.14,0,0,0-1.09-.53A.54.54,0,0,0,42.48,9.29Z"/></g><g id="Layer0_146_MEMBER_0_MEMBER_1_MEMBER_0_FILL" data-name="Layer0 146 MEMBER 0 MEMBER 1 MEMBER 0 FILL"><path class="cls-12" d="M41.93,8.61h0l.26,0a.58.58,0,0,0,.17.7,1.41,1.41,0,0,0-.36.24s0,0,0,0a0,0,0,0,0,0,0,.05.05,0,0,0,0,0h0a1.66,1.66,0,0,1,.39-.26h0a2,2,0,0,1,.89-.22h0l0,0a.06.06,0,0,0,0,0,1.18,1.18,0,0,0-1.14-.55h0a1.61,1.61,0,0,0-.37,0l0,0a0,0,0,0,0,0,0l0,0m.56.62c-.23-.22-.28-.43-.14-.65a1.08,1.08,0,0,1,1,.43A1.94,1.94,0,0,0,42.49,9.23Z"/></g><g id="Layer0_146_MEMBER_1_MEMBER_0_MEMBER_0_MEMBER_0_FILL" data-name="Layer0 146 MEMBER 1 MEMBER 0 MEMBER 0 MEMBER 0 FILL"><path class="cls-12" d="M43.22,8.8a1.49,1.49,0,0,0-.55-.27.24.24,0,0,0-.08.13s0,0,0,.08a.41.41,0,0,0,0,.16h0a.29.29,0,0,0,.17.19.31.31,0,0,0,.25,0,.24.24,0,0,0,.17-.17A.5.5,0,0,0,43.22,8.8Z"/></g><g id="Face_0_Layer0_0_MEMBER_0_FILL" data-name="Face 0 Layer0 0 MEMBER 0 FILL"><path class="cls-25" d="M32.77,4a1.05,1.05,0,0,0-.22-.72A.67.67,0,0,0,32,2.93a.83.83,0,0,0-.62.28.92.92,0,0,0-.17.9,1.05,1.05,0,0,0,.53.79,1.23,1.23,0,0,0,.71.15.32.32,0,0,0,.31-.36C32.76,4.48,32.77,4.24,32.77,4Z"/></g><g id="Face_0_Layer0_0_MEMBER_1_MEMBER_0_MEMBER_0_MEMBER_0_FILL" data-name="Face 0 Layer0 0 MEMBER 1 MEMBER 0 MEMBER 0 MEMBER 0 FILL"><path class="cls-26" d="M31.48,2.92h0l-.17,0V3h.17Z"/></g><g id="Face_0_Layer0_0_MEMBER_1_MEMBER_0_MEMBER_0_MEMBER_1_FILL" data-name="Face 0 Layer0 0 MEMBER 1 MEMBER 0 MEMBER 0 MEMBER 1 FILL"><path class="cls-27" d="M31.65,4.61l.7.21L32.24,4a2,2,0,0,1-.59-1,.07.07,0,0,0,0-.06l-.15,0,0,.48A1.56,1.56,0,0,0,31.65,4.61Z"/></g><g id="Face_0_Layer0_0_MEMBER_1_MEMBER_0_MEMBER_0_MEMBER_2_FILL" data-name="Face 0 Layer0 0 MEMBER 1 MEMBER 0 MEMBER 0 MEMBER 2 FILL"><path class="cls-28" d="M32.73,3.1h0L31.91,3c.21.67.44,1,.71.84h0a.7.7,0,0,0,.08-.14A.71.71,0,0,0,32.73,3.1Z"/></g><g id="Face_0_Layer0_0_MEMBER_1_MEMBER_0_MEMBER_0_MEMBER_3_FILL" data-name="Face 0 Layer0 0 MEMBER 1 MEMBER 0 MEMBER 0 MEMBER 3 FILL"><path class="cls-29" d="M32.74,4l-.14.12V5a.69.69,0,0,0,0,.13,1.15,1.15,0,0,0,.54.4c.18,0,.26-.08.24-.2s0-.16.06-.18.21-.06.19-.12a.36.36,0,0,0,0-.09c.1,0,.16,0,.19-.13L34,4.66a.56.56,0,0,0,.29.16c.08,0,.11-.12.12-.3l0-.37a1.45,1.45,0,0,1-.74-.1A6.15,6.15,0,0,1,33,3.3.79.79,0,0,1,32.74,4Z"/></g><g id="Face_0_Layer0_0_MEMBER_1_MEMBER_0_MEMBER_0_MEMBER_4_FILL" data-name="Face 0 Layer0 0 MEMBER 1 MEMBER 0 MEMBER 0 MEMBER 4 FILL"><path class="cls-12" d="M31.63,3a.07.07,0,0,1,0,.06,2,2,0,0,0,.59,1l.11.85v0a.42.42,0,0,0,.3.31.69.69,0,0,1,0-.13V4.15L32.74,4A.79.79,0,0,0,33,3.3a6.15,6.15,0,0,0,.7.75,1.45,1.45,0,0,0,.74.1l0-.13.05-.1a1.31,1.31,0,0,1-.85-.31c0-.23,0-.37.06-.43l-1-.08a.71.71,0,0,1,0,.59.7.7,0,0,1-.08.14h0c-.27.11-.5-.17-.71-.84Z"/></g><g id="Face_0_Layer0_0_MEMBER_1_MEMBER_0_MEMBER_0_MEMBER_5_FILL" data-name="Face 0 Layer0 0 MEMBER 1 MEMBER 0 MEMBER 0 MEMBER 5 FILL"><path class="cls-5" d="M33.67,3.61a1.31,1.31,0,0,0,.85.31s0,0,0,0a1.9,1.9,0,0,0,.57-.72c-.5,0-1,0-1.36,0C33.66,3.24,33.64,3.38,33.67,3.61Z"/></g><g id="Face_0_Layer0_0_MEMBER_1_MEMBER_0_MEMBER_0_MEMBER_6_FILL" data-name="Face 0 Layer0 0 MEMBER 1 MEMBER 0 MEMBER 0 MEMBER 6 FILL"><path class="cls-30" d="M36.42,3.06c0-.09-.3-.17-.78-.22s-1.12.05-1.67,0a10.41,10.41,0,0,1-1.3-.1,10.48,10.48,0,0,1-1.38-.25L31,2.44l0,.36.07.05.39.07h0l.43.08.78.1h0l1,.08c.41,0,.86,0,1.36,0h.43Q36.48,3.21,36.42,3.06Z"/></g><g id="Face_0_Layer0_0_MEMBER_1_MEMBER_0_MEMBER_0_MEMBER_7_FILL" data-name="Face 0 Layer0 0 MEMBER 1 MEMBER 0 MEMBER 0 MEMBER 7 FILL"><path class="cls-31" d="M35.64,2.84l0-.25c-.41,0-.8,0-1.16,0a16.7,16.7,0,0,1-1.81-.11L31.2,2.3l-.21,0a0,0,0,0,1,0,.05v.13l.3.09a10.48,10.48,0,0,0,1.38.25,10.41,10.41,0,0,0,1.3.1C34.52,2.89,35.07,2.88,35.64,2.84Z"/></g><g id="Face_0_Layer0_0_MEMBER_1_MEMBER_0_MEMBER_0_MEMBER_8_FILL" data-name="Face 0 Layer0 0 MEMBER 1 MEMBER 0 MEMBER 0 MEMBER 8 FILL"><path class="cls-32" d="M35.62,2.59a1.6,1.6,0,0,0,0-.31A2.34,2.34,0,0,0,34.85.62a2,2,0,0,0-.52-.37A2.1,2.1,0,0,0,33.25,0h-.08a2,2,0,0,0-.65.13,2.13,2.13,0,0,0-.94.66,2.66,2.66,0,0,0-.24.32l-.18.37a2.47,2.47,0,0,0-.17.77l.21,0,1.45.21a16.7,16.7,0,0,0,1.81.11C34.82,2.63,35.21,2.61,35.62,2.59Z"/></g><g id="Face_0_Layer0_0_MEMBER_2_MEMBER_0_MEMBER_0_MEMBER_0_FILL" data-name="Face 0 Layer0 0 MEMBER 2 MEMBER 0 MEMBER 0 MEMBER 0 FILL"><path class="cls-33" d="M34.53,3.93v0a1.85,1.85,0,0,0,.56-.72c-.43,0-.88,0-1.36,0-.07.06-.09.21-.06.44A1.32,1.32,0,0,0,34.53,3.93Z"/></g></g></g></svg>