<svg xmlns="http://www.w3.org/2000/svg" viewBox="0 0 213.74 166.23">
    <defs>
        <style>.cls-1{isolation:isolate;}.cls-2,.cls-4,.cls-8{fill:none;}.cls-2,.cls-4,.cls-5,.cls-8{stroke:#40b549;stroke-miterlimit:10;}.cls-2,.cls-4,.cls-5{stroke-width:2px;}.cls-3,.cls-9{fill:#40b549;}.cls-4{stroke-dasharray:1.96 1.96;}.cls-5{fill:#fff;}.cls-6{fill:#44aee3;}.cls-6,.cls-7{mix-blend-mode:soft-light;}.cls-7{fill:#231f20;}.cls-9{font-size:12px;font-family:Montserrat-Bold, Montserrat;font-weight:700;}.cls-10{font-size:16px;fill:#494949;font-family:Montserrat-Regular, Montserrat;}</style>
    </defs>
    <g class="cls-1">
        <g id="Layer_2" data-name="Layer 2">
            <g id="Layer_1-2" data-name="Layer 1">
                <polyline class="cls-2" points="98.09 132.48 65.41 132.48 56.56 132.48 5.33 132.48 5.33 29.34 208.41 29.34 208.41 132.48 115.9 132.48"/>
                <circle class="cls-3" cx="5.33" cy="29.34" r="5.33"/>
                <circle class="cls-3" cx="45.94" cy="29.34" r="5.33"/>
                <circle class="cls-3" cx="86.56" cy="29.34" r="5.33"/>
                <circle class="cls-3" cx="127.18" cy="29.34" r="5.33"/>
                <circle class="cls-3" cx="167.79" cy="29.34" r="5.33"/>
                <circle class="cls-3" cx="208.41" cy="29.34" r="5.33"/>
                <circle class="cls-3" cx="5.33" cy="132.48" r="5.33"/>
                <circle class="cls-3" cx="45.94" cy="132.48" r="5.33"/>
                <circle class="cls-3" cx="86.56" cy="132.48" r="5.33"/>
                <circle class="cls-3" cx="127.18" cy="132.48" r="5.33"/>
                <circle class="cls-3" cx="167.79" cy="132.48" r="5.33"/>
                <circle class="cls-3" cx="208.41" cy="132.48" r="5.33"/>
                <rect class="cls-3" x="97.25" y="123.32" width="1" height="19"/>
                <rect class="cls-3" x="111.83" y="123.32" width="1" height="19"/>
                <rect class="cls-3" x="115.34" y="127.48" width="2" height="10"/>
                <rect class="cls-3" x="100.25" y="127.16" width="2" height="10"/>
                <line class="cls-3" x1="119.88" y1="132.48" x2="100.25" y2="132.48"/>
                <line class="cls-2" x1="119.88" y1="132.48" x2="118.88" y2="132.48"/>
                <line class="cls-4" x1="116.92" y1="132.48" x2="102.23" y2="132.48"/>
                <line class="cls-2" x1="101.25" y1="132.48" x2="100.25" y2="132.48"/>
                <path class="cls-3" d="M104,35h0a3.34,3.34,0,0,1-2.72-1.48l-.05,0h5.52l0,0A3.54,3.54,0,0,1,104,35Z"/>
                <path class="cls-2" d="M114.88,11.87a10.84,10.84,0,0,1-2.9,7.39,9.31,9.31,0,0,0-2.41,5.08l0,.28a1,1,0,0,1-1,.89h-9a1,1,0,0,1-1-.89l0-.33A9.07,9.07,0,0,0,97.81,22,9.48,9.48,0,0,0,96,19.25,10.86,10.86,0,0,1,104.38,1a10.84,10.84,0,0,1,10.5,10.86Z"/>
                <path class="cls-3" d="M110.31,15a1.93,1.93,0,0,0-2.15-1.93h-.1a2.12,2.12,0,0,0-2.32,2.07l-.11,1.3h-3.37l-.11-1.31a2,2,0,0,0-2.05-2.06A2.08,2.08,0,0,0,97.69,15a2.37,2.37,0,0,0,.62,1.68,1.69,1.69,0,0,0,1.4.6h1.77l.68,8.35.85-.08-.67-8.27h3.21l-.78,8.28,1,.08.67-8.35h1.63a2.15,2.15,0,0,0,1.62-.59A2.38,2.38,0,0,0,110.31,15ZM108,16.46h-1.52l.1-1.21a1.47,1.47,0,0,1,1.29-1.47,1.34,1.34,0,0,1,.13,2.68Zm-6.64,0H99.63a1.27,1.27,0,0,1-1.16-1.39,1.21,1.21,0,0,1,1.34-1.29h.06a1.59,1.59,0,0,1,1.43,1.46Z"/>
                <path class="cls-5" d="M108.78,27.49a.28.28,0,0,1,.09-.2,1.15,1.15,0,0,0,.37-.78,1,1,0,0,0-1-1H99.78a1,1,0,0,0-1,1,1,1,0,0,0,.38.79c.13.1.3.14.18.31s-.24.16-.32.27a1,1,0,0,0-.24.64,1,1,0,0,0,.46.84c.14.09.25.1.11.26s-.24.15-.33.26a1,1,0,0,0-.24.64,1.09,1.09,0,0,0,.46.85c.28.23.24.62.39.94a2.08,2.08,0,0,0,.54.74l0,0a1.75,1.75,0,0,0,1.18.45h5.26a1.75,1.75,0,0,0,1.18-.45l0,0a2.25,2.25,0,0,0,.56-.77c.13-.3.15-.7.39-.93a1.08,1.08,0,0,0,.44-.83,1,1,0,0,0-.21-.61c-.15-.19-.38-.35-.19-.59s.4-.43.4-.8a1,1,0,0,0-.21-.61C108.91,27.75,108.77,27.63,108.78,27.49Z"/>
                <path class="cls-6" d="M99,29.86l0,0Z"/>
                <path class="cls-7" d="M107.74,33.15a1.81,1.81,0,0,1-1.1.38h-5.26a1.72,1.72,0,0,1-1.09-.38c1,0,2.34-.06,3.8-.06S106.74,33.11,107.74,33.15Z"/>
                <circle class="cls-5" cx="147.48" cy="28.34" r="8.79"/>
                <line class="cls-8" x1="151.58" y1="24.24" x2="142.54" y2="33.28"/>
                <path class="cls-3" d="M143.35,25.68a.5.5,0,0,0,.6.38l7.46-1.66-1.65,7.47a.5.5,0,0,0,.38.6.49.49,0,0,0,.59-.38l1.83-8.23a.49.49,0,0,0-.6-.6l-8.23,1.83a.47.47,0,0,0-.25.13A.51.51,0,0,0,143.35,25.68Z"/>
                <text class="cls-9" transform="translate(142.54 13.25)">A</text>
                <text class="cls-9" transform="translate(91.6 123.32)">+</text>
                <text class="cls-9" transform="translate(111.85 123.32)">−</text>
                <text class="cls-10" transform="translate(97.17 162.04)">1 V</text>
                <text class="cls-10" transform="translate(114.77 55.83)">0.5 Amps</text>
            </g>
        </g>
    </g>
</svg>