<svg xmlns="http://www.w3.org/2000/svg" viewBox="0 0 37.3 39.87">
    <defs>
        <style>.cls-1{fill:none;stroke:#bb6828;stroke-miterlimit:10;stroke-width:0.8px;}.cls-2{fill:#131414;}.cls-3,.cls-5{fill:#63afb7;}.cls-4,.cls-6{fill:#3f7982;}.cls-10,.cls-11,.cls-4,.cls-5,.cls-7,.cls-8,.cls-9{fill-rule:evenodd;}.cls-7{fill:#80d7de;}.cls-8{fill:#fbc800;}.cls-9{fill:#fff9dc;}.cls-10{fill:#40484c;}.cls-11{fill:#6b777e;}</style>
    </defs>
    <g id="Layer_2" data-name="Layer 2">
        <g id="Layer_1-2" data-name="Layer 1">
            <path class="cls-1" d="M12.56,39.47s5.54-.57,5.36-7.92"/>
            <path class="cls-1" d="M25,39.47s-5.55-.57-5.37-7.92"/>
            <path class="cls-2" d="M1.54,28.15A3,3,0,0,1,.41,27h0A3.06,3.06,0,0,1,0,25.49a3.09,3.09,0,0,1,3.1-3.1,3.15,3.15,0,0,1,2.19.9,3.14,3.14,0,0,1,.9,2.2,2.77,2.77,0,0,1,0,.39,2.36,2.36,0,0,1-.08.4L5.16,26a1.4,1.4,0,0,0,.06-.28c0-.08,0-.18,0-.27A2.11,2.11,0,0,0,4.6,24a2.09,2.09,0,0,0-3,0,2.09,2.09,0,0,0-.35,2.57h0a2.27,2.27,0,0,0,.78.79Z"/>
            <path class="cls-3" d="M7.29,15c-1.38,1.51-3.1,4.27-4.19,9.27l-1.54-.35C2.78,18.4,4.8,15.32,6.42,13.66A2.61,2.61,0,0,0,7.29,15Z"/>
            <path class="cls-4" d="M9,10.29H9v5.3a2.65,2.65,0,0,1,0-5.3Z"/>
            <path class="cls-5" d="M9.78,9.48H27.5a.83.83,0,0,1,.83.83V24.2a.83.83,0,0,1-.83.83H9.78A.83.83,0,0,1,9,24.2V10.31a.84.84,0,0,1,.82-.83Z"/>
            <rect class="cls-6" x="10.34" y="12.21" width="16.63" height="4.89"/>
            <rect class="cls-6" x="16.02" y="7.83" width="5.26" height="1.65"/>
            <path class="cls-5" d="M12.56,7.83H24.74a.78.78,0,0,0,.78-.78V.79A.78.78,0,0,0,24.74,0H12.56a.78.78,0,0,0-.78.79V7.05a.78.78,0,0,0,.78.78Z"/>
            <path class="cls-7" d="M15.37,1.08a2.84,2.84,0,1,1-2.84,2.84,2.84,2.84,0,0,1,2.84-2.84Zm6.56,0a2.84,2.84,0,1,1-2.84,2.84,2.84,2.84,0,0,1,2.84-2.84Z"/>
            <path class="cls-8" d="M15.37,1.51A2.41,2.41,0,1,1,13,3.92a2.4,2.4,0,0,1,2.4-2.41Z"/>
            <path class="cls-8" d="M21.93,1.15a2.41,2.41,0,1,1-2.4,2.41,2.4,2.4,0,0,1,2.4-2.41Z"/>
            <path class="cls-9" d="M15.36,3.41a.5.5,0,0,0-.49.51.5.5,0,0,0,1,0,.51.51,0,0,0-.51-.51Z"/>
            <path class="cls-9" d="M21.92,3.06a.49.49,0,0,0-.49.5.5.5,0,1,0,.49-.5Z"/>
            <rect class="cls-6" x="11.27" y="1.73" width="0.51" height="4.37"/>
            <rect class="cls-3" x="10.75" y="2.37" width="0.52" height="3.1"/>
            <rect class="cls-6" x="25.52" y="1.73" width="0.51" height="4.37"/>
            <rect class="cls-3" x="26.03" y="2.37" width="0.52" height="3.1"/>
            <path class="cls-4" d="M2.49,21.26a2,2,0,1,1-2,2,2,2,0,0,1,2-2Z"/>
            <path class="cls-7" d="M2.49,22.21a1,1,0,1,1-1,1,1,1,0,0,1,1-1Z"/>
            <path class="cls-2" d="M35.76,28.15A3,3,0,0,0,36.89,27h0a3.06,3.06,0,0,0,.41-1.54,3.1,3.1,0,1,0-6.19,0,2.77,2.77,0,0,0,0,.39,2.36,2.36,0,0,0,.08.4l.92-.24a1.4,1.4,0,0,1-.06-.28c0-.08,0-.18,0-.27a2.15,2.15,0,0,1,4.29,0,2.16,2.16,0,0,1-.29,1.06h0a2.22,2.22,0,0,1-.79.79Z"/>
            <path class="cls-3" d="M30,15c1.38,1.51,3.1,4.27,4.19,9.27l1.54-.35c-1.22-5.51-3.24-8.59-4.85-10.25A2.76,2.76,0,0,1,30,15Z"/>
            <path class="cls-4" d="M28.33,10.29h0v5.3a2.65,2.65,0,1,0,0-5.3Z"/>
            <path class="cls-4" d="M34.81,21.26a2,2,0,1,0,2,2,2,2,0,0,0-2-2Z"/>
            <path class="cls-7" d="M34.81,22.21a1,1,0,1,0,1,1,1.05,1.05,0,0,0-1-1Z"/>
            <rect class="cls-6" x="15.94" y="24.86" width="5.4" height="1.37"/>
            <path class="cls-10" d="M9.5,25.47h4.39a.92.92,0,0,1,.91.93v8.38a.91.91,0,0,1-.91.91H9.5a.92.92,0,0,1-.92-.91V26.4a.93.93,0,0,1,.92-.93Z"/>
            <path class="cls-11" d="M9.34,28.21h4.71a.19.19,0,0,1,.19.19h0a.19.19,0,0,1-.19.19H9.34a.18.18,0,0,1-.19-.19h0a.18.18,0,0,1,.19-.19Zm0,1.45h4.71a.2.2,0,0,1,.19.19h0a.2.2,0,0,1-.19.19H9.34a.19.19,0,0,1-.19-.19h0a.19.19,0,0,1,.19-.19Zm0,1.46h4.71a.2.2,0,0,1,.19.19h0a.2.2,0,0,1-.19.19H9.34a.19.19,0,0,1-.19-.19h0a.19.19,0,0,1,.19-.19Zm0,1.46h4.71a.19.19,0,0,1,.19.19h0a.2.2,0,0,1-.19.19H9.34a.19.19,0,0,1-.19-.19h0a.18.18,0,0,1,.19-.19Zm0,1.45h4.71a.19.19,0,0,1,.19.19h0a.2.2,0,0,1-.19.19H9.34a.19.19,0,0,1-.19-.19h0A.18.18,0,0,1,9.34,34Zm0-7.27h4.71a.19.19,0,0,1,.19.19h0a.19.19,0,0,1-.19.19H9.34A.18.18,0,0,1,9.15,27h0a.18.18,0,0,1,.19-.19Z"/>
            <path class="cls-10" d="M23.4,25.47h4.38a.93.93,0,0,1,.92.93v8.38a.92.92,0,0,1-.92.91H23.4a.93.93,0,0,1-.93-.91V26.4a.93.93,0,0,1,.93-.93Z"/>
            <path class="cls-11" d="M23.24,28.21h4.7a.19.19,0,0,1,.19.19h0a.19.19,0,0,1-.19.19h-4.7a.18.18,0,0,1-.19-.19h0a.18.18,0,0,1,.19-.19Zm0,1.45h4.7a.2.2,0,0,1,.19.19h0a.2.2,0,0,1-.19.19h-4.7a.18.18,0,0,1-.19-.19h0a.18.18,0,0,1,.19-.19Zm0,1.46h4.7a.2.2,0,0,1,.19.19h0a.2.2,0,0,1-.19.19h-4.7a.18.18,0,0,1-.19-.19h0a.18.18,0,0,1,.19-.19Zm0,1.46h4.7a.19.19,0,0,1,.19.19h0a.2.2,0,0,1-.19.19h-4.7a.18.18,0,0,1-.19-.19h0a.18.18,0,0,1,.19-.19Zm0,1.45h4.7a.19.19,0,0,1,.19.19h0a.2.2,0,0,1-.19.19h-4.7a.18.18,0,0,1-.19-.19h0a.18.18,0,0,1,.19-.19Zm0-7.27h4.7a.19.19,0,0,1,.19.19h0a.19.19,0,0,1-.19.19h-4.7a.18.18,0,0,1-.19-.19h0a.18.18,0,0,1,.19-.19Z"/>
            <polygon class="cls-5" points="14.8 29.79 17.64 29.79 17.64 26.23 19.63 26.23 19.63 29.79 22.47 29.79 22.47 31.37 14.8 31.37 14.8 29.79"/>
            <path class="cls-4" d="M18.63,28.21a2.14,2.14,0,1,1-2.14,2.14,2.14,2.14,0,0,1,2.14-2.14Z"/>
        </g>
    </g>
</svg>