<svg xmlns="http://www.w3.org/2000/svg" viewBox="0 0 62.84 43.1">
    <defs>
        <style>.cls-1{isolation:isolate;}.cls-2{fill:none;stroke:#bb6828;stroke-miterlimit:10;stroke-width:0.8px;}.cls-3{fill:#cd3f22;stroke:#8b0a08;stroke-linecap:round;stroke-linejoin:round;stroke-width:0.21px;}.cls-4{fill:#992310;}.cls-5{fill:#fff;opacity:0.27;mix-blend-mode:screen;}.cls-6{fill:#131414;}.cls-7,.cls-9{fill:#63afb7;}.cls-10,.cls-8{fill:#3f7982;}.cls-11,.cls-12,.cls-13,.cls-14,.cls-15,.cls-8,.cls-9{fill-rule:evenodd;}.cls-11{fill:#80d7de;}.cls-12{fill:#fbc800;}.cls-13{fill:#fff9dc;}.cls-14{fill:#40484c;}.cls-15{fill:#6b777e;}</style>
    </defs>
    <g class="cls-1">
        <g id="Layer_2" data-name="Layer 2">
            <g id="Layer_1-2" data-name="Layer 1">
                <path class="cls-2" d="M0,39.47H25.22s5.54-.57,5.36-7.92"/>
                <path class="cls-2" d="M62.84,39.47H37.62s-5.54-.57-5.36-7.92"/>
                <rect class="cls-3" x="3.2" y="36.6" width="22.4" height="6.4"/>
                <rect class="cls-4" x="3.2" y="37.01" width="22.4" height="2.79"/>
                <rect class="cls-5" x="3.2" y="40.33" width="22.4" height="1.31"/>
                <rect class="cls-3" x="36.88" y="36.6" width="22.4" height="6.4"/>
                <rect class="cls-4" x="36.88" y="37.01" width="22.4" height="2.79"/>
                <rect class="cls-5" x="36.88" y="40.33" width="22.4" height="1.31"/>
                <path class="cls-6" d="M14.2,28.15A3,3,0,0,1,13.07,27h0a3.06,3.06,0,0,1-.41-1.54,3.1,3.1,0,0,1,5.28-2.2,3.11,3.11,0,0,1,.91,2.2c0,.12,0,.25,0,.39a4,4,0,0,1-.08.4L17.82,26a1.4,1.4,0,0,0,.06-.28c0-.08,0-.18,0-.27A2.16,2.16,0,0,0,17.26,24a2.13,2.13,0,0,0-3.36,2.57h0a2.33,2.33,0,0,0,.77.79Z"/>
                <path class="cls-7" d="M20,15c-1.39,1.51-3.1,4.27-4.2,9.27l-1.54-.35c1.23-5.51,3.24-8.59,4.86-10.25A2.63,2.63,0,0,0,20,15Z"/>
                <path class="cls-8" d="M21.61,10.29h0v5.3a2.65,2.65,0,0,1,0-5.3Z"/>
                <path class="cls-9" d="M22.44,9.48H40.16a.83.83,0,0,1,.83.83V24.2a.83.83,0,0,1-.83.83H22.44a.83.83,0,0,1-.83-.83V10.31a.84.84,0,0,1,.83-.83Z"/>
                <rect class="cls-10" x="22.99" y="12.21" width="16.63" height="4.89"/>
                <rect class="cls-10" x="28.68" y="7.83" width="5.26" height="1.65"/>
                <path class="cls-9" d="M25.22,7.83H37.4a.77.77,0,0,0,.77-.78V.79A.77.77,0,0,0,37.4,0H25.22a.78.78,0,0,0-.78.79V7.05a.78.78,0,0,0,.78.78Z"/>
                <path class="cls-11" d="M28,1.08a2.84,2.84,0,1,1-2.84,2.84A2.84,2.84,0,0,1,28,1.08Zm6.56,0a2.84,2.84,0,1,1-2.85,2.84,2.84,2.84,0,0,1,2.85-2.84Z"/>
                <path class="cls-12" d="M28,1.51a2.41,2.41,0,1,1-2.4,2.41A2.4,2.4,0,0,1,28,1.51Z"/>
                <path class="cls-12" d="M34.59,1.15a2.41,2.41,0,1,1-2.4,2.41,2.39,2.39,0,0,1,2.4-2.41Z"/>
                <path class="cls-13" d="M28,3.41a.5.5,0,0,0-.49.51.5.5,0,0,0,1,0A.51.51,0,0,0,28,3.41Z"/>
                <path class="cls-13" d="M34.58,3.06a.49.49,0,0,0-.49.5.5.5,0,0,0,.49.5.51.51,0,0,0,.51-.5.5.5,0,0,0-.51-.5Z"/>
                <rect class="cls-10" x="23.93" y="1.73" width="0.51" height="4.37"/>
                <rect class="cls-7" x="23.41" y="2.37" width="0.52" height="3.1"/>
                <rect class="cls-10" x="38.17" y="1.73" width="0.51" height="4.37"/>
                <rect class="cls-7" x="38.68" y="2.37" width="0.52" height="3.1"/>
                <path class="cls-8" d="M15.15,21.26a2,2,0,1,1-2,2,2,2,0,0,1,2-2Z"/>
                <path class="cls-11" d="M15.15,22.21a1,1,0,1,1-1.05,1,1.05,1.05,0,0,1,1.05-1Z"/>
                <path class="cls-6" d="M48.42,28.15A3.08,3.08,0,0,0,49.54,27h0A3.07,3.07,0,0,0,50,25.49a3.1,3.1,0,1,0-6.2,0,2.87,2.87,0,0,0,0,.39,1.67,1.67,0,0,0,.08.4L44.8,26a1.43,1.43,0,0,1-.07-.28c0-.08,0-.18,0-.27A2.11,2.11,0,0,1,45.35,24,2.14,2.14,0,0,1,49,25.49a2.26,2.26,0,0,1-.28,1.06h0a2.17,2.17,0,0,1-.8.79Z"/>
                <path class="cls-7" d="M42.67,15c1.38,1.51,3.1,4.27,4.19,9.27l1.54-.35c-1.22-5.51-3.24-8.59-4.86-10.25A2.75,2.75,0,0,1,42.67,15Z"/>
                <path class="cls-8" d="M41,10.29h0v5.3a2.65,2.65,0,0,0,0-5.3Z"/>
                <path class="cls-8" d="M47.46,21.26a2,2,0,1,0,2,2,2,2,0,0,0-2-2Z"/>
                <path class="cls-11" d="M47.46,22.21a1,1,0,1,0,1,1,1,1,0,0,0-1-1Z"/>
                <rect class="cls-10" x="28.6" y="24.86" width="5.4" height="1.37"/>
                <path class="cls-14" d="M22.16,25.47h4.38a.93.93,0,0,1,.92.93v8.38a.92.92,0,0,1-.92.91H22.16a.92.92,0,0,1-.92-.91V26.4a.93.93,0,0,1,.92-.93Z"/>
                <path class="cls-15" d="M22,28.21h4.7a.18.18,0,0,1,.19.19h0a.18.18,0,0,1-.19.19H22a.18.18,0,0,1-.19-.19h0a.18.18,0,0,1,.19-.19Zm0,1.45h4.7a.19.19,0,0,1,.19.19h0a.19.19,0,0,1-.19.19H22a.18.18,0,0,1-.19-.19h0a.18.18,0,0,1,.19-.19Zm0,1.46h4.7a.19.19,0,0,1,.19.19h0a.19.19,0,0,1-.19.19H22a.18.18,0,0,1-.19-.19h0a.18.18,0,0,1,.19-.19Zm0,1.46h4.7a.18.18,0,0,1,.19.19h0a.19.19,0,0,1-.19.19H22a.18.18,0,0,1-.19-.19h0a.18.18,0,0,1,.19-.19ZM22,34h4.7a.18.18,0,0,1,.19.19h0a.19.19,0,0,1-.19.19H22a.18.18,0,0,1-.19-.19h0A.18.18,0,0,1,22,34Zm0-7.27h4.7a.18.18,0,0,1,.19.19h0a.18.18,0,0,1-.19.19H22a.18.18,0,0,1-.19-.19h0a.18.18,0,0,1,.19-.19Z"/>
                <path class="cls-14" d="M36.05,25.47h4.39a.93.93,0,0,1,.92.93v8.38a.92.92,0,0,1-.92.91H36.05a.94.94,0,0,1-.93-.91V26.4a.94.94,0,0,1,.93-.93Z"/>
                <path class="cls-15" d="M35.89,28.21H40.6a.19.19,0,0,1,.19.19h0a.19.19,0,0,1-.19.19H35.89a.18.18,0,0,1-.18-.19h0a.18.18,0,0,1,.18-.19Zm0,1.45H40.6a.2.2,0,0,1,.19.19h0a.2.2,0,0,1-.19.19H35.89a.18.18,0,0,1-.18-.19h0a.18.18,0,0,1,.18-.19Zm0,1.46H40.6a.2.2,0,0,1,.19.19h0a.2.2,0,0,1-.19.19H35.89a.18.18,0,0,1-.18-.19h0a.18.18,0,0,1,.18-.19Zm0,1.46H40.6a.19.19,0,0,1,.19.19h0a.2.2,0,0,1-.19.19H35.89a.18.18,0,0,1-.18-.19h0a.18.18,0,0,1,.18-.19Zm0,1.45H40.6a.19.19,0,0,1,.19.19h0a.2.2,0,0,1-.19.19H35.89a.18.18,0,0,1-.18-.19h0a.18.18,0,0,1,.18-.19Zm0-7.27H40.6a.19.19,0,0,1,.19.19h0a.19.19,0,0,1-.19.19H35.89a.18.18,0,0,1-.18-.19h0a.18.18,0,0,1,.18-.19Z"/>
                <polygon class="cls-9" points="27.46 29.79 30.3 29.79 30.3 26.23 32.28 26.23 32.28 29.79 35.12 29.79 35.12 31.37 27.46 31.37 27.46 29.79"/>
                <path class="cls-8" d="M31.29,28.21a2.14,2.14,0,1,1-2.14,2.14,2.13,2.13,0,0,1,2.14-2.14Z"/>
            </g>
        </g>
    </g>
</svg>